<svg width="85" height="30" viewBox="0 0 85 30" fill="none" xmlns="http://www.w3.org/2000/svg">
<path d="M8.892 3.6L7.104 12H12.36L12.504 11.328H8.016L8.724 7.992H12.696L12.84 7.32H8.868L9.516 4.272H13.884L14.028 3.6H8.892ZM22.6818 3.6L19.3338 7.2L17.5218 3.6H16.6098L18.7578 7.8L14.8218 12H15.7338L19.0818 8.412L20.8938 12H21.8178L19.6578 7.8L23.6058 3.6H22.6818ZM26.6168 3.6L24.8288 12H25.5968L26.2568 8.88H28.9088C29.7368 8.88 30.4088 8.652 30.9248 8.172C31.4408 7.692 31.7888 7.056 31.9568 6.24C32.0168 5.952 32.0528 5.688 32.0528 5.436C32.0528 5.064 31.9808 4.74 31.8488 4.476C31.7048 4.212 31.4888 3.996 31.1768 3.84C30.8648 3.684 30.4808 3.6 30.0248 3.6H26.6168ZM26.4008 8.208L27.2408 4.272H29.8808C30.3488 4.272 30.6968 4.392 30.9248 4.62C31.1408 4.848 31.2608 5.172 31.2608 5.592C31.2608 5.796 31.2368 6.012 31.1888 6.24C31.0568 6.852 30.8168 7.332 30.4568 7.68C30.0968 8.04 29.6168 8.208 29.0408 8.208H26.4008ZM37.0305 3.6L32.2185 12H33.0225L34.1505 10.02H37.8345L38.1465 12H38.9385L37.7025 3.6H37.0305ZM37.7865 9.396H34.4625L37.1265 4.704L37.7865 9.396ZM48.8918 3.6L47.4158 10.56L44.3198 3.6H43.6118L41.8238 12H42.5918L44.0798 5.04L47.1758 12H47.8838L49.6598 3.6H48.8918ZM50.8125 11.724C51.3045 11.916 51.7485 12.036 52.1325 12.108C52.5165 12.18 52.9365 12.204 53.3925 12.204C53.5965 12.204 53.7765 12.204 53.9205 12.192C54.0645 12.192 54.2445 12.168 54.4605 12.132C54.6765 12.108 54.8685 12.06 55.0365 12C55.1925 11.94 55.3605 11.856 55.5525 11.736C55.7445 11.616 55.9005 11.484 56.0325 11.316C56.1645 11.16 56.2965 10.956 56.4165 10.704C56.5365 10.464 56.6205 10.176 56.6925 9.852C56.7285 9.66 56.7525 9.468 56.7525 9.3C56.7525 9.132 56.7285 8.976 56.6805 8.82C56.6325 8.676 56.5845 8.544 56.5245 8.436C56.4645 8.328 56.3685 8.22 56.2365 8.112C56.1045 8.016 55.9965 7.932 55.9125 7.86C55.8165 7.8 55.6845 7.728 55.4925 7.644C55.3005 7.56 55.1685 7.5 55.0725 7.464C54.9765 7.428 54.8205 7.368 54.6165 7.284C54.4005 7.212 54.2445 7.152 54.1245 7.104C54.0045 7.056 53.8725 6.996 53.7045 6.9C53.5365 6.816 53.4165 6.732 53.3325 6.648C53.2485 6.564 53.1765 6.456 53.1165 6.324C53.0445 6.204 53.0205 6.06 53.0205 5.904C53.0205 5.808 53.0325 5.712 53.0565 5.592C53.2725 4.584 54.0285 4.08 55.3365 4.08C56.0805 4.08 56.6925 4.236 57.1845 4.548L57.6645 3.96C57.1485 3.6 56.4165 3.408 55.4805 3.408C53.6565 3.408 52.5885 4.14 52.2885 5.592C52.2405 5.76 52.2285 5.904 52.2285 6.048C52.2285 6.264 52.2645 6.468 52.3605 6.648C52.4445 6.828 52.5405 6.972 52.6485 7.092C52.7565 7.212 52.9125 7.32 53.1285 7.44C53.3445 7.56 53.5245 7.644 53.6685 7.704C53.8125 7.764 54.0045 7.836 54.2685 7.932C54.4845 8.004 54.6525 8.076 54.7845 8.124C54.9045 8.172 55.0605 8.244 55.2285 8.34C55.3965 8.436 55.5285 8.532 55.6245 8.628C55.7205 8.724 55.7925 8.856 55.8645 9C55.9365 9.144 55.9725 9.312 55.9725 9.48C55.9725 9.6 55.9485 9.732 55.9245 9.852C55.8525 10.164 55.7565 10.428 55.6245 10.644C55.4805 10.86 55.3485 11.028 55.2045 11.136C55.0605 11.256 54.8805 11.34 54.6645 11.4C54.4485 11.472 54.2565 11.508 54.1005 11.52C53.9445 11.532 53.7525 11.532 53.5365 11.532C53.1285 11.532 52.7445 11.508 52.4085 11.436C52.0605 11.376 51.6405 11.256 51.1485 11.076L50.8125 11.724ZM61.0704 3.6L59.2824 12H60.0504L61.8384 3.6H61.0704ZM68.8707 0.623999L67.7427 1.752H68.3427L69.6987 0.623999H68.8707ZM63.8667 9.396C63.8187 9.612 63.8067 9.804 63.8067 9.996C63.8067 10.452 63.9147 10.836 64.1427 11.172C64.3707 11.508 64.6827 11.772 65.0667 11.94C65.4507 12.108 65.8827 12.192 66.3747 12.192C66.9267 12.192 67.4667 12.084 67.9827 11.868C68.4987 11.652 68.9427 11.316 69.3267 10.884C69.7107 10.452 69.9627 9.96 70.0827 9.396L70.7667 6.168C70.8147 5.964 70.8387 5.76 70.8387 5.568C70.8387 5.304 70.7907 5.052 70.7067 4.812C70.6107 4.584 70.4907 4.38 70.3347 4.212C70.1787 4.044 69.9987 3.9 69.7827 3.78C69.5667 3.66 69.3387 3.564 69.0747 3.504C68.8107 3.444 68.5347 3.408 68.2467 3.408C67.3827 3.408 66.6027 3.66 65.8947 4.164C65.1747 4.668 64.7307 5.328 64.5627 6.168L63.8667 9.396ZM69.3147 9.396C69.1707 10.044 68.8347 10.56 68.3067 10.944C67.7667 11.328 67.1667 11.52 66.5187 11.52C65.9547 11.52 65.4867 11.376 65.1267 11.076C64.7667 10.788 64.5867 10.38 64.5867 9.864C64.5867 9.72 64.5987 9.564 64.6347 9.396L65.3187 6.168C65.4507 5.52 65.7867 5.016 66.3147 4.644C66.8427 4.272 67.4427 4.08 68.1027 4.08C68.6667 4.08 69.1347 4.224 69.4947 4.512C69.8547 4.8 70.0467 5.196 70.0467 5.7C70.0467 5.856 70.0227 6.012 69.9987 6.168L69.3147 9.396ZM79.7243 3.6L78.2483 10.56L75.1523 3.6H74.4443L72.6563 12H73.4243L74.9123 5.04L78.0083 12H78.7163L80.4923 3.6H79.7243Z" fill="#F09A00"/>
<path d="M8.892 3.6V3.1H8.48723L8.40296 3.4959L8.892 3.6ZM7.104 12L6.61496 11.8959L6.48637 12.5H7.104V12ZM12.36 12V12.5H12.7642L12.8489 12.1048L12.36 12ZM12.504 11.328L12.9929 11.4328L13.1225 10.828H12.504V11.328ZM8.016 11.328L7.52689 11.2242L7.39875 11.828H8.016V11.328ZM8.724 7.992V7.492H8.31898L8.23489 7.8882L8.724 7.992ZM12.696 7.992V8.492H13.1002L13.1849 8.09676L12.696 7.992ZM12.84 7.32L13.3289 7.42476L13.4585 6.82H12.84V7.32ZM8.868 7.32L8.37893 7.21602L8.25053 7.82H8.868V7.32ZM9.516 4.272V3.772H9.11112L9.02693 4.16802L9.516 4.272ZM13.884 4.272V4.772H14.2882L14.3729 4.37676L13.884 4.272ZM14.028 3.6L14.5169 3.70476L14.6465 3.1H14.028V3.6ZM8.40296 3.4959L6.61496 11.8959L7.59304 12.1041L9.38104 3.7041L8.40296 3.4959ZM7.104 12.5H12.36V11.5H7.104V12.5ZM12.8489 12.1048L12.9929 11.4328L12.0151 11.2232L11.8711 11.8952L12.8489 12.1048ZM12.504 10.828H8.016V11.828H12.504V10.828ZM8.50511 11.4318L9.21311 8.0958L8.23489 7.8882L7.52689 11.2242L8.50511 11.4318ZM8.724 8.492H12.696V7.492H8.724V8.492ZM13.1849 8.09676L13.3289 7.42476L12.3511 7.21524L12.2071 7.88724L13.1849 8.09676ZM12.84 6.82H8.868V7.82H12.84V6.82ZM9.35707 7.42398L10.0051 4.37597L9.02693 4.16802L8.37893 7.21602L9.35707 7.42398ZM9.516 4.772H13.884V3.772H9.516V4.772ZM14.3729 4.37676L14.5169 3.70476L13.5391 3.49523L13.3951 4.16723L14.3729 4.37676ZM14.028 3.1H8.892V4.1H14.028V3.1ZM22.6818 3.6V3.1H22.464L22.3156 3.25949L22.6818 3.6ZM19.3338 7.2L18.8872 7.4248L19.2104 8.06691L19.6999 7.54051L19.3338 7.2ZM17.5218 3.6L17.9684 3.3752L17.8299 3.1H17.5218V3.6ZM16.6098 3.6V3.1H15.7925L16.1646 3.82767L16.6098 3.6ZM18.7578 7.8L19.1226 8.1419L19.363 7.88536L19.2029 7.57233L18.7578 7.8ZM14.8218 12L14.4569 11.6581L13.668 12.5H14.8218V12ZM15.7338 12V12.5H15.9511L16.0993 12.3411L15.7338 12ZM19.0818 8.412L19.5281 8.1866L19.2051 7.54698L18.7162 8.07088L19.0818 8.412ZM20.8938 12L20.4475 12.2254L20.5861 12.5H20.8938V12ZM21.8178 12V12.5H22.6372L22.2624 11.7713L21.8178 12ZM19.6578 7.8L19.2935 7.45754L19.0517 7.71475L19.2131 8.02867L19.6578 7.8ZM23.6058 3.6L23.9701 3.94245L24.762 3.1H23.6058V3.6ZM22.3156 3.25949L18.9676 6.85949L19.6999 7.54051L23.0479 3.94051L22.3156 3.25949ZM19.7804 6.9752L17.9684 3.3752L17.0752 3.8248L18.8872 7.4248L19.7804 6.9752ZM17.5218 3.1H16.6098V4.1H17.5218V3.1ZM16.1646 3.82767L18.3126 8.02767L19.2029 7.57233L17.0549 3.37233L16.1646 3.82767ZM18.3929 7.4581L14.4569 11.6581L15.1866 12.3419L19.1226 8.1419L18.3929 7.4581ZM14.8218 12.5H15.7338V11.5H14.8218V12.5ZM16.0993 12.3411L19.4474 8.75312L18.7162 8.07088L15.3682 11.6589L16.0993 12.3411ZM18.6355 8.6374L20.4475 12.2254L21.3401 11.7746L19.5281 8.1866L18.6355 8.6374ZM20.8938 12.5H21.8178V11.5H20.8938V12.5ZM22.2624 11.7713L20.1024 7.57133L19.2131 8.02867L21.3731 12.2287L22.2624 11.7713ZM20.0221 8.14245L23.9701 3.94245L23.2415 3.25754L19.2935 7.45754L20.0221 8.14245ZM23.6058 3.1H22.6818V4.1H23.6058V3.1ZM26.6168 3.6V3.1H26.2121L26.1278 3.4959L26.6168 3.6ZM24.8288 12L24.3398 11.8959L24.2112 12.5H24.8288V12ZM25.5968 12V12.5H26.0021L26.086 12.1035L25.5968 12ZM26.2568 8.88V8.38H25.8515L25.7677 8.77652L26.2568 8.88ZM30.9248 8.172L31.2654 8.53809L30.9248 8.172ZM31.9568 6.24L31.4674 6.13802L31.4671 6.13917L31.9568 6.24ZM31.8488 4.476L32.2961 4.25239L32.2921 4.24441L32.2878 4.23657L31.8488 4.476ZM31.1768 3.84L30.9532 4.28721V4.28721L31.1768 3.84ZM26.4008 8.208L25.9119 8.10364L25.7829 8.708H26.4008V8.208ZM27.2408 4.272V3.772H26.8363L26.7519 4.16764L27.2408 4.272ZM30.9248 4.62L31.288 4.276L31.2784 4.26645L30.9248 4.62ZM31.1888 6.24L31.6776 6.34542L31.6781 6.34301L31.1888 6.24ZM30.4568 7.68L30.1093 7.32045L30.1033 7.32645L30.4568 7.68ZM26.1278 3.4959L24.3398 11.8959L25.3179 12.1041L27.1059 3.7041L26.1278 3.4959ZM24.8288 12.5H25.5968V11.5H24.8288V12.5ZM26.086 12.1035L26.746 8.98348L25.7677 8.77652L25.1077 11.8965L26.086 12.1035ZM26.2568 9.38H28.9088V8.38H26.2568V9.38ZM28.9088 9.38C29.8335 9.38 30.6372 9.12248 31.2654 8.53809L30.5843 7.80591C30.1805 8.18152 29.6402 8.38 28.9088 8.38V9.38ZM31.2654 8.53809C31.867 7.97845 32.2604 7.24506 32.4466 6.34083L31.4671 6.13917C31.3173 6.86694 31.0147 7.40555 30.5843 7.80591L31.2654 8.53809ZM32.4463 6.34198C32.5103 6.03504 32.5528 5.73451 32.5528 5.436H31.5528C31.5528 5.64149 31.5234 5.86896 31.4674 6.13802L32.4463 6.34198ZM32.5528 5.436C32.5528 5.00073 32.4687 4.59761 32.2961 4.25239L31.4016 4.69961C31.493 4.88239 31.5528 5.12727 31.5528 5.436H32.5528ZM32.2878 4.23657C32.094 3.88122 31.802 3.59355 31.4005 3.39279L30.9532 4.28721C31.1757 4.39845 31.3157 4.54278 31.4099 4.71543L32.2878 4.23657ZM31.4005 3.39279C31.0051 3.19511 30.5412 3.1 30.0248 3.1V4.1C30.4204 4.1 30.7246 4.17289 30.9532 4.28721L31.4005 3.39279ZM30.0248 3.1H26.6168V4.1H30.0248V3.1ZM26.8898 8.31236L27.7298 4.37636L26.7519 4.16764L25.9119 8.10364L26.8898 8.31236ZM27.2408 4.772H29.8808V3.772H27.2408V4.772ZM29.8808 4.772C30.2696 4.772 30.469 4.8713 30.5713 4.97355L31.2784 4.26645C30.9247 3.9127 30.4281 3.772 29.8808 3.772V4.772ZM30.5619 4.96387C30.6708 5.07881 30.7608 5.26911 30.7608 5.592H31.7608C31.7608 5.07489 31.6109 4.61719 31.2878 4.27613L30.5619 4.96387ZM30.7608 5.592C30.7608 5.75691 30.7414 5.93818 30.6996 6.13699L31.6781 6.34301C31.7323 6.08582 31.7608 5.83509 31.7608 5.592H30.7608ZM30.7001 6.13458C30.5829 6.67784 30.38 7.0589 30.1093 7.32051L30.8044 8.03949C31.2537 7.60509 31.5308 7.02616 31.6776 6.34542L30.7001 6.13458ZM30.1033 7.32645C29.8569 7.57285 29.5152 7.708 29.0408 7.708V8.708C29.7185 8.708 30.3368 8.50715 30.8104 8.03355L30.1033 7.32645ZM29.0408 7.708H26.4008V8.708H29.0408V7.708ZM37.0305 3.6V3.1H36.7407L36.5966 3.35146L37.0305 3.6ZM32.2185 12L31.7846 11.7515L31.3558 12.5H32.2185V12ZM33.0225 12V12.5H33.3131L33.4569 12.2475L33.0225 12ZM34.1505 10.02V9.52H33.8599L33.7161 9.7725L34.1505 10.02ZM37.8345 10.02L38.3284 9.94217L38.2619 9.52H37.8345V10.02ZM38.1465 12L37.6526 12.0778L37.7191 12.5H38.1465V12ZM38.9385 12V12.5H39.5175L39.4332 11.9272L38.9385 12ZM37.7025 3.6L38.1972 3.52721L38.1343 3.1H37.7025V3.6ZM37.7865 9.396V9.896H38.3618L38.2816 9.32635L37.7865 9.396ZM34.4625 9.396L34.0277 9.14913L33.6036 9.896H34.4625V9.396ZM37.1265 4.704L37.6216 4.63435L37.417 3.17967L36.6917 4.45713L37.1265 4.704ZM36.5966 3.35146L31.7846 11.7515L32.6524 12.2485L37.4644 3.84854L36.5966 3.35146ZM32.2185 12.5H33.0225V11.5H32.2185V12.5ZM33.4569 12.2475L34.5849 10.2675L33.7161 9.7725L32.5881 11.7525L33.4569 12.2475ZM34.1505 10.52H37.8345V9.52H34.1505V10.52ZM37.3406 10.0978L37.6526 12.0778L38.6404 11.9222L38.3284 9.94217L37.3406 10.0978ZM38.1465 12.5H38.9385V11.5H38.1465V12.5ZM39.4332 11.9272L38.1972 3.52721L37.2078 3.67279L38.4438 12.0728L39.4332 11.9272ZM37.7025 3.1H37.0305V4.1H37.7025V3.1ZM37.7865 8.896H34.4625V9.896H37.7865V8.896ZM34.8973 9.64287L37.5613 4.95087L36.6917 4.45713L34.0277 9.14913L34.8973 9.64287ZM36.6314 4.77365L37.2914 9.46565L38.2816 9.32635L37.6216 4.63435L36.6314 4.77365ZM48.8918 3.6V3.1H48.4867L48.4026 3.49627L48.8918 3.6ZM47.4157 10.56L46.9589 10.7632L47.5852 12.1711L47.9049 10.6637L47.4157 10.56ZM44.3198 3.6L44.7766 3.39678L44.6446 3.1H44.3198V3.6ZM43.6118 3.6V3.1H43.207L43.1227 3.4959L43.6118 3.6ZM41.8237 12L41.3347 11.8959L41.2061 12.5H41.8237V12ZM42.5918 12V12.5H42.9962L43.0807 12.1045L42.5918 12ZM44.0798 5.04L44.5366 4.83678L43.9121 3.4328L43.5908 4.93547L44.0798 5.04ZM47.1758 12L46.7189 12.2032L46.8509 12.5H47.1758V12ZM47.8838 12V12.5H48.2891L48.3729 12.1034L47.8838 12ZM49.6598 3.6L50.1489 3.70343L50.2765 3.1H49.6598V3.6ZM48.4026 3.49627L46.9266 10.4563L47.9049 10.6637L49.3809 3.70373L48.4026 3.49627ZM47.8726 10.3568L44.7766 3.39678L43.8629 3.80321L46.9589 10.7632L47.8726 10.3568ZM44.3198 3.1H43.6118V4.1H44.3198V3.1ZM43.1227 3.4959L41.3347 11.8959L42.3128 12.1041L44.1008 3.7041L43.1227 3.4959ZM41.8237 12.5H42.5918V11.5H41.8237V12.5ZM43.0807 12.1045L44.5687 5.14453L43.5908 4.93547L42.1028 11.8955L43.0807 12.1045ZM43.6229 5.24321L46.7189 12.2032L47.6326 11.7968L44.5366 4.83678L43.6229 5.24321ZM47.1758 12.5H47.8838V11.5H47.1758V12.5ZM48.3729 12.1034L50.1489 3.70343L49.1706 3.49657L47.3946 11.8966L48.3729 12.1034ZM49.6598 3.1H48.8918V4.1H49.6598V3.1ZM50.8125 11.724L50.3686 11.4938L50.1126 11.9876L50.6307 12.1898L50.8125 11.724ZM52.1325 12.108L52.2246 11.6166L52.1325 12.108ZM53.9205 12.192V11.692H53.8997L53.879 11.6937L53.9205 12.192ZM54.4605 12.132L54.4053 11.6351L54.3917 11.6366L54.3783 11.6388L54.4605 12.132ZM55.0365 12L55.2047 12.471L55.216 12.4667L55.0365 12ZM55.5525 11.736L55.2875 11.312L55.5525 11.736ZM56.0325 11.316L55.6508 10.993L55.6449 11L55.6393 11.0071L56.0325 11.316ZM56.4165 10.704L55.9692 10.4804L55.9651 10.489L56.4165 10.704ZM56.6925 9.852L57.1806 9.96046L57.1824 9.95233L57.1839 9.94414L56.6925 9.852ZM56.6805 8.82L57.1585 8.67292L57.1548 8.66189L56.6805 8.82ZM56.2365 8.112L56.5531 7.72502L56.5421 7.71601L56.5306 7.70763L56.2365 8.112ZM55.9125 7.86L56.2379 7.48037L56.2094 7.45592L56.1775 7.436L55.9125 7.86ZM55.0725 7.464L55.2481 6.99584V6.99583L55.0725 7.464ZM54.6165 7.284L54.8069 6.82166L54.791 6.8151L54.7746 6.80966L54.6165 7.284ZM54.1245 7.104L53.9388 7.56824V7.56824L54.1245 7.104ZM53.7045 6.9L53.9526 6.46588L53.9405 6.45899L53.9281 6.45279L53.7045 6.9ZM53.1165 6.324L53.5717 6.1171L53.5599 6.09117L53.5452 6.06675L53.1165 6.324ZM53.0565 5.592L52.5676 5.48723L52.5662 5.49394L53.0565 5.592ZM57.1845 4.548L56.9167 4.97025L57.2913 5.2078L57.5718 4.86419L57.1845 4.548ZM57.6645 3.96L58.0518 4.27619L58.3928 3.85847L57.9506 3.54994L57.6645 3.96ZM52.2885 5.592L52.7693 5.72936L52.7744 5.71143L52.7782 5.69317L52.2885 5.592ZM52.3605 6.648L52.8136 6.43656L52.808 6.42447L52.8017 6.41271L52.3605 6.648ZM52.6485 7.092L52.2769 7.42648V7.42648L52.6485 7.092ZM53.1285 7.44L53.3713 7.00292L53.1285 7.44ZM54.2685 7.932L54.0976 8.40207L54.1104 8.40634L54.2685 7.932ZM54.7845 8.124L54.9702 7.65976L54.9628 7.65681L54.9554 7.6541L54.7845 8.124ZM55.2285 8.34L54.9804 8.77412V8.77412L55.2285 8.34ZM55.6245 8.628L55.9781 8.27445L55.9781 8.27445L55.6245 8.628ZM55.8645 9L55.4173 9.22361L55.4173 9.22361L55.8645 9ZM55.9245 9.852L56.4117 9.96443L56.4133 9.95727L56.4148 9.95006L55.9245 9.852ZM55.6245 10.644L56.0405 10.9214L56.046 10.9131L56.0511 10.9047L55.6245 10.644ZM55.2045 11.136L54.9045 10.736L54.8943 10.7437L54.8844 10.7519L55.2045 11.136ZM54.6645 11.4L54.5307 10.9182L54.5184 10.9216L54.5064 10.9257L54.6645 11.4ZM54.1005 11.52L54.0622 11.0215L54.1005 11.52ZM52.4085 11.436L52.5133 10.9471L52.5034 10.945L52.4935 10.9433L52.4085 11.436ZM51.1485 11.076L51.3203 10.6064L50.9071 10.4553L50.7046 10.8458L51.1485 11.076ZM50.6307 12.1898C51.152 12.3932 51.626 12.5217 52.0404 12.5994L52.2246 11.6166C51.871 11.5503 51.457 11.4388 50.9943 11.2582L50.6307 12.1898ZM52.0404 12.5994C52.4672 12.6795 52.9215 12.704 53.3925 12.704V11.704C52.9515 11.704 52.5658 11.6805 52.2246 11.6166L52.0404 12.5994ZM53.3925 12.704C53.5891 12.704 53.7927 12.7044 53.962 12.6903L53.879 11.6937C53.7603 11.7036 53.6039 11.704 53.3925 11.704V12.704ZM53.9205 12.692C54.1099 12.692 54.3262 12.6613 54.5427 12.6252L54.3783 11.6388C54.1628 11.6747 54.0191 11.692 53.9205 11.692V12.692ZM54.5157 12.6289C54.7725 12.6004 55.0023 12.5431 55.2047 12.4709L54.8683 11.5291C54.7347 11.5769 54.5805 11.6156 54.4053 11.6351L54.5157 12.6289ZM55.216 12.4667C55.4064 12.3934 55.603 12.2941 55.8175 12.16L55.2875 11.312C55.118 11.4179 54.9786 11.4866 54.857 11.5333L55.216 12.4667ZM55.8175 12.16C56.0484 12.0157 56.2512 11.847 56.4257 11.6249L55.6393 11.0071C55.5498 11.121 55.4406 11.2163 55.2875 11.312L55.8175 12.16ZM56.4142 11.639C56.578 11.4454 56.7323 11.2039 56.8679 10.919L55.9651 10.489C55.8607 10.7081 55.751 10.8746 55.6508 10.993L56.4142 11.639ZM56.8637 10.9276C57.0111 10.6329 57.1056 10.2979 57.1806 9.96046L56.2044 9.74354C56.1354 10.0541 56.0619 10.2951 55.9693 10.4804L56.8637 10.9276ZM57.1839 9.94414C57.2229 9.73614 57.2525 9.51073 57.2525 9.3H56.2525C56.2525 9.42527 56.2341 9.58386 56.2011 9.75986L57.1839 9.94414ZM57.2525 9.3C57.2525 9.08178 57.2209 8.87623 57.1584 8.67296L56.2026 8.96704C56.2361 9.07577 56.2525 9.18222 56.2525 9.3H57.2525ZM57.1548 8.66189C57.1067 8.51756 57.0464 8.34587 56.9616 8.19318L56.0874 8.67882C56.1226 8.74213 56.1583 8.83443 56.2062 8.97811L57.1548 8.66189ZM56.9616 8.19318C56.8616 8.01327 56.7167 7.85885 56.5531 7.72502L55.9199 8.49898C56.0203 8.58115 56.0674 8.64273 56.0874 8.67882L56.9616 8.19318ZM56.5306 7.70763C56.4048 7.61616 56.3083 7.5407 56.2379 7.48037L55.5871 8.23963C55.6847 8.3233 55.8042 8.41584 55.9424 8.51637L56.5306 7.70763ZM56.1775 7.436C56.0583 7.3615 55.9043 7.27842 55.6929 7.18592L55.2921 8.10208C55.4647 8.17758 55.5747 8.2385 55.6475 8.284L56.1775 7.436ZM55.6929 7.18592C55.5146 7.1079 55.3607 7.03809 55.2481 6.99584L54.8969 7.93216C54.9763 7.96191 55.0864 8.0121 55.2921 8.10208L55.6929 7.18592ZM55.2481 6.99583C55.1564 6.96147 55.0054 6.9034 54.8069 6.82166L54.4261 7.74634C54.6356 7.8326 54.7966 7.89453 54.8969 7.93216L55.2481 6.99583ZM54.7746 6.80966C54.57 6.74146 54.4235 6.68506 54.3102 6.63976L53.9388 7.56824C54.0655 7.61894 54.231 7.68254 54.4584 7.75834L54.7746 6.80966ZM54.3102 6.63976C54.2093 6.5994 54.0984 6.54921 53.9526 6.46588L53.4564 7.33412C53.6466 7.44279 53.7997 7.5126 53.9388 7.56824L54.3102 6.63976ZM53.9281 6.45279C53.7917 6.38457 53.7209 6.32929 53.6861 6.29445L52.9789 7.00155C53.1121 7.13471 53.2813 7.24743 53.4809 7.34721L53.9281 6.45279ZM53.6861 6.29445C53.6526 6.26104 53.6122 6.20618 53.5717 6.1171L52.6613 6.5309C52.7408 6.70582 52.8444 6.86696 52.9789 7.00155L53.6861 6.29445ZM53.5452 6.06675C53.5391 6.05644 53.5205 6.01583 53.5205 5.904H52.5205C52.5205 6.10417 52.5499 6.35156 52.6878 6.58125L53.5452 6.06675ZM53.5205 5.904C53.5205 5.85211 53.5266 5.79099 53.5468 5.69006L52.5662 5.49394C52.5384 5.63301 52.5205 5.76389 52.5205 5.904H53.5205ZM53.5454 5.69676C53.6301 5.30167 53.8078 5.04436 54.0636 4.87453C54.3327 4.69582 54.7402 4.58 55.3365 4.58V3.58C54.6248 3.58 54.0003 3.71618 53.5104 4.04147C53.0072 4.37564 52.6989 4.87433 52.5676 5.48723L53.5454 5.69676ZM55.3365 4.58C56.0108 4.58 56.5237 4.72098 56.9167 4.97025L57.4523 4.12574C56.8614 3.75101 56.1502 3.58 55.3365 3.58V4.58ZM57.5718 4.86419L58.0518 4.27619L57.2772 3.64381L56.7972 4.23181L57.5718 4.86419ZM57.9506 3.54994C57.322 3.11141 56.4772 2.908 55.4805 2.908V3.908C56.3558 3.908 56.975 4.08859 57.3784 4.37006L57.9506 3.54994ZM55.4805 2.908C54.5075 2.908 53.674 3.10251 53.0306 3.5429C52.3754 3.99136 51.9709 4.65832 51.7988 5.49083L52.7782 5.69317C52.9062 5.07368 53.1856 4.64863 53.5954 4.3681C54.0171 4.07949 54.6295 3.908 55.4805 3.908V2.908ZM51.8077 5.45464C51.7436 5.67918 51.7285 5.87175 51.7285 6.048H52.7285C52.7285 5.93625 52.7374 5.84082 52.7693 5.72936L51.8077 5.45464ZM51.7285 6.048C51.7285 6.3172 51.7731 6.60909 51.9193 6.88329L52.8017 6.41271C52.7559 6.32691 52.7285 6.2108 52.7285 6.048H51.7285ZM51.9074 6.85944C52.0105 7.08039 52.133 7.26668 52.2769 7.42648L53.0201 6.75752C52.948 6.67732 52.8785 6.5756 52.8136 6.43656L51.9074 6.85944ZM52.2769 7.42648C52.4412 7.60909 52.6557 7.74931 52.8857 7.87708L53.3713 7.00292C53.1693 6.89069 53.0718 6.81491 53.0201 6.75752L52.2769 7.42648ZM52.8857 7.87708C53.1185 8.0064 53.3154 8.09852 53.4762 8.16554L53.8608 7.24246C53.7336 7.18948 53.5705 7.1136 53.3713 7.00292L52.8857 7.87708ZM53.4762 8.16554C53.632 8.23045 53.8338 8.30595 54.0976 8.4019L54.4394 7.4621C54.1752 7.36605 53.993 7.29755 53.8608 7.24246L53.4762 8.16554ZM54.1104 8.40634C54.3268 8.47848 54.4398 8.53067 54.6136 8.5939L54.9554 7.6541C54.8653 7.62133 54.6422 7.52952 54.4266 7.45766L54.1104 8.40634ZM54.5988 8.58824C54.6988 8.62824 54.8338 8.69034 54.9804 8.77412L55.4766 7.90588C55.2872 7.79766 55.1102 7.71576 54.9702 7.65976L54.5988 8.58824ZM54.9804 8.77412C55.1248 8.85659 55.2166 8.92716 55.271 8.98155L55.9781 8.27445C55.8404 8.13684 55.6682 8.01541 55.4766 7.90588L54.9804 8.77412ZM55.2709 8.98155C55.3027 9.0133 55.3435 9.07612 55.4173 9.22361L56.3117 8.77639C56.2415 8.63588 56.1383 8.4347 55.9781 8.27445L55.2709 8.98155ZM55.4173 9.22361C55.4507 9.29034 55.4725 9.38036 55.4725 9.48H56.4725C56.4725 9.24364 56.4223 8.99766 56.3117 8.77639L55.4173 9.22361ZM55.4725 9.48C55.4725 9.54445 55.4587 9.63167 55.4342 9.75394L56.4148 9.95006C56.4383 9.83233 56.4725 9.65555 56.4725 9.48H55.4725ZM55.4373 9.73957C55.3726 10.0199 55.2926 10.2283 55.1979 10.3833L56.0511 10.9047C56.2204 10.6277 56.3324 10.3081 56.4117 9.96443L55.4373 9.73957ZM55.2085 10.3666C55.0689 10.576 54.976 10.6824 54.9045 10.736L55.5045 11.536C55.721 11.3736 55.8921 11.144 56.0405 10.9214L55.2085 10.3666ZM54.8844 10.7519C54.8107 10.8133 54.7014 10.8708 54.5307 10.9182L54.7983 11.8818C55.0596 11.8092 55.3103 11.6987 55.5246 11.5201L54.8844 10.7519ZM54.5064 10.9257C54.3264 10.9856 54.1746 11.0128 54.0622 11.0215L54.1389 12.0185C54.3384 12.0032 54.5706 11.9584 54.8226 11.8743L54.5064 10.9257ZM54.0622 11.0215C53.9295 11.0317 53.7591 11.032 53.5365 11.032V12.032C53.7459 12.032 53.9595 12.0323 54.1389 12.0185L54.0622 11.0215ZM53.5365 11.032C53.1439 11.032 52.7997 11.0085 52.5133 10.9471L52.3037 11.9249C52.6893 12.0075 53.1131 12.032 53.5365 12.032V11.032ZM52.4935 10.9433C52.1855 10.8902 51.7962 10.7806 51.3203 10.6064L50.9767 11.5456C51.4848 11.7314 51.9355 11.8618 52.3235 11.9287L52.4935 10.9433ZM50.7046 10.8458L50.3686 11.4938L51.2564 11.9542L51.5924 11.3062L50.7046 10.8458ZM61.0704 3.6V3.1H60.6657L60.5814 3.4959L61.0704 3.6ZM59.2824 12L58.7934 11.8959L58.6648 12.5H59.2824V12ZM60.0504 12V12.5H60.4552L60.5395 12.1041L60.0504 12ZM61.8384 3.6L62.3275 3.7041L62.4561 3.1H61.8384V3.6ZM60.5814 3.4959L58.7934 11.8959L59.7715 12.1041L61.5595 3.7041L60.5814 3.4959ZM59.2824 12.5H60.0504V11.5H59.2824V12.5ZM60.5395 12.1041L62.3275 3.7041L61.3494 3.4959L59.5614 11.8959L60.5395 12.1041ZM61.8384 3.1H61.0704V4.1H61.8384V3.1ZM68.8707 0.623999V0.123999H68.6636L68.5172 0.270446L68.8707 0.623999ZM67.7427 1.752L67.3892 1.39845L66.5356 2.252H67.7427V1.752ZM68.3427 1.752V2.252H68.5235L68.6625 2.13639L68.3427 1.752ZM69.6987 0.623999L70.0185 1.00839L71.0816 0.123999H69.6987V0.623999ZM63.8667 9.396L64.3548 9.50447L64.3555 9.50138L63.8667 9.396ZM64.1427 11.172L63.729 11.4528V11.4528L64.1427 11.172ZM67.9827 11.868L67.7896 11.4068L67.9827 11.868ZM69.3267 10.884L68.953 10.5518L69.3267 10.884ZM70.0827 9.396L70.5718 9.50005L70.5719 9.49965L70.0827 9.396ZM70.7667 6.168L70.2799 6.05345L70.2776 6.06435L70.7667 6.168ZM70.7067 4.812L71.1786 4.64682L71.1735 4.63223L71.1675 4.61797L70.7067 4.812ZM69.7827 3.78L70.0255 3.34292V3.34292L69.7827 3.78ZM69.0747 3.504L68.9639 3.99157V3.99157L69.0747 3.504ZM65.8947 4.164L66.1815 4.57363L66.1847 4.57133L65.8947 4.164ZM64.5627 6.168L65.0515 6.2734L65.053 6.26606L64.5627 6.168ZM69.3147 9.396L69.8028 9.50447L69.8039 9.49965L69.3147 9.396ZM68.3067 10.944L68.5965 11.3515L68.6008 11.3484L68.3067 10.944ZM65.1267 11.076L65.4469 10.6918L65.4391 10.6856L65.1267 11.076ZM64.6347 9.396L65.1236 9.50076L65.1239 9.49965L64.6347 9.396ZM65.3187 6.168L65.8079 6.27165L65.8087 6.2678L65.3187 6.168ZM69.4947 4.512L69.8071 4.12157V4.12157L69.4947 4.512ZM69.9987 6.168L70.4879 6.27165L70.4908 6.25791L70.4929 6.24403L69.9987 6.168ZM68.5172 0.270446L67.3892 1.39845L68.0963 2.10555L69.2243 0.977552L68.5172 0.270446ZM67.7427 2.252H68.3427V1.252H67.7427V2.252ZM68.6625 2.13639L70.0185 1.00839L69.379 0.23961L68.023 1.36761L68.6625 2.13639ZM69.6987 0.123999H68.8707V1.124H69.6987V0.123999ZM63.3786 9.28753C63.3202 9.55033 63.3067 9.78111 63.3067 9.996H64.3067C64.3067 9.82689 64.3172 9.67367 64.3548 9.50447L63.3786 9.28753ZM63.3067 9.996C63.3067 10.5371 63.4369 11.0223 63.729 11.4528L64.5565 10.8912C64.3925 10.6497 64.3067 10.3669 64.3067 9.996H63.3067ZM63.729 11.4528C64.0091 11.8655 64.3945 12.1917 64.8663 12.3981L65.2671 11.4819C64.9709 11.3523 64.7324 11.1505 64.5565 10.8912L63.729 11.4528ZM64.8663 12.3981C65.3228 12.5978 65.8246 12.692 66.3747 12.692V11.692C65.9408 11.692 65.5786 11.6182 65.2671 11.4819L64.8663 12.3981ZM66.3747 12.692C66.9932 12.692 67.5988 12.5708 68.1758 12.3292L67.7896 11.4068C67.3346 11.5972 66.8603 11.692 66.3747 11.692V12.692ZM68.1758 12.3292C68.7704 12.0803 69.274 11.6959 69.7004 11.2162L68.953 10.5518C68.6114 10.9361 68.227 11.2237 67.7896 11.4068L68.1758 12.3292ZM69.7004 11.2162C70.1407 10.7208 70.4333 10.1507 70.5718 9.50005L69.5937 9.29195C69.4921 9.76935 69.2807 10.1832 68.953 10.5518L69.7004 11.2162ZM70.5719 9.49965L71.2559 6.27165L70.2776 6.06435L69.5936 9.29235L70.5719 9.49965ZM71.2534 6.28252C71.3097 6.04317 71.3387 5.80074 71.3387 5.568H70.3387C70.3387 5.71926 70.3197 5.88483 70.28 6.05348L71.2534 6.28252ZM71.3387 5.568C71.3387 5.24223 71.2793 4.93444 71.1786 4.64682L70.2348 4.97718C70.3021 5.16956 70.3387 5.36577 70.3387 5.568H71.3387ZM71.1675 4.61797C71.0557 4.3523 70.9073 4.09384 70.7011 3.87177L69.9683 4.55223C70.0741 4.66616 70.1658 4.8157 70.2459 5.00603L71.1675 4.61797ZM70.7011 3.87177C70.5102 3.66615 70.2887 3.48913 70.0255 3.34292L69.5399 4.21708C69.7087 4.31087 69.8473 4.42185 69.9683 4.55223L70.7011 3.87177ZM70.0255 3.34292C69.7762 3.20437 69.5039 3.08878 69.1855 3.01643L68.9639 3.99157C69.1736 4.03922 69.3573 4.11563 69.5399 4.21708L70.0255 3.34292ZM69.1855 3.01643C68.8901 2.94928 68.5767 2.908 68.2467 2.908V3.908C68.4927 3.908 68.7314 3.93871 68.9639 3.99157L69.1855 3.01643ZM68.2467 2.908C67.2774 2.908 66.3963 3.19322 65.6048 3.75667L66.1847 4.57133C66.8092 4.12677 67.4881 3.908 68.2467 3.908V2.908ZM65.608 3.75438C64.7881 4.32831 64.267 5.09731 64.0724 6.06994L65.053 6.26606C65.1945 5.55869 65.5613 5.00769 66.1814 4.57362L65.608 3.75438ZM64.074 6.06261L63.378 9.29062L64.3555 9.50138L65.0515 6.27338L64.074 6.06261ZM68.8266 9.28754C68.7086 9.81875 68.4403 10.2286 68.0126 10.5396L68.6008 11.3484C69.2292 10.8914 69.6329 10.2693 69.8028 9.50446L68.8266 9.28754ZM68.017 10.5365C67.5604 10.8612 67.0614 11.02 66.5187 11.02V12.02C67.272 12.02 67.973 11.7948 68.5965 11.3515L68.017 10.5365ZM66.5187 11.02C66.0408 11.02 65.6958 10.8994 65.4468 10.6919L64.8066 11.4601C65.2776 11.8526 65.8686 12.02 66.5187 12.02V11.02ZM65.4391 10.6856C65.2144 10.5058 65.0867 10.2508 65.0867 9.864H64.0867C64.0867 10.5092 64.3191 11.0702 64.8144 11.4664L65.4391 10.6856ZM65.0867 9.864C65.0867 9.74842 65.0963 9.62827 65.1236 9.50076L64.1458 9.29123C64.1011 9.49973 64.0867 9.69158 64.0867 9.864H65.0867ZM65.1239 9.49965L65.8079 6.27165L64.8296 6.06435L64.1456 9.29235L65.1239 9.49965ZM65.8087 6.2678C65.9149 5.74628 66.1777 5.35218 66.6027 5.05274L66.0267 4.23526C65.3958 4.67982 64.9865 5.29372 64.8288 6.0682L65.8087 6.2678ZM66.6027 5.05274C67.0462 4.74024 67.5456 4.58 68.1027 4.58V3.58C67.3398 3.58 66.6392 3.80376 66.0267 4.23526L66.6027 5.05274ZM68.1027 4.58C68.5807 4.58 68.9304 4.70085 69.1824 4.90243L69.8071 4.12157C69.3391 3.74715 68.7527 3.58 68.1027 3.58V4.58ZM69.1824 4.90243C69.4187 5.09147 69.5467 5.34124 69.5467 5.7H70.5467C70.5467 5.05076 70.2908 4.50853 69.8071 4.12157L69.1824 4.90243ZM69.5467 5.7C69.5467 5.81127 69.5296 5.92924 69.5045 6.09197L70.4929 6.24403C70.5159 6.09476 70.5467 5.90073 70.5467 5.7H69.5467ZM69.5096 6.06435L68.8256 9.29235L69.8039 9.49965L70.4879 6.27165L69.5096 6.06435ZM79.7243 3.6V3.1H79.3192L79.2351 3.49627L79.7243 3.6ZM78.2483 10.56L77.7914 10.7632L78.4177 12.1711L78.7374 10.6637L78.2483 10.56ZM75.1523 3.6L75.6091 3.39678L75.4771 3.1H75.1523V3.6ZM74.4443 3.6V3.1H74.0395L73.9552 3.4959L74.4443 3.6ZM72.6562 12L72.1672 11.8959L72.0386 12.5H72.6562V12ZM73.4242 12V12.5H73.8287L73.9132 12.1045L73.4242 12ZM74.9123 5.04L75.3691 4.83678L74.7446 3.4328L74.4233 4.93547L74.9123 5.04ZM78.0083 12L77.5514 12.2032L77.6834 12.5H78.0083V12ZM78.7162 12V12.5H79.1216L79.2054 12.1034L78.7162 12ZM80.4922 3.6L80.9814 3.70343L81.109 3.1H80.4922V3.6ZM79.2351 3.49627L77.7591 10.4563L78.7374 10.6637L80.2134 3.70373L79.2351 3.49627ZM78.7051 10.3568L75.6091 3.39678L74.6954 3.80321L77.7914 10.7632L78.7051 10.3568ZM75.1523 3.1H74.4443V4.1H75.1523V3.1ZM73.9552 3.4959L72.1672 11.8959L73.1453 12.1041L74.9333 3.7041L73.9552 3.4959ZM72.6562 12.5H73.4242V11.5H72.6562V12.5ZM73.9132 12.1045L75.4012 5.14453L74.4233 4.93547L72.9353 11.8955L73.9132 12.1045ZM74.4554 5.24321L77.5514 12.2032L78.4651 11.7968L75.3691 4.83678L74.4554 5.24321ZM78.0083 12.5H78.7162V11.5H78.0083V12.5ZM79.2054 12.1034L80.9814 3.70343L80.0031 3.49657L78.2271 11.8966L79.2054 12.1034ZM80.4922 3.1H79.7243V4.1H80.4922V3.1Z" fill="#F09A00"/>
<path d="M3.486 17.818H2.604L2.632 18.392L0.7 27.52H1.554L2.17 24.58C2.926 25.014 3.682 25.224 4.438 25.224C4.914 25.224 5.362 25.154 5.754 24.986C6.146 24.818 6.468 24.594 6.72 24.3C6.972 24.02 7.168 23.698 7.336 23.362C7.504 23.026 7.63 22.648 7.714 22.242L8.05 20.646C8.12 20.338 8.162 20.044 8.162 19.764C8.162 19.162 7.98 18.686 7.644 18.322C7.308 17.958 6.776 17.776 6.062 17.776C5.292 17.776 4.438 17.916 3.486 18.196V17.818ZM6.86 22.242C6.538 23.74 5.782 24.482 4.592 24.482C4.214 24.482 3.822 24.426 3.402 24.3C2.982 24.188 2.632 24.02 2.338 23.81L3.388 18.882C3.612 18.826 3.864 18.756 4.172 18.7C4.48 18.644 4.774 18.602 5.068 18.574C5.348 18.546 5.6 18.518 5.81 18.518C6.286 18.518 6.65 18.658 6.902 18.91C7.14 19.176 7.266 19.54 7.266 19.988C7.266 20.198 7.238 20.422 7.196 20.646L6.86 22.242ZM13.0114 17.776H12.1574L12.1994 18.686L10.8694 25H11.7234L12.9554 19.232C13.9214 18.756 14.7614 18.518 15.4894 18.518C15.7694 18.518 16.0774 18.546 16.3854 18.588L16.5674 17.832C16.3434 17.804 16.0914 17.776 15.8254 17.776H15.6434C14.8594 17.804 13.9914 18.056 13.0394 18.532L13.0114 17.776ZM18.1659 22.83C18.1239 22.984 18.1099 23.138 18.1099 23.278C18.1099 23.866 18.3479 24.342 18.8379 24.692C19.3139 25.056 19.9299 25.224 20.6579 25.224C21.4699 25.224 22.2259 25.014 22.9119 24.566C23.5979 24.118 24.0179 23.544 24.1719 22.83L24.7459 20.142C24.7739 20.002 24.8019 19.848 24.8019 19.694C24.8019 19.302 24.6759 18.966 24.4519 18.672C24.2139 18.378 23.9059 18.154 23.5279 18C23.1359 17.86 22.7159 17.776 22.2399 17.776C21.4139 17.776 20.6579 18 19.9859 18.434C19.2999 18.868 18.8799 19.442 18.7259 20.142L18.1659 22.83ZM23.3179 22.83C23.2619 23.082 23.1499 23.32 22.9959 23.53C22.8279 23.74 22.6319 23.908 22.4079 24.048C22.1839 24.188 21.9319 24.3 21.6519 24.37C21.3719 24.454 21.0919 24.482 20.8119 24.482C20.2799 24.482 19.8319 24.37 19.4959 24.132C19.1599 23.894 18.9919 23.572 18.9919 23.152C18.9919 23.054 18.9919 22.942 19.0199 22.83L19.5939 20.142C19.6919 19.638 19.9859 19.246 20.4619 18.952C20.9379 18.672 21.4699 18.518 22.0719 18.518C22.4219 18.518 22.7299 18.574 23.0099 18.672C23.2899 18.77 23.4999 18.924 23.6679 19.12C23.8359 19.316 23.9199 19.554 23.9199 19.834C23.9199 19.946 23.9059 20.044 23.8919 20.142L23.3179 22.83ZM34.0688 15.2L33.4388 18.112C32.6268 17.902 31.8708 17.79 31.1848 17.776C30.3168 17.776 29.6028 18.042 29.0148 18.574C28.4268 19.106 28.0348 19.792 27.8668 20.618L27.5308 22.214C27.4328 22.634 27.3908 23.012 27.3908 23.334C27.3908 24.594 28.0628 25.224 29.4208 25.224C30.2468 25.224 31.1568 24.986 32.1368 24.51V25H33.0188L32.9908 24.314L34.9228 15.2H34.0688ZM32.2348 23.782C31.8428 24.006 31.4228 24.174 30.9608 24.3C30.4988 24.426 30.0648 24.482 29.6728 24.482C28.7488 24.482 28.2868 24.02 28.2868 23.082C28.2868 22.83 28.3148 22.55 28.3848 22.214L28.7348 20.618C28.8608 20.002 29.1268 19.498 29.5328 19.106C29.9248 18.714 30.4288 18.518 31.0308 18.518C31.3388 18.518 31.7168 18.56 32.1648 18.616C32.6128 18.686 32.9768 18.77 33.2848 18.854L32.2348 23.782ZM43.4945 18L42.2765 23.768C41.3245 24.272 40.3865 24.51 39.4765 24.482C39.0145 24.482 38.6645 24.356 38.4405 24.118C38.2025 23.88 38.0905 23.544 38.0905 23.096C38.0905 22.914 38.1045 22.704 38.1605 22.48L39.1125 18H38.2585L37.3065 22.48C37.2505 22.76 37.2225 23.026 37.2225 23.278C37.2225 23.894 37.3905 24.37 37.7545 24.72C38.1045 25.07 38.6225 25.238 39.3225 25.224C39.7565 25.224 40.2185 25.154 40.7225 25.028C41.2265 24.916 41.7025 24.734 42.1785 24.482V25H43.0465L43.0185 24.3L44.3625 18H43.4945ZM51.8903 24.076C51.2463 24.356 50.5323 24.482 49.7763 24.482C49.0903 24.482 48.6143 24.356 48.3343 24.076C48.0543 23.796 47.9283 23.404 47.9283 22.9C47.9283 22.564 47.9843 22.088 48.1103 21.486C48.1943 21.122 48.2643 20.814 48.3483 20.562C48.4183 20.31 48.5303 20.058 48.6843 19.778C48.8243 19.498 48.9923 19.274 49.1883 19.106C49.3843 18.938 49.6363 18.798 49.9443 18.686C50.2523 18.574 50.6163 18.518 51.0363 18.518C51.7923 18.518 52.4503 18.658 52.9823 18.938L53.4023 18.224C52.8143 17.93 52.0863 17.776 51.1903 17.776C50.6303 17.776 50.1263 17.846 49.7063 17.986C49.2863 18.126 48.9363 18.308 48.6703 18.518C48.4043 18.728 48.1803 19.008 47.9843 19.358C47.7883 19.708 47.6343 20.044 47.5363 20.352C47.4383 20.66 47.3403 21.038 47.2563 21.486C47.1023 22.186 47.0323 22.732 47.0323 23.138C47.0323 23.81 47.2143 24.314 47.6063 24.678C47.9843 25.042 48.6563 25.224 49.6083 25.224C50.5043 25.224 51.3023 25.084 52.0163 24.776L51.8903 24.076ZM57.7577 16.418L57.4217 18H56.1337L55.9797 18.742H57.2677L56.1897 23.796C56.1617 23.922 56.1477 24.034 56.1477 24.146C56.1477 24.496 56.2597 24.762 56.5117 24.944C56.7637 25.126 57.0857 25.21 57.5057 25.21C58.1077 25.21 58.7517 25.07 59.4237 24.79L59.3117 24.202C58.8077 24.412 58.3457 24.51 57.9257 24.51H57.7997C57.2957 24.51 57.0577 24.3 57.0577 23.88C57.0577 23.81 57.0577 23.726 57.0857 23.628L58.1217 18.742H60.3897L60.5437 18H58.2897L58.6257 16.418H57.7577ZM64.6241 15.284L64.3441 16.614H65.1981L65.4781 15.284H64.6241ZM64.0501 18L62.5521 25H63.4201L64.9041 18H64.0501ZM73.5943 18L69.9543 24.006L68.8903 18H67.9803L69.3103 25H70.1923L74.5183 18H73.5943ZM76.4017 22.214C76.3037 22.634 76.2617 23.012 76.2617 23.334C76.2617 24.594 76.9337 25.224 78.2917 25.224C79.1177 25.224 80.0277 24.986 81.0077 24.51V25H81.8897L81.8617 24.314L83.1357 18.322C81.7637 17.972 80.7277 17.79 80.0557 17.776C79.1877 17.776 78.4737 18.042 77.8857 18.574C77.2977 19.106 76.9057 19.792 76.7377 20.618L76.4017 22.214ZM81.1057 23.782C80.8537 23.922 80.5737 24.048 80.2797 24.16C79.9717 24.272 79.6777 24.342 79.3837 24.398C79.0757 24.454 78.7957 24.482 78.5437 24.482C77.6197 24.482 77.1577 24.02 77.1577 23.082C77.1577 22.83 77.1857 22.55 77.2557 22.214L77.6057 20.618C77.6897 20.212 77.8297 19.848 78.0257 19.54C78.2217 19.232 78.4877 18.98 78.8097 18.798C79.1317 18.616 79.4957 18.518 79.9017 18.518C80.2097 18.518 80.5877 18.56 81.0357 18.616C81.4837 18.686 81.8477 18.77 82.1557 18.854L81.1057 23.782Z" fill="#8C3452"/>
<path d="M3.486 17.818H4.086V17.218H3.486V17.818ZM2.604 17.818V17.218H1.97402L2.00471 17.8472L2.604 17.818ZM2.632 18.392L3.219 18.5162L3.23507 18.4403L3.23129 18.3628L2.632 18.392ZM0.7 27.52L0.113004 27.3958L-0.0402862 28.12H0.7V27.52ZM1.554 27.52V28.12H2.04131L2.14125 27.643L1.554 27.52ZM2.17 24.58L2.46872 24.0596L1.75218 23.6483L1.58275 24.457L2.17 24.58ZM5.754 24.986L5.51765 24.4345L5.754 24.986ZM6.72 24.3L6.27402 23.8986L6.26917 23.904L6.26445 23.9095L6.72 24.3ZM7.336 23.362L7.87266 23.6303L7.87266 23.6303L7.336 23.362ZM7.714 22.242L7.12687 22.1184L7.12644 22.1204L7.714 22.242ZM8.05 20.646L7.46485 20.513L7.46287 20.5224L8.05 20.646ZM7.644 18.322L7.20312 18.729L7.20312 18.729L7.644 18.322ZM3.486 18.196H2.886V18.9979L3.6553 18.7716L3.486 18.196ZM6.86 22.242L7.44661 22.3681L7.44713 22.3656L6.86 22.242ZM3.402 24.3L3.57441 23.7253L3.56554 23.7226L3.5566 23.7203L3.402 24.3ZM2.338 23.81L1.75117 23.685L1.66921 24.0696L1.98926 24.2982L2.338 23.81ZM3.388 18.882L3.24248 18.2999L2.87921 18.3907L2.80117 18.757L3.388 18.882ZM4.172 18.7L4.06467 18.1097L4.172 18.7ZM5.068 18.574L5.12489 19.1713L5.1277 19.171L5.068 18.574ZM6.902 18.91L7.34915 18.5099L7.33804 18.4975L7.32626 18.4857L6.902 18.91ZM7.196 20.646L7.78327 20.7696L7.78572 20.7566L7.196 20.646ZM3.486 17.218H2.604V18.418H3.486V17.218ZM2.00471 17.8472L2.03271 18.4212L3.23129 18.3628L3.20329 17.7888L2.00471 17.8472ZM2.045 18.2678L0.113004 27.3958L1.287 27.6442L3.219 18.5162L2.045 18.2678ZM0.7 28.12H1.554V26.92H0.7V28.12ZM2.14125 27.643L2.75725 24.703L1.58275 24.457L0.966752 27.397L2.14125 27.643ZM1.87128 25.1004C2.70736 25.5803 3.56537 25.824 4.438 25.824V24.624C3.79863 24.624 3.14464 24.4477 2.46872 24.0596L1.87128 25.1004ZM4.438 25.824C4.96936 25.824 5.50306 25.7463 5.99035 25.5375L5.51765 24.4345C5.22094 24.5617 4.85864 24.624 4.438 24.624V25.824ZM5.99035 25.5375C6.45231 25.3395 6.85431 25.0653 7.17555 24.6905L6.26445 23.9095C6.08169 24.1227 5.83969 24.2965 5.51765 24.4345L5.99035 25.5375ZM7.16598 24.7014C7.46664 24.3673 7.69073 23.9942 7.87266 23.6303L6.79934 23.0937C6.64527 23.4018 6.47736 23.6727 6.27402 23.8986L7.16598 24.7014ZM7.87266 23.6303C8.06714 23.2414 8.20859 22.8129 8.30156 22.3636L7.12644 22.1204C7.05141 22.4831 6.94086 22.8106 6.79934 23.0937L7.87266 23.6303ZM8.30113 22.3656L8.63713 20.7696L7.46287 20.5224L7.12687 22.1184L8.30113 22.3656ZM8.63508 20.779C8.71143 20.443 8.762 20.1024 8.762 19.764H7.562C7.562 19.9856 7.52857 20.233 7.46492 20.513L8.63508 20.779ZM8.762 19.764C8.762 19.0313 8.53607 18.4038 8.08488 17.915L7.20312 18.729C7.42393 18.9682 7.562 19.2927 7.562 19.764H8.762ZM8.08488 17.915C7.59179 17.3808 6.86622 17.176 6.062 17.176V18.376C6.68578 18.376 7.02421 18.5352 7.20312 18.729L8.08488 17.915ZM6.062 17.176C5.22048 17.176 4.30814 17.3288 3.3167 17.6204L3.6553 18.7716C4.56786 18.5032 5.36352 18.376 6.062 18.376V17.176ZM4.086 18.196V17.818H2.886V18.196H4.086ZM6.2734 22.1159C6.12669 22.7984 5.89583 23.2346 5.63021 23.4965C5.37891 23.7443 5.05081 23.882 4.592 23.882V25.082C5.32319 25.082 5.96809 24.8487 6.47279 24.351C6.96317 23.8674 7.27131 23.1836 7.4466 22.3681L6.2734 22.1159ZM4.592 23.882C4.27527 23.882 3.94129 23.8354 3.57441 23.7253L3.22959 24.8747C3.70271 25.0166 4.15274 25.082 4.592 25.082V23.882ZM3.5566 23.7203C3.2024 23.6258 2.91887 23.4876 2.68674 23.3218L1.98926 24.2982C2.34513 24.5524 2.7616 24.7502 3.2474 24.8797L3.5566 23.7203ZM2.92483 23.935L3.97483 19.007L2.80117 18.757L1.75117 23.685L2.92483 23.935ZM3.53352 19.4641C3.7734 19.4041 3.99648 19.3417 4.27933 19.2903L4.06467 18.1097C3.73152 18.1703 3.4506 18.2479 3.24248 18.2999L3.53352 19.4641ZM4.27933 19.2903C4.57294 19.2369 4.84999 19.1975 5.12489 19.1713L5.01111 17.9767C4.69802 18.0065 4.38706 18.0511 4.06467 18.1097L4.27933 19.2903ZM5.1277 19.171C5.42483 19.1413 5.638 19.118 5.81 19.118V17.918C5.562 17.918 5.27117 17.9507 5.0083 17.977L5.1277 19.171ZM5.81 19.118C6.16544 19.118 6.36287 19.2194 6.47774 19.3343L7.32626 18.4857C6.93713 18.0966 6.40656 17.918 5.81 17.918V19.118ZM6.45486 19.3101C6.57412 19.4434 6.666 19.654 6.666 19.988H7.866C7.866 19.426 7.70588 18.9086 7.34915 18.5099L6.45486 19.3101ZM6.666 19.988C6.666 20.1479 6.64436 20.3323 6.60628 20.5354L7.78572 20.7566C7.83164 20.5117 7.866 20.2481 7.866 19.988H6.666ZM6.60887 20.5224L6.27287 22.1184L7.44713 22.3656L7.78313 20.7696L6.60887 20.5224ZM13.0114 17.776L13.6109 17.7538L13.5895 17.176H13.0114V17.776ZM12.1574 17.776V17.176H11.529L11.558 17.8037L12.1574 17.776ZM12.1994 18.686L12.7865 18.8097L12.8022 18.7348L12.7987 18.6583L12.1994 18.686ZM10.8694 25L10.2822 24.8763L10.1298 25.6H10.8694V25ZM11.7234 25V25.6H12.2087L12.3101 25.1253L11.7234 25ZM12.9554 19.232L12.6902 18.6938L12.4293 18.8223L12.3686 19.1067L12.9554 19.232ZM16.3854 18.588L16.3043 19.1825L16.8417 19.2558L16.9687 18.7284L16.3854 18.588ZM16.5674 17.832L17.1507 17.9724L17.3078 17.3199L16.6418 17.2366L16.5674 17.832ZM15.6434 17.776V17.176H15.6326L15.6219 17.1764L15.6434 17.776ZM13.0394 18.532L12.4398 18.5542L12.4743 19.4854L13.3077 19.0687L13.0394 18.532ZM13.0114 17.176H12.1574V18.376H13.0114V17.176ZM11.558 17.8037L11.6 18.7137L12.7987 18.6583L12.7567 17.7483L11.558 17.8037ZM11.6122 18.5623L10.2822 24.8763L11.4565 25.1237L12.7865 18.8097L11.6122 18.5623ZM10.8694 25.6H11.7234V24.4H10.8694V25.6ZM12.3101 25.1253L13.5421 19.3573L12.3686 19.1067L11.1366 24.8747L12.3101 25.1253ZM13.2206 19.7702C14.1414 19.3165 14.8874 19.118 15.4894 19.118V17.918C14.6353 17.918 13.7013 18.1955 12.6902 18.6938L13.2206 19.7702ZM15.4894 19.118C15.7325 19.118 16.0114 19.1426 16.3043 19.1825L16.4664 17.9935C16.1433 17.9494 15.8062 17.918 15.4894 17.918V19.118ZM16.9687 18.7284L17.1507 17.9724L15.984 17.6916L15.802 18.4476L16.9687 18.7284ZM16.6418 17.2366C16.4138 17.2081 16.1308 17.176 15.8254 17.176V18.376C16.0519 18.376 16.2729 18.3999 16.4929 18.4274L16.6418 17.2366ZM15.8254 17.176H15.6434V18.376H15.8254V17.176ZM15.6219 17.1764C14.7272 17.2083 13.774 17.4939 12.771 17.9953L13.3077 19.0687C14.2087 18.6181 14.9915 18.3997 15.6648 18.3756L15.6219 17.1764ZM13.6389 18.5098L13.6109 17.7538L12.4118 17.7982L12.4398 18.5542L13.6389 18.5098ZM18.1659 22.83L18.7447 22.9879L18.7495 22.9703L18.7533 22.9524L18.1659 22.83ZM18.8379 24.692L19.2023 24.2154L19.1946 24.2094L19.1866 24.2038L18.8379 24.692ZM22.9119 24.566L22.5838 24.0636L22.9119 24.566ZM24.1719 22.83L24.7584 22.9565L24.7586 22.9553L24.1719 22.83ZM24.7459 20.142L25.3327 20.2673L25.3342 20.2597L24.7459 20.142ZM24.4519 18.672L24.9291 18.3084L24.9238 18.3013L24.9182 18.2945L24.4519 18.672ZM23.5279 18L23.7543 17.4443L23.7421 17.4394L23.7297 17.435L23.5279 18ZM19.9859 18.434L20.3067 18.9411L20.3114 18.938L19.9859 18.434ZM18.7259 20.142L18.1399 20.0131L18.1385 20.0196L18.7259 20.142ZM23.3179 22.83L23.9036 22.9602L23.9046 22.9553L23.3179 22.83ZM22.9959 23.53L23.4644 23.9048L23.4723 23.895L23.4797 23.8848L22.9959 23.53ZM22.4079 24.048L22.0899 23.5392L22.4079 24.048ZM21.6519 24.37L21.5064 23.7879L21.4928 23.7913L21.4795 23.7953L21.6519 24.37ZM19.0199 22.83L19.602 22.9755L19.6045 22.9655L19.6066 22.9553L19.0199 22.83ZM19.5939 20.142L20.1807 20.2673L20.1828 20.2565L19.5939 20.142ZM20.4619 18.952L20.1576 18.4347L20.1466 18.4415L20.4619 18.952ZM23.0099 18.672L22.8117 19.2383L23.0099 18.672ZM23.8919 20.142L24.4786 20.2673L24.4829 20.2472L24.4858 20.2269L23.8919 20.142ZM17.587 22.6721C17.5275 22.8902 17.5099 23.0996 17.5099 23.278H18.7099C18.7099 23.1764 18.7202 23.0778 18.7447 22.9879L17.587 22.6721ZM17.5099 23.278C17.5099 24.0573 17.8394 24.7162 18.4891 25.1802L19.1866 24.2038C18.8563 23.9678 18.7099 23.6747 18.7099 23.278H17.5099ZM18.4734 25.1686C19.0832 25.6349 19.8402 25.824 20.6579 25.824V24.624C20.0196 24.624 19.5446 24.4771 19.2023 24.2154L18.4734 25.1686ZM20.6579 25.824C21.5792 25.824 22.4505 25.5839 23.2399 25.0684L22.5838 24.0636C22.0012 24.4441 21.3606 24.624 20.6579 24.624V25.824ZM23.2399 25.0684C24.0385 24.5469 24.5664 23.8466 24.7584 22.9565L23.5854 22.7035C23.4693 23.2414 23.1573 23.6891 22.5838 24.0636L23.2399 25.0684ZM24.7586 22.9553L25.3326 20.2673L24.1591 20.0167L23.5851 22.7047L24.7586 22.9553ZM25.3342 20.2597C25.3624 20.1188 25.4019 19.9131 25.4019 19.694H24.2019C24.2019 19.7829 24.1853 19.8852 24.1575 20.0243L25.3342 20.2597ZM25.4019 19.694C25.4019 19.161 25.2267 18.699 24.9291 18.3084L23.9746 19.0356C24.125 19.233 24.2019 19.443 24.2019 19.694H25.4019ZM24.9182 18.2945C24.6116 17.9157 24.2184 17.6334 23.7543 17.4443L23.3015 18.5557C23.5934 18.6746 23.8162 18.8403 23.9855 19.0495L24.9182 18.2945ZM23.7297 17.435C23.2783 17.2737 22.7901 17.176 22.2399 17.176V18.376C22.6416 18.376 22.9935 18.4463 23.3261 18.565L23.7297 17.435ZM22.2399 17.176C21.2998 17.176 20.4305 17.4326 19.6604 17.93L20.3114 18.938C20.8852 18.5674 21.528 18.376 22.2399 18.376V17.176ZM19.6651 17.927C18.8611 18.4356 18.3325 19.1378 18.1399 20.0131L19.3119 20.2709C19.4273 19.7462 19.7387 19.3004 20.3067 18.941L19.6651 17.927ZM18.1385 20.0196L17.5785 22.7076L18.7533 22.9524L19.3133 20.2644L18.1385 20.0196ZM22.7322 22.6998C22.6955 22.8647 22.6206 23.0271 22.512 23.1752L23.4797 23.8848C23.6791 23.6129 23.8282 23.2993 23.9036 22.9602L22.7322 22.6998ZM22.5274 23.1552C22.4058 23.3071 22.2625 23.4313 22.0899 23.5392L22.7259 24.5568C23.0012 24.3847 23.2499 24.1729 23.4644 23.9048L22.5274 23.1552ZM22.0899 23.5392C21.9158 23.648 21.7217 23.7341 21.5064 23.7879L21.7974 24.9521C22.1421 24.8659 22.4519 24.728 22.7259 24.5568L22.0899 23.5392ZM21.4795 23.7953C21.2707 23.8579 21.052 23.882 20.8119 23.882V25.082C21.1317 25.082 21.473 25.0501 21.8243 24.9447L21.4795 23.7953ZM20.8119 23.882C20.3569 23.882 20.0446 23.7854 19.8427 23.6424L19.1491 24.6216C19.6191 24.9546 20.2028 25.082 20.8119 25.082V23.882ZM19.8427 23.6424C19.6661 23.5173 19.5919 23.3781 19.5919 23.152H18.3919C18.3919 23.7659 18.6537 24.2707 19.1491 24.6216L19.8427 23.6424ZM19.5919 23.152C19.5919 23.1006 19.5921 23.0669 19.5941 23.0349C19.5961 23.0047 19.5992 22.9865 19.602 22.9755L18.4378 22.6845C18.3892 22.8787 18.3919 23.0628 18.3919 23.152H19.5919ZM19.6066 22.9553L20.1806 20.2673L19.0071 20.0167L18.4331 22.7047L19.6066 22.9553ZM20.1828 20.2565C20.2442 19.9407 20.4216 19.6821 20.7772 19.4625L20.1466 18.4415C19.5501 18.8099 19.1395 19.3353 19.0049 20.0275L20.1828 20.2565ZM20.7661 19.4692C21.1514 19.2425 21.5785 19.118 22.0719 19.118V17.918C21.3612 17.918 20.7244 18.1015 20.1577 18.4348L20.7661 19.4692ZM22.0719 19.118C22.3555 19.118 22.5964 19.163 22.8117 19.2383L23.2081 18.1057C22.8633 17.985 22.4883 17.918 22.0719 17.918V19.118ZM22.8117 19.2383C22.9865 19.2995 23.1093 19.3903 23.2123 19.5105L24.1234 18.7295C23.8904 18.4577 23.5932 18.2405 23.2081 18.1057L22.8117 19.2383ZM23.2123 19.5105C23.2789 19.5882 23.3199 19.6842 23.3199 19.834H24.5199C24.5199 19.4238 24.3928 19.0438 24.1234 18.7295L23.2123 19.5105ZM23.3199 19.834C23.3199 19.8977 23.3124 19.956 23.2979 20.0571L24.4858 20.2269C24.4994 20.132 24.5199 19.9943 24.5199 19.834H23.3199ZM23.3051 20.0167L22.7311 22.7047L23.9046 22.9553L24.4786 20.2673L23.3051 20.0167ZM34.0688 15.2V14.6H33.5847L33.4823 15.0731L34.0688 15.2ZM33.4388 18.112L33.2886 18.6929L33.8932 18.8493L34.0252 18.2389L33.4388 18.112ZM31.1848 17.776L31.197 17.176H31.1848V17.776ZM29.0148 18.574L29.4173 19.0189L29.0148 18.574ZM27.8668 20.618L28.4539 20.7416L28.4547 20.7376L27.8668 20.618ZM27.5308 22.214L28.1152 22.3504L28.1179 22.3376L27.5308 22.214ZM32.1368 24.51H32.7368V23.5515L31.8746 23.9703L32.1368 24.51ZM32.1368 25H31.5368V25.6H32.1368V25ZM33.0188 25V25.6H33.6438L33.6183 24.9755L33.0188 25ZM32.9908 24.314L32.4038 24.1896L32.3882 24.2632L32.3913 24.3385L32.9908 24.314ZM34.9228 15.2L35.5097 15.3244L35.6633 14.6H34.9228V15.2ZM32.2348 23.782L32.5325 24.3029L32.7656 24.1697L32.8216 23.907L32.2348 23.782ZM30.9608 24.3L31.1187 24.8789L30.9608 24.3ZM28.3848 22.214L27.7987 22.0855L27.7974 22.0916L28.3848 22.214ZM28.7348 20.618L29.3209 20.7465L29.3226 20.7382L28.7348 20.618ZM29.5328 19.106L29.9496 19.5377L29.957 19.5303L29.5328 19.106ZM32.1648 18.616L32.2574 18.0232L32.2483 18.0218L32.2392 18.0206L32.1648 18.616ZM33.2848 18.854L33.8716 18.979L33.9898 18.4244L33.4427 18.2751L33.2848 18.854ZM33.4823 15.0731L32.8523 17.9851L34.0252 18.2389L34.6552 15.3269L33.4823 15.0731ZM33.589 17.5311C32.7409 17.3118 31.9381 17.1912 31.197 17.1761L31.1725 18.3759C31.8035 18.3888 32.5127 18.4922 33.2886 18.6929L33.589 17.5311ZM31.1848 17.176C30.1805 17.176 29.3195 17.4892 28.6122 18.1291L29.4173 19.0189C29.8861 18.5948 30.4531 18.376 31.1848 18.376V17.176ZM28.6122 18.1291C27.9266 18.7494 27.4716 19.5506 27.2788 20.4984L28.4547 20.7376C28.598 20.0334 28.927 19.4626 29.4173 19.0189L28.6122 18.1291ZM27.2797 20.4944L26.9437 22.0904L28.1179 22.3376L28.4539 20.7416L27.2797 20.4944ZM26.9465 22.0777C26.8392 22.5373 26.7908 22.9612 26.7908 23.334H27.9908C27.9908 23.0628 28.0263 22.7307 28.1151 22.3503L26.9465 22.0777ZM26.7908 23.334C26.7908 24.0668 26.9881 24.7247 27.4873 25.1903C27.9786 25.6485 28.66 25.824 29.4208 25.824V24.624C28.8235 24.624 28.49 24.4845 28.3058 24.3127C28.1295 24.1483 27.9908 23.8612 27.9908 23.334H26.7908ZM29.4208 25.824C30.3611 25.824 31.3614 25.5536 32.3989 25.0497L31.8746 23.9703C30.9522 24.4184 30.1325 24.624 29.4208 24.624V25.824ZM31.5368 24.51V25H32.7368V24.51H31.5368ZM32.1368 25.6H33.0188V24.4H32.1368V25.6ZM33.6183 24.9755L33.5903 24.2895L32.3913 24.3385L32.4193 25.0245L33.6183 24.9755ZM33.5777 24.4384L35.5097 15.3244L34.3358 15.0756L32.4038 24.1896L33.5777 24.4384ZM34.9228 14.6H34.0688V15.8H34.9228V14.6ZM31.9371 23.2611C31.5944 23.4569 31.2224 23.6067 30.8029 23.7211L31.1187 24.8789C31.6232 24.7413 32.0911 24.5551 32.5325 24.3029L31.9371 23.2611ZM30.8029 23.7211C30.389 23.834 30.0081 23.882 29.6728 23.882V25.082C30.1215 25.082 30.6085 25.018 31.1187 24.8789L30.8029 23.7211ZM29.6728 23.882C29.3033 23.882 29.1375 23.7901 29.0591 23.7111C28.9799 23.6313 28.8868 23.4608 28.8868 23.082H27.6868C27.6868 23.6412 27.8246 24.1707 28.2074 24.5564C28.591 24.9429 29.1183 25.082 29.6728 25.082V23.882ZM28.8868 23.082C28.8868 22.8763 28.9094 22.6375 28.9722 22.3364L27.7974 22.0916C27.7201 22.4625 27.6868 22.7837 27.6868 23.082H28.8868ZM28.9709 22.3425L29.3209 20.7465L28.1487 20.4895L27.7987 22.0855L28.9709 22.3425ZM29.3226 20.7382C29.4272 20.2268 29.6405 19.836 29.9495 19.5376L29.116 18.6744C28.6131 19.16 28.2943 19.7772 28.147 20.4978L29.3226 20.7382ZM29.957 19.5303C30.2249 19.2624 30.5707 19.118 31.0308 19.118V17.918C30.2869 17.918 29.6247 18.1656 29.1085 18.6817L29.957 19.5303ZM31.0308 19.118C31.2956 19.118 31.6373 19.1547 32.0904 19.2114L32.2392 18.0206C31.7963 17.9653 31.382 17.918 31.0308 17.918V19.118ZM32.0722 19.2088C32.4958 19.275 32.838 19.3541 33.1269 19.4329L33.4427 18.2751C33.1156 18.1859 32.7297 18.097 32.2574 18.0232L32.0722 19.2088ZM32.698 18.729L31.648 23.657L32.8216 23.907L33.8716 18.979L32.698 18.729ZM43.4945 18V17.4H43.008L42.9074 17.876L43.4945 18ZM42.2765 23.768L42.5572 24.2983L42.8055 24.1668L42.8636 23.892L42.2765 23.768ZM39.4765 24.482L39.495 23.8823L39.4857 23.882H39.4765V24.482ZM38.4405 24.118L38.8774 23.7068L38.8712 23.7002L38.8648 23.6937L38.4405 24.118ZM38.1605 22.48L38.7426 22.6255L38.7452 22.6152L38.7474 22.6047L38.1605 22.48ZM39.1125 18L39.6994 18.1247L39.8534 17.4H39.1125V18ZM38.2585 18V17.4H37.7726L37.6716 17.8753L38.2585 18ZM37.3065 22.48L36.7196 22.3553L36.7182 22.3623L37.3065 22.48ZM37.7545 24.72L38.1788 24.2957L38.1704 24.2875L37.7545 24.72ZM39.3225 25.224V24.6239L39.3105 24.6241L39.3225 25.224ZM40.7225 25.028L40.5923 24.4423L40.5846 24.444L40.577 24.4459L40.7225 25.028ZM42.1785 24.482H42.7785V23.4855L41.8978 23.9517L42.1785 24.482ZM42.1785 25H41.5785V25.6H42.1785V25ZM43.0465 25V25.6H43.671L43.646 24.976L43.0465 25ZM43.0185 24.3L42.4317 24.1748L42.416 24.2486L42.419 24.324L43.0185 24.3ZM44.3625 18L44.9493 18.1252L45.104 17.4H44.3625V18ZM42.9074 17.876L41.6894 23.644L42.8636 23.892L44.0816 18.124L42.9074 17.876ZM41.9958 23.2377C41.1196 23.7016 40.284 23.9066 39.495 23.8823L39.458 25.0817C40.489 25.1134 41.5294 24.8424 42.5572 24.2983L41.9958 23.2377ZM39.4765 23.882C39.116 23.882 38.9506 23.7846 38.8774 23.7068L38.0036 24.5292C38.3784 24.9274 38.913 25.082 39.4765 25.082V23.882ZM38.8648 23.6937C38.7758 23.6048 38.6905 23.4453 38.6905 23.096H37.4905C37.4905 23.6427 37.6292 24.1552 38.0162 24.5423L38.8648 23.6937ZM38.6905 23.096C38.6905 22.9446 38.7023 22.7868 38.7426 22.6255L37.5784 22.3345C37.5067 22.6212 37.4905 22.8834 37.4905 23.096H38.6905ZM38.7474 22.6047L39.6994 18.1247L38.5256 17.8753L37.5736 22.3553L38.7474 22.6047ZM39.1125 17.4H38.2585V18.6H39.1125V17.4ZM37.6716 17.8753L36.7196 22.3553L37.8934 22.6047L38.8454 18.1247L37.6716 17.8753ZM36.7182 22.3623C36.6554 22.6761 36.6225 22.9817 36.6225 23.278H37.8225C37.8225 23.0703 37.8456 22.8439 37.8948 22.5977L36.7182 22.3623ZM36.6225 23.278C36.6225 24.0087 36.8261 24.6597 37.3386 25.1525L38.1704 24.2875C37.9549 24.0803 37.8225 23.7793 37.8225 23.278H36.6225ZM37.3302 25.1443C37.8357 25.6497 38.5381 25.8398 39.3345 25.8239L39.3105 24.6241C38.7069 24.6362 38.3733 24.4903 38.1788 24.2957L37.3302 25.1443ZM39.3225 25.824C39.82 25.824 40.3328 25.7439 40.868 25.6101L40.577 24.4459C40.1042 24.5641 39.693 24.624 39.3225 24.624V25.824ZM40.8527 25.6137C41.4149 25.4888 41.9413 25.2865 42.4592 25.0123L41.8978 23.9517C41.4637 24.1815 41.0381 24.3432 40.5923 24.4423L40.8527 25.6137ZM41.5785 24.482V25H42.7785V24.482H41.5785ZM42.1785 25.6H43.0465V24.4H42.1785V25.6ZM43.646 24.976L43.618 24.276L42.419 24.324L42.447 25.024L43.646 24.976ZM43.6053 24.4252L44.9493 18.1252L43.7757 17.8748L42.4317 24.1748L43.6053 24.4252ZM44.3625 17.4H43.4945V18.6H44.3625V17.4ZM51.8903 24.076L52.4809 23.9697L52.3465 23.2234L51.6511 23.5258L51.8903 24.076ZM48.3343 24.076L47.9101 24.5003L48.3343 24.076ZM48.1103 21.486L47.5256 21.3511L47.5231 21.3631L48.1103 21.486ZM48.3483 20.562L48.9176 20.7517L48.9224 20.7373L48.9265 20.7226L48.3483 20.562ZM48.6843 19.778L49.2101 20.0672L49.2157 20.0568L49.221 20.0463L48.6843 19.778ZM49.1883 19.106L48.7979 18.6504V18.6504L49.1883 19.106ZM49.9443 18.686L49.7393 18.1221V18.1221L49.9443 18.686ZM52.9823 18.938L52.7029 19.469L53.2093 19.7355L53.4995 19.2422L52.9823 18.938ZM53.4023 18.224L53.9195 18.5282L54.2452 17.9746L53.6707 17.6873L53.4023 18.224ZM49.7063 17.986L49.5166 17.4168V17.4168L49.7063 17.986ZM48.6703 18.518L48.2986 18.0471L48.6703 18.518ZM47.5363 20.352L46.9646 20.1701L47.5363 20.352ZM47.2563 21.486L47.8423 21.6149L47.8443 21.6058L47.8461 21.5966L47.2563 21.486ZM47.6063 24.678L48.0226 24.2457L48.0146 24.2383L47.6063 24.678ZM52.0163 24.776L52.254 25.3269L52.6912 25.1383L52.6069 24.6697L52.0163 24.776ZM51.6511 23.5258C51.0963 23.767 50.4664 23.882 49.7763 23.882V25.082C50.5983 25.082 51.3964 24.945 52.1296 24.6262L51.6511 23.5258ZM49.7763 23.882C49.1284 23.882 48.8625 23.7556 48.7586 23.6517L47.9101 24.5003C48.3662 24.9564 49.0523 25.082 49.7763 25.082V23.882ZM48.7586 23.6517C48.6281 23.5212 48.5283 23.3061 48.5283 22.9H47.3283C47.3283 23.5019 47.4806 24.0708 47.9101 24.5003L48.7586 23.6517ZM48.5283 22.9C48.5283 22.6212 48.576 22.1897 48.6976 21.6089L47.5231 21.3631C47.3926 21.9862 47.3283 22.5068 47.3283 22.9H48.5283ZM48.695 21.6209C48.7816 21.2455 48.8447 20.9703 48.9176 20.7517L47.7791 20.3723C47.684 20.6577 47.6071 20.9985 47.5257 21.3511L48.695 21.6209ZM48.9265 20.7226C48.9799 20.5303 49.0694 20.3228 49.2101 20.0672L48.1586 19.4888C47.9912 19.7932 47.8568 20.0897 47.7702 20.4014L48.9265 20.7226ZM49.221 20.0463C49.3327 19.823 49.455 19.6677 49.5788 19.5616L48.7979 18.6504C48.5297 18.8803 48.316 19.173 48.1477 19.5097L49.221 20.0463ZM49.5788 19.5616C49.7075 19.4513 49.8917 19.3436 50.1494 19.2499L49.7393 18.1221C49.381 18.2524 49.0612 18.4247 48.7979 18.6504L49.5788 19.5616ZM50.1494 19.2499C50.3761 19.1674 50.6675 19.118 51.0363 19.118V17.918C50.5652 17.918 50.1286 17.9806 49.7393 18.1221L50.1494 19.2499ZM51.0363 19.118C51.7216 19.118 52.2779 19.2453 52.7029 19.469L53.2618 18.407C52.6228 18.0707 51.8631 17.918 51.0363 17.918V19.118ZM53.4995 19.2422L53.9195 18.5282L52.8852 17.9198L52.4652 18.6338L53.4995 19.2422ZM53.6707 17.6873C52.9788 17.3414 52.1534 17.176 51.1903 17.176V18.376C52.0193 18.376 52.6499 18.5186 53.134 18.7607L53.6707 17.6873ZM51.1903 17.176C50.5839 17.176 50.0129 17.2514 49.5166 17.4168L49.8961 18.5552C50.2398 18.4406 50.6768 18.376 51.1903 18.376V17.176ZM49.5166 17.4168C49.0464 17.5735 48.6307 17.7848 48.2986 18.0471L49.0421 18.9889C49.242 18.8312 49.5263 18.6785 49.8961 18.5552L49.5166 17.4168ZM48.2986 18.0471C47.9563 18.3173 47.685 18.6645 47.4608 19.0648L48.5078 19.6512C48.6756 19.3515 48.8524 19.1387 49.0421 18.9889L48.2986 18.0471ZM47.4608 19.0648C47.2517 19.4383 47.0784 19.8123 46.9646 20.1701L48.1081 20.5339C48.1903 20.2757 48.325 19.9777 48.5078 19.6512L47.4608 19.0648ZM46.9646 20.1701C46.8587 20.5028 46.7549 20.9047 46.6666 21.3754L47.8461 21.5966C47.9258 21.1713 48.018 20.8172 48.1081 20.5339L46.9646 20.1701ZM46.6704 21.3571C46.5118 22.0778 46.4323 22.671 46.4323 23.138H47.6323C47.6323 22.793 47.6929 22.2942 47.8423 21.6149L46.6704 21.3571ZM46.4323 23.138C46.4323 23.9239 46.6498 24.6086 47.1981 25.1177L48.0146 24.2383C47.7789 24.0194 47.6323 23.6961 47.6323 23.138H46.4323ZM47.1902 25.1102C47.7422 25.6417 48.617 25.824 49.6083 25.824V24.624C48.6957 24.624 48.2265 24.4423 48.0225 24.2458L47.1902 25.1102ZM49.6083 25.824C50.5669 25.824 51.4492 25.6741 52.254 25.3269L51.7787 24.2251C51.1555 24.4939 50.4418 24.624 49.6083 24.624V25.824ZM52.6069 24.6697L52.4809 23.9697L51.2998 24.1823L51.4258 24.8823L52.6069 24.6697ZM57.7577 16.418V15.818H57.2717L57.1707 16.2933L57.7577 16.418ZM57.4217 18V18.6H57.9076L58.0086 18.1247L57.4217 18ZM56.1337 18V17.4H55.6454L55.5462 17.8781L56.1337 18ZM55.9797 18.742L55.3922 18.6201L55.2423 19.342H55.9797V18.742ZM57.2677 18.742L57.8545 18.8672L58.0091 18.142H57.2677V18.742ZM56.1897 23.796L56.7754 23.9262L56.7765 23.9212L56.1897 23.796ZM56.5117 24.944L56.8629 24.4576V24.4576L56.5117 24.944ZM59.4237 24.79L59.6544 25.3438L60.1042 25.1564L60.0131 24.6777L59.4237 24.79ZM59.3117 24.202L59.9011 24.0897L59.7628 23.364L59.0809 23.6482L59.3117 24.202ZM57.0857 23.628L57.6626 23.7928L57.6683 23.7728L57.6726 23.7525L57.0857 23.628ZM58.1217 18.742V18.142H57.6355L57.5347 18.6175L58.1217 18.742ZM60.3897 18.742V19.342H60.8779L60.9771 18.8639L60.3897 18.742ZM60.5437 18L61.1311 18.1219L61.281 17.4H60.5437V18ZM58.2897 18L57.7027 17.8753L57.5488 18.6H58.2897V18ZM58.6257 16.418L59.2126 16.5427L59.3665 15.818H58.6257V16.418ZM57.1707 16.2933L56.8347 17.8753L58.0086 18.1247L58.3446 16.5427L57.1707 16.2933ZM57.4217 17.4H56.1337V18.6H57.4217V17.4ZM55.5462 17.8781L55.3922 18.6201L56.5671 18.8639L56.7211 18.1219L55.5462 17.8781ZM55.9797 19.342H57.2677V18.142H55.9797V19.342ZM56.6809 18.6168L55.6029 23.6708L56.7765 23.9212L57.8545 18.8672L56.6809 18.6168ZM55.6039 23.6658C55.5685 23.8253 55.5477 23.9816 55.5477 24.146H56.7477C56.7477 24.0864 56.7548 24.0187 56.7754 23.9262L55.6039 23.6658ZM55.5477 24.146C55.5477 24.6396 55.7162 25.1097 56.1604 25.4304L56.8629 24.4576C56.8031 24.4143 56.7477 24.3524 56.7477 24.146H55.5477ZM56.1604 25.4304C56.5476 25.7101 57.0075 25.81 57.5057 25.81V24.61C57.1638 24.61 56.9797 24.5419 56.8629 24.4576L56.1604 25.4304ZM57.5057 25.81C58.2007 25.81 58.9233 25.6485 59.6544 25.3438L59.1929 24.2362C58.58 24.4915 58.0146 24.61 57.5057 24.61V25.81ZM60.0131 24.6777L59.9011 24.0897L58.7223 24.3143L58.8343 24.9023L60.0131 24.6777ZM59.0809 23.6482C58.6351 23.8339 58.2518 23.91 57.9257 23.91V25.11C58.4395 25.11 58.9802 24.9901 59.5424 24.7558L59.0809 23.6482ZM57.9257 23.91H57.7997V25.11H57.9257V23.91ZM57.7997 23.91C57.7132 23.91 57.661 23.9008 57.6338 23.8931C57.6084 23.886 57.6136 23.8828 57.6301 23.8969C57.6488 23.9129 57.6595 23.9318 57.663 23.9409C57.6649 23.946 57.6577 23.93 57.6577 23.88H56.4577C56.4577 24.2039 56.5533 24.5545 56.8492 24.8081C57.1264 25.0457 57.4797 25.11 57.7997 25.11V23.91ZM57.6577 23.88C57.6577 23.8115 57.6598 23.8024 57.6626 23.7928L56.5087 23.4632C56.4555 23.6496 56.4577 23.8085 56.4577 23.88H57.6577ZM57.6726 23.7525L58.7086 18.8665L57.5347 18.6175L56.4987 23.5035L57.6726 23.7525ZM58.1217 19.342H60.3897V18.142H58.1217V19.342ZM60.9771 18.8639L61.1311 18.1219L59.9562 17.8781L59.8022 18.6201L60.9771 18.8639ZM60.5437 17.4H58.2897V18.6H60.5437V17.4ZM58.8766 18.1247L59.2126 16.5427L58.0387 16.2933L57.7027 17.8753L58.8766 18.1247ZM58.6257 15.818H57.7577V17.018H58.6257V15.818ZM64.6241 15.284V14.684H64.1373L64.037 15.1604L64.6241 15.284ZM64.3441 16.614L63.757 16.4904L63.6046 17.214H64.3441V16.614ZM65.1981 16.614V17.214H65.6849L65.7852 16.7376L65.1981 16.614ZM65.4781 15.284L66.0652 15.4076L66.2176 14.684H65.4781V15.284ZM64.0501 18V17.4H63.5649L63.4634 17.8744L64.0501 18ZM62.5521 25L61.9654 24.8744L61.8101 25.6H62.5521V25ZM63.4201 25V25.6H63.9062L64.0071 25.1244L63.4201 25ZM64.9041 18L65.4911 18.1244L65.6446 17.4H64.9041V18ZM64.037 15.1604L63.757 16.4904L64.9312 16.7376L65.2112 15.4076L64.037 15.1604ZM64.3441 17.214H65.1981V16.014H64.3441V17.214ZM65.7852 16.7376L66.0652 15.4076L64.891 15.1604L64.611 16.4904L65.7852 16.7376ZM65.4781 14.684H64.6241V15.884H65.4781V14.684ZM63.4634 17.8744L61.9654 24.8744L63.1388 25.1256L64.6368 18.1256L63.4634 17.8744ZM62.5521 25.6H63.4201V24.4H62.5521V25.6ZM64.0071 25.1244L65.4911 18.1244L64.3172 17.8756L62.8332 24.8756L64.0071 25.1244ZM64.9041 17.4H64.0501V18.6H64.9041V17.4ZM73.5943 18V17.4H73.2563L73.0812 17.689L73.5943 18ZM69.9543 24.006L69.3635 24.1107L69.6415 25.6798L70.4674 24.317L69.9543 24.006ZM68.8903 18L69.4811 17.8953L69.3933 17.4H68.8903V18ZM67.9803 18V17.4H67.2555L67.3908 18.112L67.9803 18ZM69.3103 25L68.7208 25.112L68.8135 25.6H69.3103V25ZM70.1923 25V25.6H70.5268L70.7027 25.3154L70.1923 25ZM74.5183 18L75.0287 18.3154L75.5944 17.4H74.5183V18ZM73.0812 17.689L69.4412 23.695L70.4674 24.317L74.1074 18.311L73.0812 17.689ZM70.5451 23.9013L69.4811 17.8953L68.2995 18.1047L69.3635 24.1107L70.5451 23.9013ZM68.8903 17.4H67.9803V18.6H68.8903V17.4ZM67.3908 18.112L68.7208 25.112L69.8997 24.888L68.5697 17.888L67.3908 18.112ZM69.3103 25.6H70.1923V24.4H69.3103V25.6ZM70.7027 25.3154L75.0287 18.3154L74.0079 17.6846L69.6819 24.6846L70.7027 25.3154ZM74.5183 17.4H73.5943V18.6H74.5183V17.4ZM76.4017 22.214L76.9862 22.3504L76.9888 22.3376L76.4017 22.214ZM81.0077 24.51H81.6077V23.5515L80.7456 23.9703L81.0077 24.51ZM81.0077 25H80.4077V25.6H81.0077V25ZM81.8897 25V25.6H82.5147L82.4892 24.9755L81.8897 25ZM81.8617 24.314L81.2748 24.1892L81.2591 24.2631L81.2622 24.3385L81.8617 24.314ZM83.1357 18.322L83.7226 18.4468L83.8425 17.8831L83.284 17.7406L83.1357 18.322ZM80.0557 17.776L80.0682 17.176H80.0557V17.776ZM77.8857 18.574L78.2883 19.0189L77.8857 18.574ZM76.7377 20.618L77.3249 20.7416L77.3257 20.7376L76.7377 20.618ZM81.1057 23.782L81.3971 24.3065L81.6357 24.174L81.6925 23.907L81.1057 23.782ZM80.2797 24.16L80.4848 24.7239L80.4933 24.7207L80.2797 24.16ZM79.3837 24.398L79.4911 24.9883L79.496 24.9874L79.3837 24.398ZM77.2557 22.214L76.6696 22.0855L76.6683 22.0916L77.2557 22.214ZM77.6057 20.618L78.1918 20.7465L78.1933 20.7396L77.6057 20.618ZM78.0257 19.54L78.5319 19.8621V19.8621L78.0257 19.54ZM81.0357 18.616L81.1283 18.0232L81.1193 18.0218L81.1101 18.0206L81.0357 18.616ZM82.1557 18.854L82.7425 18.979L82.8607 18.4244L82.3136 18.2751L82.1557 18.854ZM75.8174 22.0777C75.7102 22.5373 75.6617 22.9612 75.6617 23.334H76.8617C76.8617 23.0628 76.8973 22.7307 76.986 22.3503L75.8174 22.0777ZM75.6617 23.334C75.6617 24.0668 75.859 24.7247 76.3582 25.1903C76.8495 25.6485 77.531 25.824 78.2917 25.824V24.624C77.6945 24.624 77.3609 24.4845 77.1767 24.3127C77.0004 24.1483 76.8617 23.8612 76.8617 23.334H75.6617ZM78.2917 25.824C79.232 25.824 80.2323 25.5536 81.2699 25.0497L80.7456 23.9703C79.8231 24.4184 79.0034 24.624 78.2917 24.624V25.824ZM80.4077 24.51V25H81.6077V24.51H80.4077ZM81.0077 25.6H81.8897V24.4H81.0077V25.6ZM82.4892 24.9755L82.4612 24.2895L81.2622 24.3385L81.2902 25.0245L82.4892 24.9755ZM82.4486 24.4388L83.7226 18.4468L82.5488 18.1972L81.2748 24.1892L82.4486 24.4388ZM83.284 17.7406C81.904 17.3886 80.8125 17.1916 80.0682 17.1761L80.0432 18.3759C80.6429 18.3884 81.6234 18.5554 82.9874 18.9034L83.284 17.7406ZM80.0557 17.176C79.0514 17.176 78.1904 17.4892 77.4832 18.1291L78.2883 19.0189C78.757 18.5948 79.324 18.376 80.0557 18.376V17.176ZM77.4832 18.1291C76.7975 18.7494 76.3425 19.5506 76.1498 20.4984L77.3257 20.7376C77.4689 20.0334 77.7979 19.4626 78.2883 19.0189L77.4832 18.1291ZM76.1506 20.4944L75.8146 22.0904L76.9888 22.3376L77.3248 20.7416L76.1506 20.4944ZM80.8143 23.2575C80.5926 23.3807 80.3397 23.4951 80.0661 23.5993L80.4933 24.7207C80.8078 24.6009 81.1148 24.4633 81.3971 24.3065L80.8143 23.2575ZM80.0747 23.5961C79.8073 23.6934 79.547 23.7561 79.2714 23.8086L79.496 24.9874C79.8084 24.9279 80.1362 24.8506 80.4848 24.7239L80.0747 23.5961ZM79.2764 23.8077C78.9957 23.8587 78.7523 23.882 78.5437 23.882V25.082C78.8391 25.082 79.1557 25.0493 79.4911 24.9883L79.2764 23.8077ZM78.5437 23.882C78.1742 23.882 78.0085 23.7901 77.9301 23.7111C77.8509 23.6313 77.7577 23.4608 77.7577 23.082H76.5577C76.5577 23.6412 76.6956 24.1707 77.0784 24.5564C77.462 24.9429 77.9892 25.082 78.5437 25.082V23.882ZM77.7577 23.082C77.7577 22.8763 77.7804 22.6375 77.8431 22.3364L76.6683 22.0916C76.5911 22.4625 76.5577 22.7837 76.5577 23.082H77.7577ZM77.8418 22.3425L78.1918 20.7465L77.0196 20.4895L76.6696 22.0855L77.8418 22.3425ZM78.1933 20.7396C78.2651 20.3924 78.3812 20.0989 78.5319 19.8621L77.5195 19.2179C77.2782 19.5971 77.1143 20.0316 77.0182 20.4964L78.1933 20.7396ZM78.5319 19.8621C78.6745 19.638 78.8677 19.4544 79.1049 19.3203L78.5145 18.2757C78.1077 18.5056 77.7689 18.826 77.5195 19.2179L78.5319 19.8621ZM79.1049 19.3203C79.3346 19.1905 79.5965 19.118 79.9017 19.118V17.918C79.3949 17.918 78.9289 18.0415 78.5145 18.2757L79.1049 19.3203ZM79.9017 19.118C80.1665 19.118 80.5082 19.1547 80.9613 19.2114L81.1101 18.0206C80.6672 17.9653 80.2529 17.918 79.9017 17.918V19.118ZM80.9431 19.2088C81.3668 19.275 81.7089 19.3541 81.9978 19.4329L82.3136 18.2751C81.9865 18.1859 81.6007 18.097 81.1283 18.0232L80.9431 19.2088ZM81.5689 18.729L80.5189 23.657L81.6925 23.907L82.7425 18.979L81.5689 18.729Z" fill="#8C3452"/>
</svg>
