<svg width="72" height="72" viewBox="0 0 72 72" fill="none" xmlns="http://www.w3.org/2000/svg">
<path d="M35.52 0C26.0995 0 17.0649 3.74227 10.4036 10.4036C3.74227 17.0649 0 26.0995 0 35.52C0.000242847 40.1846 0.919236 44.8034 2.70451 49.1128C4.48978 53.4222 7.10637 57.3377 10.4049 60.6359C13.7034 63.9341 17.6192 66.5502 21.9288 68.3351C26.2384 70.1199 30.8573 71.0384 35.5218 71.0382C40.1864 71.0379 44.8052 70.1189 49.1146 68.3336C53.424 66.5484 57.3396 63.9318 60.6377 60.6333C63.9359 57.3348 66.5521 53.4189 68.3369 49.1094C70.1217 44.7998 71.0402 40.1809 71.04 35.5163C71.04 15.9026 55.1337 0 35.52 0ZM35.52 63.6363C31.8003 63.679 28.1092 62.9832 24.6603 61.5893C21.2114 60.1953 18.0734 58.131 15.428 55.5157C12.7826 52.9005 10.6823 49.7863 9.24892 46.3537C7.81552 42.921 7.07745 39.2381 7.07745 35.5182C7.07745 31.7982 7.81552 28.1153 9.24892 24.6826C10.6823 21.25 12.7826 18.1358 15.428 15.5206C18.0734 12.9053 21.2114 10.841 24.6603 9.44704C28.1092 8.05311 31.8003 7.35733 35.52 7.4C39.2397 7.35733 42.9308 8.05311 46.3797 9.44704C49.8286 10.841 52.9666 12.9053 55.612 15.5206C58.2574 18.1358 60.3577 21.25 61.7911 24.6826C63.2245 28.1153 63.9625 31.7982 63.9625 35.5182C63.9625 39.2381 63.2245 42.921 61.7911 46.3537C60.3577 49.7863 58.2574 52.9005 55.612 55.5157C52.9666 58.131 49.8286 60.1953 46.3797 61.5893C42.9308 62.9832 39.2397 63.679 35.52 63.6363ZM26.2737 34.595C29.3373 34.595 31.82 31.6979 31.82 28.12C31.82 24.5421 29.3336 21.645 26.27 21.645C23.2064 21.645 20.72 24.5421 20.72 28.12C20.72 31.6979 23.2064 34.595 26.2737 34.595ZM44.77 34.595C47.8373 34.595 50.32 31.6979 50.32 28.12C50.32 24.5421 47.8336 21.645 44.77 21.645C41.7064 21.645 39.22 24.5458 39.22 28.12C39.22 31.6942 41.7064 34.595 44.77 34.595ZM51.5817 40.4632C50.9287 40.1338 50.1726 40.0732 49.4754 40.2945C48.7783 40.5158 48.1955 41.0014 47.8521 41.6472C47.7263 41.8914 44.6368 47.5413 35.5237 47.5413C26.455 47.5413 23.347 41.9432 23.1916 41.6509C22.8589 40.9939 22.2789 40.496 21.5791 40.2667C20.8794 40.0373 20.1171 40.0954 19.4601 40.4281C18.8032 40.7607 18.3052 41.3407 18.0759 42.0405C17.8466 42.7403 17.9046 43.5025 18.2373 44.1595C18.4223 44.5258 22.8549 53.0913 35.5237 53.0913C48.1962 53.0913 52.6214 44.5221 52.8027 44.1558C53.1287 43.5039 53.1833 42.7495 52.9545 42.0575C52.7256 41.3654 52.2321 40.7922 51.5817 40.4632Z" fill="#E2500C"/>
</svg>
