<svg width="103" height="104" viewBox="0 0 103 104" fill="none" xmlns="http://www.w3.org/2000/svg">
<path fill-rule="evenodd" clip-rule="evenodd" d="M51.5 103.5C79.9427 103.5 103 80.4427 103 52C103 23.5573 79.9427 0.5 51.5 0.5C23.0573 0.5 0 23.5573 0 52C0 80.4427 23.0573 103.5 51.5 103.5ZM54.3633 25.7805C55.1936 25.176 55.8113 24.3242 56.1281 23.347C56.4449 22.3698 56.4444 21.3174 56.1267 20.3406C55.809 19.3637 55.1904 18.5124 54.3595 17.9088C53.5287 17.3051 52.5281 16.98 51.5012 16.98C50.4744 16.98 49.4738 17.3051 48.643 17.9088C47.8121 18.5124 47.1935 19.3637 46.8758 20.3406C46.5581 21.3174 46.5576 22.3698 46.8744 23.347C47.1911 24.3242 47.8089 25.176 48.6392 25.7805L46.6936 33.7724C41.4326 29.7823 32.9808 29.3034 27.2373 34.4575L22.6183 38.6422C21.591 38.3632 20.5005 38.4291 19.5142 38.8298C18.5278 39.2304 17.7001 39.9437 17.158 40.8602C16.6159 41.7767 16.3893 42.8458 16.5129 43.9036C16.6366 44.9613 17.1037 45.9492 17.8426 46.7159C18.5816 47.4825 19.5515 47.9854 20.6036 48.1475C21.6557 48.3097 22.7319 48.122 23.6672 47.6134C24.6025 47.1048 25.3451 46.3032 25.7812 45.3318C26.2174 44.3603 26.3229 43.2725 26.0816 42.2353L29.6226 40.1643C32.5216 38.4826 35.9342 40.3317 35.9342 43.4109V58.5772L26.3423 67.4411L26.3228 67.4566C24.3811 69.2746 23.5911 72.1864 24.9064 74.8646C26.1633 77.4728 28.8288 78.5666 31.1207 78.5666H35.942L35.9498 82.6852V82.7553C36.0665 85.741 38.1951 87.8315 40.4442 88.6451C41.6014 89.0758 42.8527 89.1892 44.0685 88.9736C45.2842 88.758 46.4203 88.2212 47.359 87.4188L51.4837 84.2579L55.5929 87.4383C57.4646 88.976 60.1457 89.556 62.64 88.5828C64.7413 87.7809 67.0644 85.6243 67.0644 82.4945V78.5666H72.0997C75.1348 78.4732 77.2906 76.34 78.1895 74.3741L78.2012 74.3508C79.3841 71.7231 78.5358 68.8425 76.5435 67.0674L67.0644 58.5967V46.2565L67.0605 43.4148C67.0605 40.3317 70.979 38.4826 73.8702 40.1643L76.9832 41.9822C76.6887 43.0011 76.7351 44.0883 77.1152 45.0784C77.4954 46.0685 78.1885 46.9072 79.089 47.4669C79.9896 48.0266 81.0482 48.2767 82.1039 48.179C83.1596 48.0813 84.1545 47.6412 84.9371 46.9258C85.7197 46.2103 86.2473 45.2586 86.4394 44.2156C86.6316 43.1726 86.4778 42.0953 86.0015 41.1477C85.5253 40.2002 84.7526 39.4342 83.8011 38.9665C82.8495 38.4987 81.7713 38.3548 80.7305 38.5566L76.2088 34.4614C70.333 29.175 61.601 29.8134 56.3828 34.0916L54.3672 25.7883L54.3633 25.7805ZM63.142 48.779V58.2619H63.1731V59.2701C63.1731 61.7887 62.1186 64.2062 60.3013 66.0708C58.2078 68.2001 55.1065 69.6132 51.4993 69.6132C47.9427 69.6132 44.8569 68.2118 42.7556 66.0981C40.9073 64.2295 39.8255 61.7926 39.8255 59.2701V58.2619H39.8566V48.8413C42.8801 47.2453 46.9932 46.2565 51.5421 46.2565C56.0404 46.2565 60.1262 47.2141 63.142 48.779ZM66.4495 63.2641L73.9519 69.9714C74.8158 70.7421 75.0648 71.8399 74.6523 72.7547C74.2009 73.7435 73.1736 74.6388 71.979 74.6739H63.1731V82.4984C63.1731 83.5572 62.3092 84.5499 61.2391 84.9508C60.7043 85.1574 60.1235 85.2155 59.5584 85.1189C58.9932 85.0222 58.4647 84.7745 58.0288 84.4019L51.4993 79.3452L44.9036 84.4019C44.486 84.7786 43.9724 85.0325 43.4196 85.1355C42.8668 85.2386 42.2963 85.1868 41.7711 84.9858C40.6582 84.5849 39.8839 83.6662 39.8411 82.6073L39.8255 74.6739H31.1207C29.9261 74.6739 28.856 74.1094 28.4046 73.1557C27.9104 72.1708 28.1595 71.0691 28.9805 70.3023L36.5685 63.2913C38.4713 69.185 44.4483 73.506 51.4993 73.506C58.3324 73.506 64.1148 69.512 66.2161 63.9298C66.2993 63.7111 66.3771 63.4905 66.4495 63.268V63.2641ZM57.68 62.3001C57.68 64.5744 54.9072 66.4201 51.5 66.4201C48.0928 66.4201 45.32 64.5744 45.32 62.3001H57.68ZM46.35 58.1801C48.0566 58.1801 49.44 56.7967 49.44 55.0901C49.44 53.3836 48.0566 52.0001 46.35 52.0001C44.6434 52.0001 43.26 53.3836 43.26 55.0901C43.26 56.7967 44.6434 58.1801 46.35 58.1801ZM59.74 55.0901C59.74 56.0519 59.3006 56.911 58.6117 57.4777C58.0781 57.9166 57.3948 58.1801 56.65 58.1801C55.9052 58.1801 55.2219 57.9166 54.6883 57.4777C53.9994 56.911 53.56 56.0519 53.56 55.0901C53.56 53.3836 54.9434 52.0001 56.65 52.0001C58.3566 52.0001 59.74 53.3836 59.74 55.0901Z" fill="url(#paint0_linear_292_869)"/>
<defs>
<linearGradient id="paint0_linear_292_869" x1="51.5" y1="103.5" x2="40.7708" y2="13.375" gradientUnits="userSpaceOnUse">
<stop offset="0.5" stop-color="#455A64"/>
<stop offset="0.973958" stop-color="#949494"/>
</linearGradient>
</defs>
</svg>
