<svg width="56" height="56" viewBox="0 0 56 56" fill="none" xmlns="http://www.w3.org/2000/svg">
<g filter="url(#filter0_d_198_4205)">
<circle cx="28" cy="24" r="24" fill="#FAFAFA"/>
<path fill-rule="evenodd" clip-rule="evenodd" d="M28 48C41.2548 48 52 37.2548 52 24C52 10.7452 41.2548 0 28 0C14.7452 0 4 10.7452 4 24C4 37.2548 14.7452 48 28 48ZM29.3343 11.7812C29.7213 11.4995 30.0092 11.1025 30.1568 10.6472C30.3044 10.1918 30.3042 9.70133 30.1561 9.24608C30.0081 8.79084 29.7198 8.39415 29.3326 8.11283C28.9454 7.83151 28.4791 7.68 28.0006 7.68C27.522 7.68 27.0558 7.83151 26.6686 8.11283C26.2814 8.39415 25.9931 8.79084 25.845 9.24608C25.697 9.70133 25.6968 10.1918 25.8444 10.6472C25.992 11.1025 26.2799 11.4995 26.6668 11.7812L25.7601 15.5056C23.3084 13.6461 19.3697 13.423 16.6931 15.8249L14.5406 17.775C14.0618 17.645 13.5536 17.6757 13.094 17.8624C12.6343 18.0491 12.2486 18.3815 11.996 18.8086C11.7433 19.2357 11.6377 19.734 11.6954 20.2269C11.753 20.7198 11.9707 21.1802 12.315 21.5375C12.6594 21.8947 13.1114 22.1291 13.6017 22.2047C14.092 22.2802 14.5935 22.1928 15.0294 21.9558C15.4652 21.7187 15.8113 21.3452 16.0146 20.8925C16.2178 20.4397 16.267 19.9328 16.1545 19.4494L17.8047 18.4843C19.1557 17.7006 20.7461 18.5623 20.7461 19.9973V27.0651L16.276 31.1958L16.2669 31.2031C15.3621 32.0503 14.9939 33.4072 15.6069 34.6554C16.1926 35.8708 17.4348 36.3806 18.5029 36.3806H20.7497L20.7533 38.2999V38.3326C20.8077 39.724 21.7996 40.6982 22.8478 41.0773C23.3871 41.278 23.9702 41.3309 24.5368 41.2304C25.1033 41.13 25.6328 40.8798 26.0702 40.5059L27.9924 39.0328L29.9074 40.5149C30.7796 41.2315 32.0291 41.5018 33.1915 41.0483C34.1707 40.6746 35.2533 39.6696 35.2533 38.211V36.3806H37.5998C39.0143 36.337 40.0189 35.3429 40.4378 34.4268L40.4433 34.4159C40.9945 33.1914 40.5992 31.8489 39.6707 31.0217L35.2533 27.0742V21.3234L35.2515 19.9991C35.2515 18.5623 37.0776 17.7006 38.4249 18.4843L39.8757 19.3315C39.7384 19.8063 39.7601 20.313 39.9372 20.7744C40.1144 21.2358 40.4374 21.6267 40.857 21.8875C41.2767 22.1483 41.7701 22.2649 42.262 22.2193C42.754 22.1738 43.2176 21.9687 43.5823 21.6353C43.9471 21.3019 44.1929 20.8584 44.2825 20.3723C44.372 19.8862 44.3003 19.3842 44.0784 18.9426C43.8564 18.501 43.4963 18.1441 43.0529 17.9261C42.6095 17.7081 42.107 17.6411 41.622 17.7351L39.5148 15.8267C36.7766 13.3631 32.7073 13.6606 30.2755 15.6543L29.3362 11.7848L29.3343 11.7812ZM33.4254 22.499V26.9182H33.4399V27.388C33.4399 28.5617 32.9485 29.6883 32.1016 30.5573C31.126 31.5496 29.6807 32.2081 27.9997 32.2081C26.3422 32.2081 24.9042 31.555 23.925 30.57C23.0636 29.6992 22.5595 28.5636 22.5595 27.388V26.9182H22.574V22.528C23.983 21.7842 25.8997 21.3234 28.0196 21.3234C30.1159 21.3234 32.02 21.7697 33.4254 22.499ZM34.9668 29.2493L38.463 32.375C38.8656 32.7342 38.9817 33.2458 38.7894 33.6721C38.5791 34.1329 38.1003 34.5501 37.5436 34.5665H33.4399V38.2128C33.4399 38.7063 33.0373 39.1689 32.5386 39.3557C32.2894 39.452 32.0187 39.4791 31.7554 39.434C31.492 39.389 31.2457 39.2736 31.0426 39.0999L27.9997 36.7434L24.926 39.0999C24.7313 39.2755 24.492 39.3938 24.2344 39.4418C23.9768 39.4898 23.7109 39.4657 23.4662 39.372C22.9475 39.1852 22.5867 38.7571 22.5667 38.2636L22.5595 34.5665H18.5029C17.9462 34.5665 17.4475 34.3034 17.2371 33.859C17.0068 33.4 17.1229 32.8866 17.5055 32.5292L21.0416 29.262C21.9284 32.0086 24.7138 34.0222 27.9997 34.0222C31.184 34.0222 33.8787 32.1609 34.858 29.5595C34.8967 29.4576 34.933 29.3548 34.9668 29.2511V29.2493ZM30.88 28.8001C30.88 29.8599 29.5878 30.7201 28 30.7201C26.4122 30.7201 25.12 29.8599 25.12 28.8001H30.88ZM25.6 26.8801C26.3953 26.8801 27.04 26.2354 27.04 25.4401C27.04 24.6448 26.3953 24.0001 25.6 24.0001C24.8047 24.0001 24.16 24.6448 24.16 25.4401C24.16 26.2354 24.8047 26.8801 25.6 26.8801ZM31.84 25.4401C31.84 25.8883 31.6352 26.2886 31.3142 26.5527C31.0655 26.7573 30.7471 26.8801 30.4 26.8801C30.0529 26.8801 29.7345 26.7573 29.4858 26.5527C29.1648 26.2886 28.96 25.8883 28.96 25.4401C28.96 24.6448 29.6047 24.0001 30.4 24.0001C31.1953 24.0001 31.84 24.6448 31.84 25.4401Z" fill="url(#paint0_linear_198_4205)"/>
</g>
<defs>
<filter id="filter0_d_198_4205" x="0" y="0" width="56" height="56" filterUnits="userSpaceOnUse" color-interpolation-filters="sRGB">
<feFlood flood-opacity="0" result="BackgroundImageFix"/>
<feColorMatrix in="SourceAlpha" type="matrix" values="0 0 0 0 0 0 0 0 0 0 0 0 0 0 0 0 0 0 127 0" result="hardAlpha"/>
<feOffset dy="4"/>
<feGaussianBlur stdDeviation="2"/>
<feComposite in2="hardAlpha" operator="out"/>
<feColorMatrix type="matrix" values="0 0 0 0 0 0 0 0 0 0 0 0 0 0 0 0 0 0 0.25 0"/>
<feBlend mode="normal" in2="BackgroundImageFix" result="effect1_dropShadow_198_4205"/>
<feBlend mode="normal" in="SourceGraphic" in2="effect1_dropShadow_198_4205" result="shape"/>
</filter>
<linearGradient id="paint0_linear_198_4205" x1="28" y1="48" x2="23" y2="6" gradientUnits="userSpaceOnUse">
<stop offset="0.632672" stop-color="#F09A00"/>
<stop offset="0.973958" stop-color="#FBD796"/>
</linearGradient>
</defs>
</svg>
