<svg width="247" height="33" viewBox="0 0 247 33" fill="none" xmlns="http://www.w3.org/2000/svg">
<path d="M35.301 7.17554C35.301 7.56054 35.378 7.89654 35.532 8.18354C35.686 8.47754 35.917 8.70154 36.211 8.86254C36.505 9.03054 36.855 9.10754 37.247 9.10754C37.324 9.10754 37.45 9.10754 37.625 9.09354C37.8 9.07954 38.038 9.04454 38.339 8.98154C38.633 8.92554 38.85 8.84154 38.983 8.74354V6.18154H37.275V6.95154H38.073V8.26754C37.87 8.31654 37.597 8.33754 37.247 8.33754C36.925 8.33754 36.673 8.23954 36.491 8.02954C36.302 7.82654 36.211 7.53954 36.211 7.17554V5.92954C36.211 5.16654 36.582 4.78154 37.331 4.78154C37.835 4.78154 38.276 4.90054 38.661 5.13154L39.06 4.45254C38.808 4.31254 38.528 4.20054 38.206 4.12354C37.884 4.05354 37.597 4.01154 37.331 4.01154C37.1 4.01154 36.89 4.03254 36.701 4.07454C36.505 4.11654 36.344 4.16554 36.204 4.23554C36.064 4.30554 35.945 4.39654 35.84 4.49454C35.728 4.59254 35.644 4.69754 35.581 4.80954C35.511 4.92154 35.455 5.04054 35.413 5.16654C35.371 5.29954 35.336 5.42554 35.322 5.54454C35.308 5.67054 35.301 5.79654 35.301 5.92954V7.17554ZM39.5694 7.41354C39.5694 7.74954 39.6534 8.05054 39.8354 8.31654C40.0174 8.58254 40.2484 8.77854 40.5354 8.91854C40.8224 9.05854 41.1374 9.12154 41.4804 9.12154C41.8164 9.12154 42.1314 9.05854 42.4254 8.91854C42.7124 8.77854 42.9434 8.58254 43.1254 8.31654C43.3074 8.05054 43.3984 7.74954 43.3984 7.41354V5.69154C43.3984 5.43954 43.3424 5.20854 43.2374 4.99154C43.1324 4.78154 42.9924 4.59954 42.8174 4.45954C42.6354 4.31954 42.4324 4.20754 42.2014 4.13054C41.9704 4.05354 41.7324 4.01154 41.4804 4.01154C41.1444 4.01154 40.8294 4.08154 40.5424 4.21454C40.2554 4.34754 40.0244 4.54354 39.8424 4.80254C39.6604 5.06154 39.5694 5.35554 39.5694 5.69154V7.41354ZM42.4884 7.41354C42.4884 7.70754 42.3904 7.93154 42.1944 8.09954C41.9984 8.26754 41.7604 8.35154 41.4804 8.35154C41.2004 8.35154 40.9624 8.26754 40.7664 8.09954C40.5704 7.93154 40.4794 7.70754 40.4794 7.41354V5.69154C40.4794 5.41154 40.5704 5.18754 40.7664 5.02654C40.9554 4.86554 41.1934 4.78154 41.4804 4.78154C41.7604 4.78154 41.9984 4.86554 42.1944 5.02654C42.3904 5.18754 42.4884 5.41154 42.4884 5.69154V7.41354ZM43.9852 4.11654V9.01654H46.0642C47.1282 9.01654 47.6672 8.52654 47.6672 7.53954C47.6672 6.95154 47.4432 6.55954 46.9952 6.36354C47.1492 6.29354 47.2752 6.17454 47.3732 6.02054C47.4712 5.86654 47.5202 5.67054 47.5202 5.44654C47.5202 4.99854 47.3802 4.66954 47.1142 4.44554C46.8482 4.22854 46.4912 4.11654 46.0502 4.11654H43.9852ZM44.8952 6.02054V4.88654H46.0362C46.4142 4.88654 46.6102 5.07554 46.6102 5.44654C46.6102 5.58654 46.5752 5.69854 46.5192 5.78954C46.4632 5.88054 46.4002 5.94354 46.3302 5.97154C46.2602 6.00654 46.1832 6.02054 46.1132 6.02054H44.8952ZM44.8952 8.24654V6.79054H46.0992C46.1972 6.79054 46.2812 6.80454 46.3582 6.83254C46.4352 6.86054 46.5052 6.90954 46.5682 6.96554C46.6242 7.02154 46.6732 7.09854 46.7082 7.19654C46.7362 7.29454 46.7572 7.41354 46.7572 7.53954C46.7572 7.68654 46.7362 7.80554 46.7012 7.90354C46.6592 8.00154 46.6102 8.07854 46.5402 8.12054C46.4702 8.16954 46.3932 8.20454 46.3162 8.21854C46.2392 8.23954 46.1482 8.24654 46.0432 8.24654H44.8952ZM48.2126 4.11654V9.01654H49.1296V4.11654H48.2126ZM49.8833 4.11654V9.01654H53.1943V8.24654H50.8003V6.87454H52.9213V6.10454H50.8003V4.88654H53.1313V4.11654H49.8833ZM53.721 4.11654V9.01654H54.638V7.22454H55.45L56.57 9.01654H57.592L56.374 7.09854C56.71 7.01454 56.962 6.83954 57.13 6.58754C57.298 6.33554 57.389 6.03454 57.389 5.67054C57.389 5.20854 57.256 4.83054 56.99 4.54354C56.724 4.26354 56.325 4.11654 55.8 4.11654H53.721ZM54.638 6.45454V4.88654H55.8C56.024 4.88654 56.199 4.95654 56.311 5.09654C56.423 5.23654 56.479 5.42554 56.479 5.67054C56.479 5.92254 56.423 6.11154 56.311 6.25154C56.199 6.39154 56.024 6.45454 55.8 6.45454H54.638ZM60.9185 4.11654V7.23854L58.8745 4.11654H58.0835V9.01654H58.9935V5.88054L61.0585 9.01654H61.8285V4.11654H60.9185ZM62.3563 7.41354C62.3563 7.74954 62.4403 8.05054 62.6223 8.31654C62.8043 8.58254 63.0353 8.77854 63.3223 8.91854C63.6093 9.05854 63.9243 9.12154 64.2673 9.12154C64.6033 9.12154 64.9183 9.05854 65.2123 8.91854C65.4993 8.77854 65.7303 8.58254 65.9123 8.31654C66.0943 8.05054 66.1853 7.74954 66.1853 7.41354V5.69154C66.1853 5.43954 66.1293 5.20854 66.0243 4.99154C65.9193 4.78154 65.7793 4.59954 65.6043 4.45954C65.4223 4.31954 65.2193 4.20754 64.9883 4.13054C64.7573 4.05354 64.5193 4.01154 64.2673 4.01154C63.9313 4.01154 63.6163 4.08154 63.3293 4.21454C63.0423 4.34754 62.8113 4.54354 62.6293 4.80254C62.4473 5.06154 62.3563 5.35554 62.3563 5.69154V7.41354ZM65.2753 7.41354C65.2753 7.70754 65.1773 7.93154 64.9813 8.09954C64.7853 8.26754 64.5473 8.35154 64.2673 8.35154C63.9873 8.35154 63.7493 8.26754 63.5533 8.09954C63.3573 7.93154 63.2663 7.70754 63.2663 7.41354V5.69154C63.2663 5.41154 63.3573 5.18754 63.5533 5.02654C63.7423 4.86554 63.9803 4.78154 64.2673 4.78154C64.5473 4.78154 64.7853 4.86554 64.9813 5.02654C65.1773 5.18754 65.2753 5.41154 65.2753 5.69154V7.41354ZM68.6958 4.11654V9.01654H70.5018C70.8378 9.01654 71.1528 8.95354 71.4468 8.81354C71.7338 8.67354 71.9648 8.47754 72.1468 8.21154C72.3218 7.95254 72.4128 7.65154 72.4128 7.31554V5.79654C72.4128 5.46054 72.3218 5.16654 72.1398 4.90754C71.9578 4.64854 71.7268 4.45254 71.4398 4.31954C71.1458 4.18654 70.8378 4.11654 70.5018 4.11654H68.6958ZM71.5028 7.31554C71.5028 7.60954 71.4048 7.83354 71.2088 8.00154C71.0128 8.16954 70.7818 8.24654 70.5018 8.24654H69.6058V4.88654H70.5018C70.6838 4.88654 70.8448 4.92154 70.9988 4.99154C71.1458 5.06154 71.2648 5.15954 71.3628 5.29954C71.4538 5.43954 71.5028 5.60754 71.5028 5.79654V7.31554ZM73.0051 4.11654V9.01654H76.3161V8.24654H73.9221V6.87454H76.0431V6.10454H73.9221V4.88654H76.2531V4.11654H73.0051Z" fill="#90234C"/>
<path d="M35.527 23.4522C37.125 24.0132 38.502 24.2852 39.658 24.2852C39.93 24.2852 40.151 24.2852 40.338 24.2682C40.525 24.2682 40.763 24.2512 41.035 24.2172C41.307 24.1832 41.562 24.1322 41.766 24.0642C41.97 23.9962 42.191 23.9112 42.429 23.8092C42.667 23.7072 42.854 23.5542 43.024 23.3672C43.194 23.1972 43.347 22.9762 43.483 22.7382C43.619 22.5002 43.738 22.2112 43.806 21.8712C43.874 21.5312 43.925 21.1402 43.925 20.7152C43.925 20.3752 43.874 20.0692 43.789 19.7632C43.704 19.4742 43.602 19.2192 43.5 18.9982C43.381 18.7942 43.211 18.5902 42.99 18.3862C42.752 18.1822 42.565 18.0292 42.395 17.9102C42.225 17.8082 41.97 17.6722 41.647 17.5362C41.324 17.4002 41.069 17.2812 40.899 17.2132C40.712 17.1452 40.44 17.0602 40.083 16.9242C39.794 16.8392 39.573 16.7712 39.42 16.7032C39.267 16.6522 39.08 16.5672 38.876 16.4652C38.672 16.3632 38.502 16.2442 38.4 16.1422C38.298 16.0402 38.196 15.9212 38.111 15.7512C38.026 15.5812 37.992 15.3942 37.992 15.1902C37.992 14.2212 38.638 13.7282 39.947 13.7282C40.729 13.7282 41.613 14.0342 42.565 14.6122L43.602 12.9802C43.024 12.5722 42.395 12.2832 41.749 12.1132C41.086 11.9432 40.491 11.8582 39.947 11.8582C39.165 11.8582 38.485 11.9602 37.924 12.1302C37.346 12.3172 36.921 12.5722 36.615 12.8952C36.309 13.2352 36.105 13.5752 35.969 13.9492C35.833 14.3232 35.782 14.7482 35.782 15.1902C35.782 15.6152 35.85 16.0062 36.003 16.3462C36.156 16.7032 36.343 16.9922 36.564 17.2132C36.768 17.4342 37.057 17.6552 37.414 17.8592C37.771 18.0632 38.094 18.2332 38.366 18.3352C38.638 18.4372 38.995 18.5562 39.42 18.6922C39.76 18.8282 40.049 18.9302 40.27 19.0322C40.491 19.1342 40.729 19.2532 40.984 19.4062C41.222 19.5762 41.409 19.7632 41.528 19.9842C41.647 20.2052 41.715 20.4432 41.715 20.7152C41.715 21.0892 41.647 21.3782 41.545 21.6162C41.426 21.8542 41.256 22.0412 41.052 22.1432C40.831 22.2452 40.61 22.3302 40.406 22.3642C40.202 22.3982 39.947 22.4152 39.658 22.4152C39.165 22.4152 38.672 22.3642 38.162 22.2622C37.652 22.1602 36.955 21.9562 36.071 21.6672L35.527 23.4522ZM49.2233 12.1132L44.9053 24.0132H47.2173L48.0843 21.5992H52.1133L52.9973 24.0132H55.2923L50.9743 12.1132H49.2233ZM51.6373 19.9332H48.5263L50.0903 15.4112L51.6373 19.9332ZM63.623 12.1132V19.6952L58.659 12.1132H56.738V24.0132H58.948V16.3972L63.963 24.0132H65.833V12.1132H63.623ZM73.6393 12.1132V23.5032C73.6393 23.7412 73.5713 23.9452 73.4523 24.1492C73.3163 24.3532 73.1463 24.5232 72.9083 24.6592C72.6703 24.8122 72.4493 24.9312 72.2793 25.0162C72.0923 25.1182 71.8713 25.2032 71.6333 25.2882L72.2793 26.8182C72.2963 26.8182 72.3303 26.8012 72.3983 26.7672C72.6193 26.6992 72.8063 26.6482 72.9423 26.5972C73.0783 26.5462 73.2653 26.4612 73.5373 26.3422C73.8093 26.2232 74.0303 26.1042 74.2173 26.0022C74.3873 25.9002 74.5913 25.7472 74.8123 25.5602C75.0333 25.3902 75.2203 25.2032 75.3563 24.9992C75.4923 24.8122 75.5943 24.5912 75.6963 24.3192C75.7983 24.0642 75.8493 23.7922 75.8493 23.5032V12.1132H73.6393ZM85.1284 12.1132V19.8822C85.1284 20.4262 85.0264 20.8852 84.8564 21.2592C84.6864 21.6332 84.4144 21.9222 84.0574 22.1092C83.7004 22.3132 83.2584 22.3982 82.7314 22.3982C81.9494 22.3982 81.3544 22.1942 80.9464 21.7692C80.5384 21.3442 80.3514 20.7152 80.3514 19.8822V12.1132H78.1244V19.8822C78.1244 21.2592 78.5154 22.3302 79.3144 23.1122C80.0964 23.8942 81.2354 24.2852 82.7314 24.2852C84.2274 24.2852 85.3664 23.8942 86.1654 23.1122C86.9474 22.3302 87.3554 21.2592 87.3554 19.8822V12.1132H85.1284ZM92.5534 12.1132L88.2354 24.0132H90.5474L91.4144 21.5992H95.4434L96.3274 24.0132H98.6224L94.3044 12.1132H92.5534ZM94.9674 19.9332H91.8564L93.4204 15.4112L94.9674 19.9332ZM106.953 12.1132V19.6952L101.989 12.1132H100.068V24.0132H102.278V16.3972L107.293 24.0132H109.163V12.1132H106.953Z" fill="#90234C"/>
<path d="M35.527 23.4522L35.0487 23.3065L34.9089 23.7652L35.3614 23.924L35.527 23.4522ZM40.338 24.2682V23.7682H40.3153L40.2927 23.7703L40.338 24.2682ZM41.035 24.2172L40.973 23.7211L41.035 24.2172ZM41.766 24.0642L41.9241 24.5386H41.9241L41.766 24.0642ZM42.429 23.8092L42.232 23.3497H42.232L42.429 23.8092ZM43.024 23.3672L42.6704 23.0137L42.662 23.0221L42.654 23.0309L43.024 23.3672ZM43.483 22.7382L43.0489 22.4902V22.4902L43.483 22.7382ZM43.806 21.8712L44.2963 21.9693L43.806 21.8712ZM43.789 19.7632L44.2708 19.6294L44.2687 19.6222L43.789 19.7632ZM43.5 18.9982L43.954 18.7887L43.9439 18.767L43.9319 18.7463L43.5 18.9982ZM42.99 18.3862L43.3291 18.0188L43.3224 18.0126L43.3154 18.0066L42.99 18.3862ZM42.395 17.9102L42.6817 17.5006L42.6673 17.4905L42.6522 17.4815L42.395 17.9102ZM41.647 17.5362L41.453 17.9971H41.453L41.647 17.5362ZM40.899 17.2132L41.0847 16.749L41.0773 16.7461L41.0699 16.7433L40.899 17.2132ZM40.083 16.9242L40.261 16.457L40.2428 16.4501L40.2241 16.4446L40.083 16.9242ZM39.42 16.7032L39.6231 16.2463L39.601 16.2365L39.5781 16.2289L39.42 16.7032ZM38.876 16.4652L39.0996 16.018L39.0996 16.018L38.876 16.4652ZM38.4 16.1422L38.7536 15.7887L38.7536 15.7887L38.4 16.1422ZM38.111 15.7512L38.5582 15.5276L38.5582 15.5276L38.111 15.7512ZM42.565 14.6122L42.3055 15.0396L42.7243 15.2939L42.987 14.8804L42.565 14.6122ZM43.602 12.9802L44.024 13.2484L44.2794 12.8464L43.8903 12.5718L43.602 12.9802ZM41.749 12.1132L41.8762 11.6297L41.8732 11.6289L41.749 12.1132ZM37.924 12.1302L37.779 11.6516L37.7701 11.6545L37.924 12.1302ZM36.615 12.8952L36.2519 12.5513L36.2434 12.5608L36.615 12.8952ZM35.969 13.9492L36.4389 14.1201L36.4389 14.1201L35.969 13.9492ZM36.003 16.3462L36.4626 16.1493L36.459 16.1411L36.003 16.3462ZM36.564 17.2132L36.9314 16.8741L36.9246 16.8668L36.9176 16.8597L36.564 17.2132ZM38.366 18.3352L38.5416 17.8671H38.5416L38.366 18.3352ZM39.42 18.6922L39.6057 18.228L39.5893 18.2214L39.5724 18.216L39.42 18.6922ZM40.27 19.0322L40.0605 19.4862L40.27 19.0322ZM40.984 19.4062L41.2746 18.9994L41.2584 18.9878L41.2412 18.9775L40.984 19.4062ZM41.528 19.9842L41.0878 20.2213L41.528 19.9842ZM41.545 21.6162L41.9922 21.8399L41.9988 21.8267L42.0046 21.8132L41.545 21.6162ZM41.052 22.1432L41.2615 22.5972L41.2686 22.594L41.2756 22.5905L41.052 22.1432ZM40.406 22.3642L40.4882 22.8574H40.4882L40.406 22.3642ZM38.162 22.2622L38.2601 21.772L38.162 22.2622ZM36.071 21.6672L36.2264 21.192L35.7414 21.0335L35.5927 21.5215L36.071 21.6672ZM35.3614 23.924C36.9924 24.4966 38.4276 24.7852 39.658 24.7852V23.7852C38.5764 23.7852 37.2576 23.5299 35.6926 22.9805L35.3614 23.924ZM39.658 24.7852C39.9223 24.7852 40.1688 24.7857 40.3833 24.7662L40.2927 23.7703C40.1332 23.7848 39.9377 23.7852 39.658 23.7852V24.7852ZM40.338 24.7682C40.5521 24.7682 40.8119 24.749 41.097 24.7134L40.973 23.7211C40.7141 23.7535 40.4979 23.7682 40.338 23.7682V24.7682ZM41.097 24.7134C41.3878 24.677 41.6779 24.6206 41.9241 24.5386L41.6079 23.5899C41.4461 23.6438 41.2262 23.6895 40.973 23.7211L41.097 24.7134ZM41.9241 24.5386C42.1436 24.4654 42.3777 24.3752 42.626 24.2688L42.232 23.3497C42.0043 23.4473 41.7964 23.5271 41.6079 23.5899L41.9241 24.5386ZM42.626 24.2688C42.9481 24.1308 43.1913 23.9265 43.394 23.7036L42.654 23.0309C42.5167 23.182 42.3859 23.2837 42.232 23.3497L42.626 24.2688ZM43.3776 23.7208C43.591 23.5074 43.7695 23.2447 43.9171 22.9863L43.0489 22.4902C42.9245 22.7078 42.797 22.8871 42.6704 23.0137L43.3776 23.7208ZM43.9171 22.9863C44.0774 22.7058 44.2169 22.3665 44.2963 21.9693L43.3157 21.7732C43.2591 22.056 43.1606 22.2947 43.0489 22.4902L43.9171 22.9863ZM44.2963 21.9693C44.3693 21.6045 44.425 21.18 44.425 20.7152H43.425C43.425 21.1005 43.3787 21.458 43.3157 21.7732L44.2963 21.9693ZM44.425 20.7152C44.425 20.3222 44.3656 19.9708 44.2708 19.6294L43.3072 19.8971C43.3824 20.1677 43.425 20.4282 43.425 20.7152H44.425ZM44.2687 19.6222C44.1756 19.3056 44.0642 19.0275 43.954 18.7887L43.046 19.2078C43.1398 19.411 43.2324 19.6429 43.3093 19.9043L44.2687 19.6222ZM43.9319 18.7463C43.7821 18.4896 43.5772 18.2478 43.3291 18.0188L42.6509 18.7536C42.8448 18.9327 42.9799 19.0989 43.0681 19.2502L43.9319 18.7463ZM43.3154 18.0066C43.0756 17.8011 42.873 17.6345 42.6817 17.5006L42.1083 18.3199C42.257 18.4239 42.4284 18.5634 42.6646 18.7659L43.3154 18.0066ZM42.6522 17.4815C42.4625 17.3676 42.1864 17.2208 41.841 17.0754L41.453 17.9971C41.7536 18.1236 41.9875 18.2488 42.1378 18.339L42.6522 17.4815ZM41.841 17.0754C41.5532 16.9543 41.2509 16.8155 41.0847 16.749L40.7133 17.6775C40.8871 17.747 41.0948 17.8462 41.453 17.9971L41.841 17.0754ZM41.0699 16.7433C40.8431 16.6609 40.6261 16.5961 40.261 16.457L39.905 17.3915C40.2539 17.5244 40.5809 17.6296 40.7281 17.6831L41.0699 16.7433ZM40.2241 16.4446C39.9267 16.3571 39.7399 16.2983 39.6231 16.2463L39.2169 17.1602C39.4061 17.2442 39.6613 17.3214 39.9419 17.4039L40.2241 16.4446ZM39.5781 16.2289C39.4599 16.1895 39.2987 16.1176 39.0996 16.018L38.6524 16.9125C38.8613 17.0169 39.0741 17.115 39.2619 17.1776L39.5781 16.2289ZM39.0996 16.018C38.9278 15.9321 38.8067 15.8419 38.7536 15.7887L38.0464 16.4958C38.1973 16.6466 38.4162 16.7944 38.6524 16.9125L39.0996 16.018ZM38.7536 15.7887C38.6742 15.7093 38.6111 15.6333 38.5582 15.5276L37.6638 15.9749C37.7809 16.2091 37.9218 16.3712 38.0464 16.4958L38.7536 15.7887ZM38.5582 15.5276C38.5165 15.4443 38.492 15.3385 38.492 15.1902H37.492C37.492 15.45 37.5355 15.7182 37.6638 15.9749L38.5582 15.5276ZM38.492 15.1902C38.492 14.8277 38.6053 14.6261 38.779 14.4956C38.9795 14.3449 39.341 14.2282 39.947 14.2282V13.2282C39.244 13.2282 38.628 13.3581 38.1782 13.6962C37.7017 14.0544 37.492 14.5838 37.492 15.1902H38.492ZM39.947 14.2282C40.6033 14.2282 41.3962 14.4876 42.3055 15.0396L42.8245 14.1849C41.8298 13.5809 40.8547 13.2282 39.947 13.2282V14.2282ZM42.987 14.8804L44.024 13.2484L43.18 12.7121L42.143 14.3441L42.987 14.8804ZM43.8903 12.5718C43.2635 12.1293 42.5799 11.8149 41.8762 11.6297L41.6218 12.5968C42.2101 12.7516 42.7845 13.0152 43.3137 13.3887L43.8903 12.5718ZM41.8732 11.6289C41.1802 11.4512 40.5426 11.3582 39.947 11.3582V12.3582C40.4394 12.3582 40.9918 12.4353 41.6248 12.5976L41.8732 11.6289ZM39.947 11.3582C39.1226 11.3582 38.393 11.4657 37.779 11.6517L38.069 12.6088C38.577 12.4548 39.2074 12.3582 39.947 12.3582V11.3582ZM37.7701 11.6545C37.1339 11.8603 36.6293 12.1531 36.252 12.5514L36.978 13.2391C37.2127 12.9914 37.5581 12.7742 38.0779 12.606L37.7701 11.6545ZM36.2434 12.5608C35.8975 12.945 35.6586 13.3398 35.4991 13.7784L36.4389 14.1201C36.5514 13.8107 36.7205 13.5255 36.9866 13.2297L36.2434 12.5608ZM35.4991 13.7784C35.3364 14.2259 35.282 14.714 35.282 15.1902H36.282C36.282 14.7825 36.3296 14.4206 36.4389 14.1201L35.4991 13.7784ZM35.282 15.1902C35.282 15.6666 35.358 16.1313 35.547 16.5514L36.459 16.1411C36.342 15.8812 36.282 15.5639 36.282 15.1902H35.282ZM35.5434 16.5432C35.7156 16.945 35.935 17.2914 36.2104 17.5668L36.9176 16.8597C36.751 16.6931 36.5964 16.4615 36.4626 16.1493L35.5434 16.5432ZM36.1966 17.5524C36.4445 17.8209 36.7781 18.0717 37.1659 18.2934L37.6621 17.4251C37.3359 17.2387 37.0915 17.0476 36.9314 16.8741L36.1966 17.5524ZM37.1659 18.2934C37.5255 18.4988 37.8781 18.6863 38.1904 18.8034L38.5416 17.8671C38.3099 17.7802 38.0165 17.6277 37.6621 17.4251L37.1659 18.2934ZM38.1904 18.8034C38.4746 18.91 38.8415 19.0321 39.2676 19.1685L39.5724 18.216C39.1485 18.0804 38.8014 17.9645 38.5416 17.8671L38.1904 18.8034ZM39.2343 19.1565C39.6044 19.3045 39.8539 19.3909 40.0605 19.4862L40.4795 18.5783C40.2441 18.4696 39.9156 18.352 39.6057 18.228L39.2343 19.1565ZM40.0605 19.4862C40.2707 19.5833 40.4917 19.694 40.7268 19.835L41.2412 18.9775C40.9663 18.8125 40.7113 18.6852 40.4795 18.5783L40.0605 19.4862ZM40.6934 19.8131C40.8937 19.9562 41.017 20.0898 41.0878 20.2213L41.9682 19.7472C41.801 19.4367 41.5503 19.1963 41.2746 18.9994L40.6934 19.8131ZM41.0878 20.2213C41.171 20.3758 41.215 20.533 41.215 20.7152H42.215C42.215 20.3535 42.123 20.0347 41.9682 19.7472L41.0878 20.2213ZM41.215 20.7152C41.215 21.025 41.1594 21.2466 41.0854 21.4193L42.0046 21.8132C42.1346 21.5098 42.215 21.1535 42.215 20.7152H41.215ZM41.0978 21.3926C41.0149 21.5584 40.9137 21.6534 40.8284 21.696L41.2756 22.5905C41.5983 22.4291 41.8371 22.1501 41.9922 21.8399L41.0978 21.3926ZM40.8425 21.6893C40.6335 21.7857 40.461 21.8482 40.3238 21.871L40.4882 22.8574C40.759 22.8123 41.0285 22.7048 41.2615 22.5972L40.8425 21.6893ZM40.3238 21.871C40.1559 21.899 39.9303 21.9152 39.658 21.9152V22.9152C39.9637 22.9152 40.2481 22.8975 40.4882 22.8574L40.3238 21.871ZM39.658 21.9152C39.2002 21.9152 38.7401 21.868 38.2601 21.772L38.0639 22.7525C38.6039 22.8605 39.1298 22.9152 39.658 22.9152V21.9152ZM38.2601 21.772C37.7814 21.6762 37.1085 21.4804 36.2264 21.192L35.9156 22.1425C36.8015 22.4321 37.5226 22.6443 38.0639 22.7525L38.2601 21.772ZM35.5927 21.5215L35.0487 23.3065L36.0053 23.598L36.5493 21.813L35.5927 21.5215ZM49.2233 12.1132V11.6132H48.8728L48.7533 11.9427L49.2233 12.1132ZM44.9053 24.0132L44.4353 23.8427L44.192 24.5132H44.9053V24.0132ZM47.2173 24.0132V24.5132H47.569L47.6879 24.1823L47.2173 24.0132ZM48.0843 21.5992V21.0992H47.7326L47.6137 21.4302L48.0843 21.5992ZM52.1133 21.5992L52.5828 21.4273L52.4627 21.0992H52.1133V21.5992ZM52.9973 24.0132L52.5278 24.1852L52.6479 24.5132H52.9973V24.0132ZM55.2923 24.0132V24.5132H56.0056L55.7623 23.8427L55.2923 24.0132ZM50.9743 12.1132L51.4443 11.9427L51.3248 11.6132H50.9743V12.1132ZM51.6373 19.9332V20.4332H52.3368L52.1104 19.7714L51.6373 19.9332ZM48.5263 19.9332L48.0538 19.7698L47.8243 20.4332H48.5263V19.9332ZM50.0903 15.4112L50.5634 15.2494L50.0929 13.8741L49.6178 15.2478L50.0903 15.4112ZM48.7533 11.9427L44.4353 23.8427L45.3753 24.1838L49.6933 12.2838L48.7533 11.9427ZM44.9053 24.5132H47.2173V23.5132H44.9053V24.5132ZM47.6879 24.1823L48.5549 21.7683L47.6137 21.4302L46.7467 23.8442L47.6879 24.1823ZM48.0843 22.0992H52.1133V21.0992H48.0843V22.0992ZM51.6438 21.7712L52.5278 24.1852L53.4668 23.8413L52.5828 21.4273L51.6438 21.7712ZM52.9973 24.5132H55.2923V23.5132H52.9973V24.5132ZM55.7623 23.8427L51.4443 11.9427L50.5043 12.2838L54.8223 24.1838L55.7623 23.8427ZM50.9743 11.6132H49.2233V12.6132H50.9743V11.6132ZM51.6373 19.4332H48.5263V20.4332H51.6373V19.4332ZM48.9988 20.0967L50.5628 15.5747L49.6178 15.2478L48.0538 19.7698L48.9988 20.0967ZM49.6172 15.5731L51.1642 20.0951L52.1104 19.7714L50.5634 15.2494L49.6172 15.5731ZM63.623 12.1132V11.6132H63.123V12.1132H63.623ZM63.623 19.6952L63.2046 19.9691L64.123 21.3718V19.6952H63.623ZM58.659 12.1132L59.0773 11.8394L58.9292 11.6132H58.659V12.1132ZM56.738 12.1132V11.6132H56.238V12.1132H56.738ZM56.738 24.0132H56.238V24.5132H56.738V24.0132ZM58.948 24.0132V24.5132H59.448V24.0132H58.948ZM58.948 16.3972L59.3655 16.1223L58.448 14.7288V16.3972H58.948ZM63.963 24.0132L63.5454 24.2882L63.6935 24.5132H63.963V24.0132ZM65.833 24.0132V24.5132H66.333V24.0132H65.833ZM65.833 12.1132H66.333V11.6132H65.833V12.1132ZM63.123 12.1132V19.6952H64.123V12.1132H63.123ZM64.0413 19.4214L59.0773 11.8394L58.2406 12.3871L63.2046 19.9691L64.0413 19.4214ZM58.659 11.6132H56.738V12.6132H58.659V11.6132ZM56.238 12.1132V24.0132H57.238V12.1132H56.238ZM56.738 24.5132H58.948V23.5132H56.738V24.5132ZM59.448 24.0132V16.3972H58.448V24.0132H59.448ZM58.5304 16.6722L63.5454 24.2882L64.3805 23.7383L59.3655 16.1223L58.5304 16.6722ZM63.963 24.5132H65.833V23.5132H63.963V24.5132ZM66.333 24.0132V12.1132H65.333V24.0132H66.333ZM65.833 11.6132H63.623V12.6132H65.833V11.6132ZM73.6393 12.1132V11.6132H73.1393V12.1132H73.6393ZM73.4523 24.1492L73.8683 24.4266L73.8766 24.4141L73.8842 24.4012L73.4523 24.1492ZM72.9083 24.6592L72.6602 24.2251L72.6489 24.2316L72.6379 24.2387L72.9083 24.6592ZM72.2793 25.0162L72.0557 24.569L72.0477 24.573L72.0398 24.5773L72.2793 25.0162ZM71.6333 25.2882L71.4651 24.8174L70.9669 24.9953L71.1726 25.4827L71.6333 25.2882ZM72.2793 26.8182L71.8186 27.0127L71.9476 27.3182H72.2793V26.8182ZM72.3983 26.7672L72.2512 26.2894L72.2117 26.3015L72.1747 26.32L72.3983 26.7672ZM72.9423 26.5972L73.1178 27.0654L72.9423 26.5972ZM73.5373 26.3422L73.3369 25.8842L73.5373 26.3422ZM74.2173 26.0022L74.4567 26.4412L74.4657 26.4363L74.4745 26.431L74.2173 26.0022ZM74.8123 25.5602L74.5074 25.1639L74.4982 25.171L74.4893 25.1786L74.8123 25.5602ZM75.3563 24.9992L74.9519 24.7052L74.9459 24.7134L74.9402 24.7219L75.3563 24.9992ZM75.6963 24.3192L75.2319 24.1335L75.2281 24.1437L75.6963 24.3192ZM75.8493 12.1132H76.3493V11.6132H75.8493V12.1132ZM73.1393 12.1132V23.5032H74.1393V12.1132H73.1393ZM73.1393 23.5032C73.1393 23.6347 73.1048 23.7526 73.0204 23.8973L73.8842 24.4012C74.0377 24.1379 74.1393 23.8477 74.1393 23.5032H73.1393ZM73.0362 23.8719C72.9394 24.0172 72.825 24.131 72.6602 24.2251L73.1563 25.0934C73.4676 24.9155 73.6931 24.6893 73.8683 24.4266L73.0362 23.8719ZM72.6379 24.2387C72.4187 24.3796 72.2141 24.4898 72.0557 24.569L72.5029 25.4635C72.6845 25.3727 72.9219 25.2449 73.1787 25.0798L72.6379 24.2387ZM72.0398 24.5773C71.8902 24.6589 71.7016 24.7329 71.4651 24.8174L71.8014 25.7591C72.041 25.6736 72.2944 25.5776 72.5187 25.4552L72.0398 24.5773ZM71.1726 25.4827L71.8186 27.0127L72.7399 26.6238L72.0939 25.0938L71.1726 25.4827ZM72.2793 27.3182C72.3589 27.3182 72.4211 27.2998 72.4479 27.2913C72.4793 27.2812 72.506 27.2698 72.5227 27.2624C72.5548 27.2481 72.5925 27.2291 72.6219 27.2145L72.1747 26.32C72.1571 26.3288 72.1442 26.3352 72.1334 26.3405C72.1224 26.3459 72.1177 26.3481 72.1166 26.3486C72.1141 26.3497 72.1249 26.3447 72.1431 26.3388C72.1529 26.3357 72.1689 26.331 72.1896 26.3269C72.2099 26.3229 72.2409 26.3182 72.2793 26.3182V27.3182ZM72.5453 27.2451C72.7406 27.185 72.9633 27.1234 73.1178 27.0654L72.7667 26.1291C72.6493 26.1731 72.498 26.2134 72.2512 26.2894L72.5453 27.2451ZM73.1178 27.0654C73.2705 27.0082 73.4793 26.9133 73.7377 26.8003L73.3369 25.8842C73.0512 26.0091 72.886 26.0843 72.7667 26.1291L73.1178 27.0654ZM73.7377 26.8003C74.0307 26.6721 74.2675 26.5444 74.4567 26.4412L73.9778 25.5633C73.793 25.6641 73.5879 25.7743 73.3369 25.8842L73.7377 26.8003ZM74.4745 26.431C74.6772 26.3094 74.9043 26.1373 75.1352 25.9419L74.4893 25.1786C74.2782 25.3572 74.0974 25.4911 73.96 25.5735L74.4745 26.431ZM75.1171 25.9566C75.3687 25.7631 75.5982 25.5378 75.7723 25.2766L74.9402 24.7219C74.8424 24.8687 74.6979 25.0174 74.5074 25.1639L75.1171 25.9566ZM75.7606 25.2933C75.936 25.0522 76.0568 24.782 76.1644 24.4948L75.2281 24.1437C75.1318 24.4005 75.0485 24.5723 74.9519 24.7052L75.7606 25.2933ZM76.1605 24.5049C76.2874 24.1878 76.3493 23.8525 76.3493 23.5032H75.3493C75.3493 23.732 75.3092 23.9407 75.232 24.1335L76.1605 24.5049ZM76.3493 23.5032V12.1132H75.3493V23.5032H76.3493ZM75.8493 11.6132H73.6393V12.6132H75.8493V11.6132ZM85.1284 12.1132V11.6132H84.6284V12.1132H85.1284ZM84.8564 21.2592L85.3115 21.4661V21.4661L84.8564 21.2592ZM84.0574 22.1092L83.8253 21.6663L83.8172 21.6706L83.8093 21.6751L84.0574 22.1092ZM80.9464 21.7692L81.307 21.423L80.9464 21.7692ZM80.3514 12.1132H80.8514V11.6132H80.3514V12.1132ZM78.1244 12.1132V11.6132H77.6244V12.1132H78.1244ZM79.3144 23.1122L79.6679 22.7587L79.6641 22.7549L79.3144 23.1122ZM86.1654 23.1122L86.5151 23.4696L86.5189 23.4658L86.1654 23.1122ZM87.3554 12.1132H87.8554V11.6132H87.3554V12.1132ZM84.6284 12.1132V19.8822H85.6284V12.1132H84.6284ZM84.6284 19.8822C84.6284 20.3635 84.5382 20.7508 84.4012 21.0523L85.3115 21.4661C85.5145 21.0197 85.6284 20.4889 85.6284 19.8822H84.6284ZM84.4012 21.0523C84.2764 21.3268 84.082 21.5319 83.8253 21.6663L84.2894 22.5522C84.7467 22.3126 85.0963 21.9396 85.3115 21.4661L84.4012 21.0523ZM83.8093 21.6751C83.5555 21.8202 83.21 21.8982 82.7314 21.8982V22.8982C83.3067 22.8982 83.8452 22.8063 84.3054 22.5434L83.8093 21.6751ZM82.7314 21.8982C82.0338 21.8982 81.5901 21.7179 81.307 21.423L80.5857 22.1155C81.1186 22.6706 81.8649 22.8982 82.7314 22.8982V21.8982ZM81.307 21.423C81.0247 21.1289 80.8514 20.6503 80.8514 19.8822H79.8514C79.8514 20.7802 80.052 21.5596 80.5857 22.1155L81.307 21.423ZM80.8514 19.8822V12.1132H79.8514V19.8822H80.8514ZM80.3514 11.6132H78.1244V12.6132H80.3514V11.6132ZM77.6244 12.1132V19.8822H78.6244V12.1132H77.6244ZM77.6244 19.8822C77.6244 21.3588 78.0471 22.5716 78.9646 23.4696L79.6641 22.7549C78.9836 22.0889 78.6244 21.1597 78.6244 19.8822H77.6244ZM78.9608 23.4658C79.8658 24.3708 81.1508 24.7852 82.7314 24.7852V23.7852C81.3199 23.7852 80.3269 23.4177 79.6679 22.7587L78.9608 23.4658ZM82.7314 24.7852C84.3136 24.7852 85.595 24.3701 86.5151 23.4696L85.8156 22.7549C85.1377 23.4184 84.1411 23.7852 82.7314 23.7852V24.7852ZM86.5189 23.4658C87.4127 22.572 87.8554 21.364 87.8554 19.8822H86.8554C86.8554 21.1545 86.482 22.0885 85.8118 22.7587L86.5189 23.4658ZM87.8554 19.8822V12.1132H86.8554V19.8822H87.8554ZM87.3554 11.6132H85.1284V12.6132H87.3554V11.6132ZM92.5534 12.1132V11.6132H92.2029L92.0834 11.9427L92.5534 12.1132ZM88.2354 24.0132L87.7654 23.8427L87.522 24.5132H88.2354V24.0132ZM90.5474 24.0132V24.5132H90.8991L91.0179 24.1823L90.5474 24.0132ZM91.4144 21.5992V21.0992H91.0627L90.9438 21.4302L91.4144 21.5992ZM95.4434 21.5992L95.9129 21.4273L95.7927 21.0992H95.4434V21.5992ZM96.3274 24.0132L95.8579 24.1852L95.978 24.5132H96.3274V24.0132ZM98.6224 24.0132V24.5132H99.3357L99.0924 23.8427L98.6224 24.0132ZM94.3044 12.1132L94.7744 11.9427L94.6548 11.6132H94.3044V12.1132ZM94.9674 19.9332V20.4332H95.6669L95.4404 19.7714L94.9674 19.9332ZM91.8564 19.9332L91.3838 19.7698L91.1544 20.4332H91.8564V19.9332ZM93.4204 15.4112L93.8934 15.2494L93.423 13.8741L92.9478 15.2478L93.4204 15.4112ZM92.0834 11.9427L87.7654 23.8427L88.7054 24.1838L93.0234 12.2838L92.0834 11.9427ZM88.2354 24.5132H90.5474V23.5132H88.2354V24.5132ZM91.0179 24.1823L91.8849 21.7683L90.9438 21.4302L90.0768 23.8442L91.0179 24.1823ZM91.4144 22.0992H95.4434V21.0992H91.4144V22.0992ZM94.9739 21.7712L95.8579 24.1852L96.7969 23.8413L95.9129 21.4273L94.9739 21.7712ZM96.3274 24.5132H98.6224V23.5132H96.3274V24.5132ZM99.0924 23.8427L94.7744 11.9427L93.8344 12.2838L98.1524 24.1838L99.0924 23.8427ZM94.3044 11.6132H92.5534V12.6132H94.3044V11.6132ZM94.9674 19.4332H91.8564V20.4332H94.9674V19.4332ZM92.3289 20.0967L93.8929 15.5747L92.9478 15.2478L91.3838 19.7698L92.3289 20.0967ZM92.9473 15.5731L94.4943 20.0951L95.4404 19.7714L93.8934 15.2494L92.9473 15.5731ZM106.953 12.1132V11.6132H106.453V12.1132H106.953ZM106.953 19.6952L106.535 19.9691L107.453 21.3718V19.6952H106.953ZM101.989 12.1132L102.407 11.8394L102.259 11.6132H101.989V12.1132ZM100.068 12.1132V11.6132H99.568V12.1132H100.068ZM100.068 24.0132H99.568V24.5132H100.068V24.0132ZM102.278 24.0132V24.5132H102.778V24.0132H102.278ZM102.278 16.3972L102.696 16.1223L101.778 14.7288V16.3972H102.278ZM107.293 24.0132L106.875 24.2882L107.024 24.5132H107.293V24.0132ZM109.163 24.0132V24.5132H109.663V24.0132H109.163ZM109.163 12.1132H109.663V11.6132H109.163V12.1132ZM106.453 12.1132V19.6952H107.453V12.1132H106.453ZM107.371 19.4214L102.407 11.8394L101.571 12.3871L106.535 19.9691L107.371 19.4214ZM101.989 11.6132H100.068V12.6132H101.989V11.6132ZM99.568 12.1132V24.0132H100.568V12.1132H99.568ZM100.068 24.5132H102.278V23.5132H100.068V24.5132ZM102.778 24.0132V16.3972H101.778V24.0132H102.778ZM101.86 16.6722L106.875 24.2882L107.711 23.7383L102.696 16.1223L101.86 16.6722ZM107.293 24.5132H109.163V23.5132H107.293V24.5132ZM109.663 24.0132V12.1132H108.663V24.0132H109.663ZM109.163 11.6132H106.953V12.6132H109.163V11.6132Z" fill="#962952"/>
<path d="M6.35542 6.02435C6.29401 6.57675 5.81806 7.84012 5.58777 8.40275C9.3339 6.19313 14.339 8.09586 16.1813 9.01654C14.2622 4.72006 10.9613 3.87042 9.04219 3.7994C6.96954 3.72269 6.43218 5.33385 6.35542 6.02435Z" fill="url(#paint0_linear_35_1580)"/>
<path d="M14.4725 2.2531C14.0978 2.6637 12.9695 3.40541 12.4522 3.72493C16.781 4.14184 19.7073 8.6251 20.6549 10.4535C21.632 5.84989 19.4636 3.22085 17.954 2.03439C16.3236 0.753 14.941 1.73984 14.4725 2.2531Z" fill="url(#paint1_linear_35_1580)"/>
<path d="M23.2653 3.94733C22.7227 4.069 21.3726 4.03021 20.7653 3.99561C24.0746 6.81713 23.9027 12.1663 23.631 14.207C27.0717 10.9955 26.8016 7.59952 26.2445 5.76269C25.6428 3.77891 23.9436 3.79523 23.2653 3.94733Z" fill="url(#paint2_linear_35_1580)"/>
<path d="M29.523 10.5157C29.0232 10.2721 27.993 9.39899 27.5403 8.99291C28.3617 13.2622 24.8847 17.3325 23.3973 18.7566C28.0912 18.3962 30.0025 15.5754 30.7152 13.7931C31.4849 11.8682 30.1477 10.8203 29.523 10.5157Z" fill="url(#paint3_linear_35_1580)"/>
<path d="M30.4962 19.1768C30.221 18.6938 29.863 17.3922 29.7184 16.8017C27.9874 20.7901 22.8192 22.1912 20.7873 22.5287C24.8667 24.8771 28.0368 23.6252 29.6312 22.5552C31.3531 21.3996 30.8402 19.7805 30.4962 19.1768Z" fill="url(#paint4_linear_35_1580)"/>
<path d="M26.0196 26.8708C26.0841 26.3188 26.567 25.0581 26.8005 24.4967C23.0421 26.6855 18.0477 24.7549 16.2105 23.824C18.1056 28.131 21.4017 28.9991 23.3204 29.0808C25.3926 29.169 25.939 27.5609 26.0196 26.8708Z" fill="url(#paint5_linear_35_1580)"/>
<path d="M17.9923 30.7463C18.3665 30.3351 19.4939 29.5917 20.0108 29.2713C15.6803 28.862 12.7462 24.3849 11.7956 22.5585C10.8254 27.1627 12.9984 29.7873 14.5103 30.9709C16.1431 32.2492 17.5245 31.2602 17.9923 30.7463Z" fill="url(#paint6_linear_35_1580)"/>
<path d="M9.29781 28.9992C9.8404 28.8773 11.1905 28.9157 11.7978 28.9501C8.48761 26.1296 8.65784 20.7804 8.9289 18.7396C5.48927 21.9522 5.76035 25.3481 6.31808 27.1847C6.92042 29.1683 8.61959 29.1515 9.29781 28.9992Z" fill="url(#paint7_linear_35_1580)"/>
<path d="M3.18531 22.4976C3.69209 22.7265 4.74761 23.5688 5.21201 23.9613C4.26502 19.7181 7.62033 15.5471 9.06507 14.0797C4.38381 14.5784 2.55662 17.4543 1.89683 19.2568C1.18426 21.2036 2.55182 22.2116 3.18531 22.4976Z" fill="url(#paint8_linear_35_1580)"/>
<path d="M1.94309 13.8407C2.22258 14.3212 2.59213 15.6197 2.74197 16.2088C4.4375 12.2052 9.593 10.7583 11.6219 10.4027C7.52168 8.09066 4.36281 9.37063 2.77805 10.4547C1.0665 11.6256 1.59373 13.2401 1.94309 13.8407Z" fill="url(#paint9_linear_35_1580)"/>
<path d="M140.593 2.79945L139.399 5.06145L138.211 2.79945H137.515L137.365 6.99945H138.139L138.235 4.45545L139.135 6.14745H139.675L140.569 4.45545L140.659 6.99945H141.439L141.289 2.79945H140.593ZM142.226 2.79945V6.99945H143.012V2.79945H142.226ZM146.244 2.79945V5.47545L144.492 2.79945H143.814V6.99945H144.594V4.31145L146.364 6.99945H147.024V2.79945H146.244ZM147.83 2.79945V6.99945H148.616V2.79945H147.83ZM149.256 6.80145C149.82 6.99945 150.306 7.09545 150.714 7.09545C150.81 7.09545 150.888 7.09545 150.954 7.08945C151.02 7.08945 151.104 7.08345 151.2 7.07145C151.296 7.05945 151.386 7.04145 151.458 7.01745C151.53 6.99345 151.608 6.96345 151.692 6.92745C151.776 6.89145 151.842 6.83745 151.902 6.77145C151.962 6.71145 152.016 6.63345 152.064 6.54945C152.112 6.46545 152.154 6.36345 152.178 6.24345C152.202 6.12345 152.22 5.98545 152.22 5.83545C152.22 5.71545 152.202 5.60745 152.172 5.49945C152.142 5.39745 152.106 5.30745 152.07 5.22945C152.028 5.15745 151.968 5.08545 151.89 5.01345C151.806 4.94145 151.74 4.88745 151.68 4.84545C151.62 4.80945 151.53 4.76145 151.416 4.71345C151.302 4.66545 151.212 4.62345 151.152 4.59945C151.086 4.57545 150.99 4.54545 150.864 4.49745C150.762 4.46745 150.684 4.44345 150.63 4.41945C150.576 4.40145 150.51 4.37145 150.438 4.33545C150.366 4.29945 150.306 4.25745 150.27 4.22145C150.234 4.18545 150.198 4.14345 150.168 4.08345C150.138 4.02345 150.126 3.95745 150.126 3.88545C150.126 3.54345 150.354 3.36945 150.816 3.36945C151.092 3.36945 151.404 3.47745 151.74 3.68145L152.106 3.10545C151.902 2.96145 151.68 2.85945 151.452 2.79945C151.218 2.73945 151.008 2.70945 150.816 2.70945C150.54 2.70945 150.3 2.74545 150.102 2.80545C149.898 2.87145 149.748 2.96145 149.64 3.07545C149.532 3.19545 149.46 3.31545 149.412 3.44745C149.364 3.57945 149.346 3.72945 149.346 3.88545C149.346 4.03545 149.37 4.17345 149.424 4.29345C149.478 4.41945 149.544 4.52145 149.622 4.59945C149.694 4.67745 149.796 4.75545 149.922 4.82745C150.048 4.89945 150.162 4.95945 150.258 4.99545C150.354 5.03145 150.48 5.07345 150.63 5.12145C150.75 5.16945 150.852 5.20545 150.93 5.24145C151.008 5.27745 151.092 5.31945 151.182 5.37345C151.266 5.43345 151.332 5.49945 151.374 5.57745C151.416 5.65545 151.44 5.73945 151.44 5.83545C151.44 5.96745 151.416 6.06945 151.38 6.15345C151.338 6.23745 151.278 6.30345 151.206 6.33945C151.128 6.37545 151.05 6.40545 150.978 6.41745C150.906 6.42945 150.816 6.43545 150.714 6.43545C150.54 6.43545 150.366 6.41745 150.186 6.38145C150.006 6.34545 149.76 6.27345 149.448 6.17145L149.256 6.80145ZM152.626 2.79945V3.45945H153.79V6.99945H154.57V3.45945H155.722V2.79945H152.626ZM156.342 2.79945V6.99945H159.18V6.33945H157.128V5.16345H158.946V4.50345H157.128V3.45945H159.126V2.79945H156.342ZM159.842 2.79945V6.99945H160.628V5.46345H161.324L162.284 6.99945H163.16L162.116 5.35545C162.404 5.28345 162.62 5.13345 162.764 4.91745C162.908 4.70145 162.986 4.44345 162.986 4.13145C162.986 3.73545 162.872 3.41145 162.644 3.16545C162.416 2.92545 162.074 2.79945 161.624 2.79945H159.842ZM160.628 4.80345V3.45945H161.624C161.816 3.45945 161.966 3.51945 162.062 3.63945C162.158 3.75945 162.206 3.92145 162.206 4.13145C162.206 4.34745 162.158 4.50945 162.062 4.62945C161.966 4.74945 161.816 4.80345 161.624 4.80345H160.628ZM163.845 2.79945V6.99945H164.631V2.79945H163.845ZM165.343 5.62545C165.343 5.91345 165.415 6.17145 165.571 6.39945C165.727 6.62745 165.925 6.79545 166.171 6.91545C166.417 7.03545 166.687 7.08945 166.981 7.08945C167.269 7.08945 167.539 7.03545 167.791 6.91545C168.037 6.79545 168.235 6.62745 168.391 6.39945C168.547 6.17145 168.625 5.91345 168.625 5.62545V4.14945C168.625 3.93345 168.577 3.73545 168.487 3.54945C168.397 3.36945 168.277 3.21345 168.127 3.09345C167.971 2.97345 167.797 2.87745 167.599 2.81145C167.401 2.74545 167.197 2.70945 166.981 2.70945C166.693 2.70945 166.423 2.76945 166.177 2.88345C165.931 2.99745 165.733 3.16545 165.577 3.38745C165.421 3.60945 165.343 3.86145 165.343 4.14945V5.62545ZM167.845 5.62545C167.845 5.87745 167.761 6.06945 167.593 6.21345C167.425 6.35745 167.221 6.42945 166.981 6.42945C166.741 6.42945 166.537 6.35745 166.369 6.21345C166.201 6.06945 166.123 5.87745 166.123 5.62545V4.14945C166.123 3.90945 166.201 3.71745 166.369 3.57945C166.531 3.44145 166.735 3.36945 166.981 3.36945C167.221 3.36945 167.425 3.44145 167.593 3.57945C167.761 3.71745 167.845 3.90945 167.845 4.14945V5.62545ZM171.197 2.79945V6.99945H172.745C173.033 6.99945 173.303 6.94545 173.555 6.82545C173.801 6.70545 173.999 6.53745 174.155 6.30945C174.305 6.08745 174.383 5.82945 174.383 5.54145V4.23945C174.383 3.95145 174.305 3.69945 174.149 3.47745C173.993 3.25545 173.795 3.08745 173.549 2.97345C173.297 2.85945 173.033 2.79945 172.745 2.79945H171.197ZM173.603 5.54145C173.603 5.79345 173.519 5.98545 173.351 6.12945C173.183 6.27345 172.985 6.33945 172.745 6.33945H171.977V3.45945H172.745C172.901 3.45945 173.039 3.48945 173.171 3.54945C173.297 3.60945 173.399 3.69345 173.483 3.81345C173.561 3.93345 173.603 4.07745 173.603 4.23945V5.54145ZM175.101 2.79945V6.99945H177.939V6.33945H175.887V5.16345H177.705V4.50345H175.887V3.45945H177.885V2.79945H175.101Z" fill="#90234C"/>
<path d="M137.647 9.59609V17.9961H139.747V15.3081H141.307C142.255 15.3081 142.975 15.0441 143.467 14.5161C143.947 13.9881 144.199 13.3041 144.199 12.4641C144.199 11.9121 144.091 11.4201 143.899 11.0001C143.695 10.5801 143.371 10.2441 142.927 9.98009C142.483 9.72809 141.943 9.59609 141.307 9.59609H137.647ZM139.747 13.5561V11.3481H141.307C141.835 11.3481 142.099 11.7201 142.099 12.4641C142.099 12.8121 142.027 13.0761 141.895 13.2681C141.763 13.4601 141.571 13.5561 141.307 13.5561H139.747ZM144.837 9.59609V17.9961H146.937V15.1161H147.753L149.553 17.9961H151.893L149.865 14.8041C150.357 14.5881 150.729 14.2761 150.993 13.8441C151.257 13.4121 151.389 12.9201 151.389 12.3561C151.389 11.5401 151.137 10.8801 150.657 10.3641C150.165 9.86009 149.445 9.59609 148.497 9.59609H144.837ZM146.937 13.3641V11.3481H148.497C149.025 11.3481 149.289 11.6841 149.289 12.3561C149.289 13.0281 149.025 13.3641 148.497 13.3641H146.937ZM152.22 15.1641C152.22 15.7521 152.376 16.2801 152.7 16.7361C153.012 17.2041 153.432 17.5641 153.948 17.8041C154.452 18.0441 155.016 18.1641 155.616 18.1641C156.216 18.1641 156.768 18.0441 157.284 17.8041C157.8 17.5641 158.22 17.2041 158.544 16.7361C158.856 16.2801 159.024 15.7521 159.024 15.1641V12.3921C159.024 11.8041 158.856 11.2761 158.544 10.8201C158.22 10.3641 157.8 10.0161 157.284 9.77609C156.768 9.53609 156.216 9.41609 155.616 9.41609C155.016 9.41609 154.464 9.53609 153.96 9.77609C153.444 10.0161 153.024 10.3761 152.7 10.8321C152.376 11.2881 152.22 11.8161 152.22 12.3921V15.1641ZM156.936 15.1641C156.936 15.5601 156.804 15.8721 156.552 16.0881C156.288 16.3041 155.976 16.4121 155.616 16.4121C155.436 16.4121 155.268 16.3881 155.112 16.3401C154.944 16.2921 154.812 16.2081 154.692 16.1001C154.572 16.0041 154.476 15.8721 154.404 15.7041C154.332 15.5481 154.308 15.3681 154.308 15.1641V12.3921C154.308 12.0081 154.428 11.7201 154.68 11.5041C154.92 11.2881 155.232 11.1801 155.616 11.1801C155.988 11.1801 156.3 11.2881 156.552 11.5041C156.804 11.7201 156.936 12.0081 156.936 12.3921V15.1641ZM159.708 9.59609V17.9961H162.936C163.536 17.9961 164.088 17.8761 164.604 17.6361C165.108 17.3961 165.528 17.0361 165.852 16.5681C166.164 16.1121 166.332 15.5841 166.332 15.0081V12.5601C166.332 11.9841 166.164 11.4561 165.84 11.0001C165.516 10.5441 165.096 10.1961 164.592 9.95609C164.076 9.71609 163.524 9.59609 162.936 9.59609H159.708ZM164.244 15.0081C164.244 15.3921 164.112 15.7041 163.86 15.9201C163.608 16.1361 163.296 16.2441 162.936 16.2441H161.796V11.3481H162.936C163.308 11.3481 163.62 11.4561 163.872 11.6721C164.112 11.8881 164.244 12.1761 164.244 12.5601V15.0081ZM171.659 9.59609V15.0081C171.659 15.9561 171.227 16.4241 170.375 16.4241C169.523 16.4241 169.103 15.9561 169.103 15.0081V9.59609H167.003V15.0081C167.003 15.9921 167.291 16.7601 167.879 17.3241C168.455 17.9001 169.295 18.1761 170.375 18.1761C171.455 18.1761 172.295 17.9001 172.883 17.3241C173.459 16.7601 173.759 15.9921 173.759 15.0081V9.59609H171.659ZM179.966 15.6801C179.102 16.1721 178.394 16.4121 177.818 16.4121C177.674 16.4121 177.53 16.4001 177.41 16.3641C177.29 16.3401 177.182 16.2801 177.098 16.2081C177.002 16.1361 176.93 16.0641 176.858 15.9681C176.786 15.8721 176.738 15.7641 176.69 15.6321C176.642 15.5001 176.606 15.3681 176.582 15.2361C176.558 15.1161 176.534 14.9601 176.522 14.7921C176.498 14.6241 176.486 14.4561 176.486 14.3121C176.486 14.1681 176.486 13.9881 176.486 13.7841C176.486 13.4721 176.486 13.1961 176.51 12.9681C176.522 12.7521 176.558 12.5121 176.606 12.2721C176.654 12.0321 176.726 11.8281 176.822 11.6841C176.918 11.5401 177.05 11.4201 177.218 11.3241C177.386 11.2281 177.578 11.1801 177.818 11.1801C178.394 11.1801 179.102 11.4321 179.966 11.9121L180.626 10.1961C180.23 9.96809 179.798 9.78809 179.318 9.65609C178.838 9.53609 178.502 9.46409 178.31 9.44009C178.118 9.42809 177.962 9.41609 177.818 9.41609C177.386 9.41609 176.99 9.46409 176.654 9.54809C176.306 9.64409 176.018 9.75209 175.778 9.89609C175.538 10.0401 175.322 10.2201 175.154 10.4361C174.986 10.6641 174.842 10.8921 174.746 11.1321C174.65 11.3721 174.566 11.6481 174.518 11.9601C174.458 12.2721 174.422 12.5721 174.41 12.8481C174.386 13.1241 174.386 13.4361 174.386 13.7961C174.386 14.1561 174.386 14.4681 174.41 14.7441C174.422 15.0201 174.458 15.3201 174.518 15.6321C174.566 15.9441 174.65 16.2201 174.746 16.4601C174.842 16.7001 174.986 16.9281 175.154 17.1441C175.322 17.3721 175.538 17.5521 175.778 17.6961C176.018 17.8401 176.306 17.9481 176.654 18.0321C176.99 18.1281 177.386 18.1641 177.818 18.1641C177.866 18.1641 177.914 18.1641 177.974 18.1641C178.034 18.1641 178.142 18.1521 178.286 18.1401C178.43 18.1281 178.598 18.1041 178.766 18.0681C178.934 18.0441 179.114 17.9961 179.318 17.9481C179.522 17.9001 179.738 17.8161 179.966 17.7201C180.194 17.6241 180.41 17.5161 180.626 17.3961L179.966 15.6801ZM186.558 15.6801C185.694 16.1721 184.986 16.4121 184.41 16.4121C184.266 16.4121 184.122 16.4001 184.002 16.3641C183.882 16.3401 183.774 16.2801 183.69 16.2081C183.594 16.1361 183.522 16.0641 183.45 15.9681C183.378 15.8721 183.33 15.7641 183.282 15.6321C183.234 15.5001 183.198 15.3681 183.174 15.2361C183.15 15.1161 183.126 14.9601 183.114 14.7921C183.09 14.6241 183.078 14.4561 183.078 14.3121C183.078 14.1681 183.078 13.9881 183.078 13.7841C183.078 13.4721 183.078 13.1961 183.102 12.9681C183.114 12.7521 183.15 12.5121 183.198 12.2721C183.246 12.0321 183.318 11.8281 183.414 11.6841C183.51 11.5401 183.642 11.4201 183.81 11.3241C183.978 11.2281 184.17 11.1801 184.41 11.1801C184.986 11.1801 185.694 11.4321 186.558 11.9121L187.218 10.1961C186.822 9.96809 186.39 9.78809 185.91 9.65609C185.43 9.53609 185.094 9.46409 184.902 9.44009C184.71 9.42809 184.554 9.41609 184.41 9.41609C183.978 9.41609 183.582 9.46409 183.246 9.54809C182.898 9.64409 182.61 9.75209 182.37 9.89609C182.13 10.0401 181.914 10.2201 181.746 10.4361C181.578 10.6641 181.434 10.8921 181.338 11.1321C181.242 11.3721 181.158 11.6481 181.11 11.9601C181.05 12.2721 181.014 12.5721 181.002 12.8481C180.978 13.1241 180.978 13.4361 180.978 13.7961C180.978 14.1561 180.978 14.4681 181.002 14.7441C181.014 15.0201 181.05 15.3201 181.11 15.6321C181.158 15.9441 181.242 16.2201 181.338 16.4601C181.434 16.7001 181.578 16.9281 181.746 17.1441C181.914 17.3721 182.13 17.5521 182.37 17.6961C182.61 17.8401 182.898 17.9481 183.246 18.0321C183.582 18.1281 183.978 18.1641 184.41 18.1641C184.458 18.1641 184.506 18.1641 184.566 18.1641C184.626 18.1641 184.734 18.1521 184.878 18.1401C185.022 18.1281 185.19 18.1041 185.358 18.0681C185.526 18.0441 185.706 17.9961 185.91 17.9481C186.114 17.9001 186.33 17.8161 186.558 17.7201C186.786 17.6241 187.002 17.5161 187.218 17.3961L186.558 15.6801ZM187.834 9.59609V17.9961H189.934V9.59609H187.834ZM193.767 6.69209L192.471 8.33609H193.947L195.579 6.69209H193.767ZM190.623 15.1641C190.623 15.7521 190.779 16.2801 191.103 16.7361C191.415 17.2041 191.835 17.5641 192.351 17.8041C192.855 18.0441 193.419 18.1641 194.019 18.1641C194.619 18.1641 195.171 18.0441 195.687 17.8041C196.203 17.5641 196.623 17.2041 196.947 16.7361C197.259 16.2801 197.427 15.7521 197.427 15.1641V12.3921C197.427 11.8041 197.259 11.2761 196.947 10.8201C196.623 10.3641 196.203 10.0161 195.687 9.77609C195.171 9.53609 194.619 9.41609 194.019 9.41609C193.419 9.41609 192.867 9.53609 192.363 9.77609C191.847 10.0161 191.427 10.3761 191.103 10.8321C190.779 11.2881 190.623 11.8161 190.623 12.3921V15.1641ZM195.339 15.1641C195.339 15.5601 195.207 15.8721 194.955 16.0881C194.691 16.3041 194.379 16.4121 194.019 16.4121C193.839 16.4121 193.671 16.3881 193.515 16.3401C193.347 16.2921 193.215 16.2081 193.095 16.1001C192.975 16.0041 192.879 15.8721 192.807 15.7041C192.735 15.5481 192.711 15.3681 192.711 15.1641V12.3921C192.711 12.0081 192.831 11.7201 193.083 11.5041C193.323 11.2881 193.635 11.1801 194.019 11.1801C194.391 11.1801 194.703 11.2881 194.955 11.5041C195.207 11.7201 195.339 12.0081 195.339 12.3921V15.1641ZM202.612 9.59609V13.8681L199.804 9.59609H198.028V17.9961H200.116V13.6881L202.96 17.9961H204.688V9.59609H202.612Z" fill="#90234C"/>
<path d="M140.662 20.6901L139.294 22.9761L137.917 20.6901H136.144L138.502 24.5961V26.9901H140.077V24.5871L142.435 20.6901H140.662ZM145.002 20.6901V26.9901H147.423C147.873 26.9901 148.287 26.9001 148.674 26.7201C149.052 26.5401 149.367 26.2701 149.61 25.9191C149.844 25.5771 149.97 25.1811 149.97 24.7491V22.9131C149.97 22.4811 149.844 22.0851 149.601 21.7431C149.358 21.4011 149.043 21.1401 148.665 20.9601C148.278 20.7801 147.864 20.6901 147.423 20.6901H145.002ZM148.404 24.7491C148.404 25.0371 148.305 25.2711 148.116 25.4331C147.927 25.5951 147.693 25.6761 147.423 25.6761H146.568V22.0041H147.423C147.702 22.0041 147.936 22.0851 148.125 22.2471C148.305 22.4091 148.404 22.6251 148.404 22.9131V24.7491ZM150.303 20.6901V26.9901H154.776V25.6761H151.878V24.4071H154.434V23.0931H151.878V22.0041H154.695V20.6901H150.303ZM154.823 26.6391C155.768 26.9631 156.542 27.1251 157.136 27.1251C157.298 27.1251 157.442 27.1251 157.559 27.1161C157.676 27.1161 157.82 27.0981 158 27.0711C158.18 27.0441 158.324 27.0081 158.45 26.9541C158.576 26.9001 158.702 26.8281 158.846 26.7291C158.99 26.6391 159.098 26.5221 159.188 26.3871C159.278 26.2521 159.35 26.0811 159.404 25.8651C159.458 25.6581 159.494 25.4241 159.494 25.1631C159.494 25.0191 159.476 24.8751 159.449 24.7401C159.413 24.6141 159.377 24.4971 159.341 24.3891C159.305 24.2901 159.242 24.1911 159.17 24.1011C159.098 24.0111 159.026 23.9301 158.963 23.8581C158.9 23.7951 158.81 23.7231 158.693 23.6511C158.576 23.5791 158.477 23.5251 158.405 23.4891C158.333 23.4531 158.225 23.3991 158.081 23.3451C157.937 23.2911 157.829 23.2461 157.757 23.2191C157.685 23.1921 157.568 23.1471 157.415 23.0931C157.262 23.0481 157.145 23.0121 157.064 22.9761C156.983 22.9401 156.893 22.8951 156.803 22.8411C156.704 22.7871 156.632 22.7331 156.596 22.6611C156.551 22.5891 156.533 22.5081 156.533 22.4181C156.533 22.0581 156.776 21.8781 157.28 21.8781C157.604 21.8781 158.054 22.0581 158.621 22.4181L159.359 21.2751C158.999 21.0051 158.639 20.8251 158.27 20.7171C157.892 20.6091 157.568 20.5551 157.28 20.5551C156.848 20.5551 156.47 20.6091 156.155 20.7171C155.84 20.8251 155.597 20.9691 155.435 21.1491C155.273 21.3291 155.147 21.5271 155.075 21.7341C155.003 21.9411 154.967 22.1661 154.967 22.4181C154.967 22.6431 155.003 22.8501 155.093 23.0391C155.174 23.2371 155.273 23.3901 155.399 23.5161C155.516 23.6421 155.669 23.7591 155.867 23.8671C156.056 23.9841 156.227 24.0741 156.38 24.1371C156.533 24.2001 156.722 24.2631 156.938 24.3351C157.244 24.4431 157.487 24.5601 157.667 24.6861C157.838 24.8121 157.928 24.9651 157.928 25.1631C157.928 25.2891 157.901 25.3971 157.865 25.4871C157.82 25.5771 157.757 25.6491 157.685 25.6941C157.604 25.7391 157.523 25.7661 157.433 25.7841C157.343 25.8021 157.244 25.8111 157.136 25.8111C156.902 25.8111 156.659 25.7841 156.389 25.7211C156.119 25.6671 155.732 25.5501 155.21 25.3791L154.823 26.6391ZM161.776 20.6901L159.472 26.9901H161.11L161.515 25.8561H163.225L163.648 26.9901H165.277L162.973 20.6901H161.776ZM162.91 24.6951H161.821L162.37 23.0481L162.91 24.6951ZM165.5 20.6901V26.9901H167.075V24.8301H167.687L169.037 26.9901H170.792L169.271 24.5961C169.64 24.4341 169.919 24.2001 170.117 23.8761C170.315 23.5521 170.414 23.1831 170.414 22.7601C170.414 22.1481 170.225 21.6531 169.865 21.2661C169.496 20.8881 168.956 20.6901 168.245 20.6901H165.5ZM167.075 23.5161V22.0041H168.245C168.641 22.0041 168.839 22.2561 168.839 22.7601C168.839 23.2641 168.641 23.5161 168.245 23.5161H167.075ZM171.055 20.6901V26.9901H172.63V24.8301H173.242L174.592 26.9901H176.347L174.826 24.5961C175.195 24.4341 175.474 24.2001 175.672 23.8761C175.87 23.5521 175.969 23.1831 175.969 22.7601C175.969 22.1481 175.78 21.6531 175.42 21.2661C175.051 20.8881 174.511 20.6901 173.8 20.6901H171.055ZM172.63 23.5161V22.0041H173.8C174.196 22.0041 174.394 22.2561 174.394 22.7601C174.394 23.2641 174.196 23.5161 173.8 23.5161H172.63ZM176.412 24.8661C176.412 25.3071 176.529 25.7031 176.772 26.0451C177.006 26.3961 177.321 26.6661 177.708 26.8461C178.086 27.0261 178.509 27.1161 178.959 27.1161C179.409 27.1161 179.823 27.0261 180.21 26.8461C180.597 26.6661 180.912 26.3961 181.155 26.0451C181.389 25.7031 181.515 25.3071 181.515 24.8661V22.7871C181.515 22.3461 181.389 21.9501 181.155 21.6081C180.912 21.2661 180.597 21.0051 180.21 20.8251C179.823 20.6451 179.409 20.5551 178.959 20.5551C178.509 20.5551 178.095 20.6451 177.717 20.8251C177.33 21.0051 177.015 21.2751 176.772 21.6171C176.529 21.9591 176.412 22.3551 176.412 22.7871V24.8661ZM179.949 24.8661C179.949 25.1631 179.85 25.3971 179.661 25.5591C179.463 25.7211 179.229 25.8021 178.959 25.8021C178.824 25.8021 178.698 25.7841 178.581 25.7481C178.455 25.7121 178.356 25.6491 178.266 25.5681C178.176 25.4961 178.104 25.3971 178.05 25.2711C177.996 25.1541 177.978 25.0191 177.978 24.8661V22.7871C177.978 22.4991 178.068 22.2831 178.257 22.1211C178.437 21.9591 178.671 21.8781 178.959 21.8781C179.238 21.8781 179.472 21.9591 179.661 22.1211C179.85 22.2831 179.949 22.4991 179.949 22.7871V24.8661ZM181.849 20.6901V26.9901H186.088V25.6761H183.424V20.6901H181.849ZM186.314 20.6901V26.9901H190.553V25.6761H187.889V20.6901H186.314ZM190.52 24.8661C190.52 25.3071 190.637 25.7031 190.88 26.0451C191.114 26.3961 191.429 26.6661 191.816 26.8461C192.194 27.0261 192.617 27.1161 193.067 27.1161C193.517 27.1161 193.931 27.0261 194.318 26.8461C194.705 26.6661 195.02 26.3961 195.263 26.0451C195.497 25.7031 195.623 25.3071 195.623 24.8661V22.7871C195.623 22.3461 195.497 21.9501 195.263 21.6081C195.02 21.2661 194.705 21.0051 194.318 20.8251C193.931 20.6451 193.517 20.5551 193.067 20.5551C192.617 20.5551 192.203 20.6451 191.825 20.8251C191.438 21.0051 191.123 21.2751 190.88 21.6171C190.637 21.9591 190.52 22.3551 190.52 22.7871V24.8661ZM194.057 24.8661C194.057 25.1631 193.958 25.3971 193.769 25.5591C193.571 25.7211 193.337 25.8021 193.067 25.8021C192.932 25.8021 192.806 25.7841 192.689 25.7481C192.563 25.7121 192.464 25.6491 192.374 25.5681C192.284 25.4961 192.212 25.3971 192.158 25.2711C192.104 25.1541 192.086 25.0191 192.086 24.8661V22.7871C192.086 22.4991 192.176 22.2831 192.365 22.1211C192.545 21.9591 192.779 21.8781 193.067 21.8781C193.346 21.8781 193.58 21.9591 193.769 22.1211C193.958 22.2831 194.057 22.4991 194.057 22.7871V24.8661ZM198.294 20.6901V26.9901H202.767V25.6761H199.869V24.4071H202.425V23.0931H199.869V22.0041H202.686V20.6901H198.294ZM207.063 25.2531C206.415 25.6221 205.884 25.8021 205.452 25.8021C205.344 25.8021 205.236 25.7931 205.146 25.7661C205.056 25.7481 204.975 25.7031 204.912 25.6491C204.84 25.5951 204.786 25.5411 204.732 25.4691C204.678 25.3971 204.642 25.3161 204.606 25.2171C204.57 25.1181 204.543 25.0191 204.525 24.9201C204.507 24.8301 204.489 24.7131 204.48 24.5871C204.462 24.4611 204.453 24.3351 204.453 24.2271C204.453 24.1191 204.453 23.9841 204.453 23.8311C204.453 23.5971 204.453 23.3901 204.471 23.2191C204.48 23.0571 204.507 22.8771 204.543 22.6971C204.579 22.5171 204.633 22.3641 204.705 22.2561C204.777 22.1481 204.876 22.0581 205.002 21.9861C205.128 21.9141 205.272 21.8781 205.452 21.8781C205.884 21.8781 206.415 22.0671 207.063 22.4271L207.558 21.1401C207.261 20.9691 206.937 20.8341 206.577 20.7351C206.217 20.6451 205.965 20.5911 205.821 20.5731C205.677 20.5641 205.56 20.5551 205.452 20.5551C205.128 20.5551 204.831 20.5911 204.579 20.6541C204.318 20.7261 204.102 20.8071 203.922 20.9151C203.742 21.0231 203.58 21.1581 203.454 21.3201C203.328 21.4911 203.22 21.6621 203.148 21.8421C203.076 22.0221 203.013 22.2291 202.977 22.4631C202.932 22.6971 202.905 22.9221 202.896 23.1291C202.878 23.3361 202.878 23.5701 202.878 23.8401C202.878 24.1101 202.878 24.3441 202.896 24.5511C202.905 24.7581 202.932 24.9831 202.977 25.2171C203.013 25.4511 203.076 25.6581 203.148 25.8381C203.22 26.0181 203.328 26.1891 203.454 26.3511C203.58 26.5221 203.742 26.6571 203.922 26.7651C204.102 26.8731 204.318 26.9541 204.579 27.0171C204.831 27.0891 205.128 27.1161 205.452 27.1161C205.488 27.1161 205.524 27.1161 205.569 27.1161C205.614 27.1161 205.695 27.1071 205.803 27.0981C205.911 27.0891 206.037 27.0711 206.163 27.0441C206.289 27.0261 206.424 26.9901 206.577 26.9541C206.73 26.9181 206.892 26.8551 207.063 26.7831C207.234 26.7111 207.396 26.6301 207.558 26.5401L207.063 25.2531ZM207.642 24.8661C207.642 25.3071 207.759 25.7031 208.002 26.0451C208.236 26.3961 208.551 26.6661 208.938 26.8461C209.316 27.0261 209.739 27.1161 210.189 27.1161C210.639 27.1161 211.053 27.0261 211.44 26.8461C211.827 26.6661 212.142 26.3961 212.385 26.0451C212.619 25.7031 212.745 25.3071 212.745 24.8661V22.7871C212.745 22.3461 212.619 21.9501 212.385 21.6081C212.142 21.2661 211.827 21.0051 211.44 20.8251C211.053 20.6451 210.639 20.5551 210.189 20.5551C209.739 20.5551 209.325 20.6451 208.947 20.8251C208.56 21.0051 208.245 21.2751 208.002 21.6171C207.759 21.9591 207.642 22.3551 207.642 22.7871V24.8661ZM211.179 24.8661C211.179 25.1631 211.08 25.3971 210.891 25.5591C210.693 25.7211 210.459 25.8021 210.189 25.8021C210.054 25.8021 209.928 25.7841 209.811 25.7481C209.685 25.7121 209.586 25.6491 209.496 25.5681C209.406 25.4961 209.334 25.3971 209.28 25.2711C209.226 25.1541 209.208 25.0191 209.208 24.8661V22.7871C209.208 22.4991 209.298 22.2831 209.487 22.1211C209.667 21.9591 209.901 21.8781 210.189 21.8781C210.468 21.8781 210.702 21.9591 210.891 22.1211C211.08 22.2831 211.179 22.4991 211.179 22.7871V24.8661ZM216.454 20.6901V23.8941L214.348 20.6901H213.016V26.9901H214.582V23.7591L216.715 26.9901H218.011V20.6901H216.454ZM220.644 18.5121L219.672 19.7451H220.779L222.003 18.5121H220.644ZM218.286 24.8661C218.286 25.3071 218.403 25.7031 218.646 26.0451C218.88 26.3961 219.195 26.6661 219.582 26.8461C219.96 27.0261 220.383 27.1161 220.833 27.1161C221.283 27.1161 221.697 27.0261 222.084 26.8461C222.471 26.6661 222.786 26.3961 223.029 26.0451C223.263 25.7031 223.389 25.3071 223.389 24.8661V22.7871C223.389 22.3461 223.263 21.9501 223.029 21.6081C222.786 21.2661 222.471 21.0051 222.084 20.8251C221.697 20.6451 221.283 20.5551 220.833 20.5551C220.383 20.5551 219.969 20.6451 219.591 20.8251C219.204 21.0051 218.889 21.2751 218.646 21.6171C218.403 21.9591 218.286 22.3551 218.286 22.7871V24.8661ZM221.823 24.8661C221.823 25.1631 221.724 25.3971 221.535 25.5591C221.337 25.7211 221.103 25.8021 220.833 25.8021C220.698 25.8021 220.572 25.7841 220.455 25.7481C220.329 25.7121 220.23 25.6491 220.14 25.5681C220.05 25.4961 219.978 25.3971 219.924 25.2711C219.87 25.1541 219.852 25.0191 219.852 24.8661V22.7871C219.852 22.4991 219.942 22.2831 220.131 22.1211C220.311 21.9591 220.545 21.8781 220.833 21.8781C221.112 21.8781 221.346 21.9591 221.535 22.1211C221.724 22.2831 221.823 22.4991 221.823 22.7871V24.8661ZM228.25 20.6901L226.72 23.5881L225.208 20.6901H223.84L223.615 26.9901H225.172L225.28 24.0561L226.207 25.7931H227.26L228.169 24.0651L228.277 26.9901H229.843L229.609 20.6901H228.25ZM230.28 20.6901V26.9901H231.855V20.6901H230.28ZM236.377 25.2531C235.729 25.6221 235.198 25.8021 234.766 25.8021C234.658 25.8021 234.55 25.7931 234.46 25.7661C234.37 25.7481 234.289 25.7031 234.226 25.6491C234.154 25.5951 234.1 25.5411 234.046 25.4691C233.992 25.3971 233.956 25.3161 233.92 25.2171C233.884 25.1181 233.857 25.0191 233.839 24.9201C233.821 24.8301 233.803 24.7131 233.794 24.5871C233.776 24.4611 233.767 24.3351 233.767 24.2271C233.767 24.1191 233.767 23.9841 233.767 23.8311C233.767 23.5971 233.767 23.3901 233.785 23.2191C233.794 23.0571 233.821 22.8771 233.857 22.6971C233.893 22.5171 233.947 22.3641 234.019 22.2561C234.091 22.1481 234.19 22.0581 234.316 21.9861C234.442 21.9141 234.586 21.8781 234.766 21.8781C235.198 21.8781 235.729 22.0671 236.377 22.4271L236.872 21.1401C236.575 20.9691 236.251 20.8341 235.891 20.7351C235.531 20.6451 235.279 20.5911 235.135 20.5731C234.991 20.5641 234.874 20.5551 234.766 20.5551C234.442 20.5551 234.145 20.5911 233.893 20.6541C233.632 20.7261 233.416 20.8071 233.236 20.9151C233.056 21.0231 232.894 21.1581 232.768 21.3201C232.642 21.4911 232.534 21.6621 232.462 21.8421C232.39 22.0221 232.327 22.2291 232.291 22.4631C232.246 22.6971 232.219 22.9221 232.21 23.1291C232.192 23.3361 232.192 23.5701 232.192 23.8401C232.192 24.1101 232.192 24.3441 232.21 24.5511C232.219 24.7581 232.246 24.9831 232.291 25.2171C232.327 25.4511 232.39 25.6581 232.462 25.8381C232.534 26.0181 232.642 26.1891 232.768 26.3511C232.894 26.5221 233.056 26.6571 233.236 26.7651C233.416 26.8731 233.632 26.9541 233.893 27.0171C234.145 27.0891 234.442 27.1161 234.766 27.1161C234.802 27.1161 234.838 27.1161 234.883 27.1161C234.928 27.1161 235.009 27.1071 235.117 27.0981C235.225 27.0891 235.351 27.0711 235.477 27.0441C235.603 27.0261 235.738 26.9901 235.891 26.9541C236.044 26.9181 236.206 26.8551 236.377 26.7831C236.548 26.7111 236.71 26.6301 236.872 26.5401L236.377 25.2531ZM236.956 24.8661C236.956 25.3071 237.073 25.7031 237.316 26.0451C237.55 26.3961 237.865 26.6661 238.252 26.8461C238.63 27.0261 239.053 27.1161 239.503 27.1161C239.953 27.1161 240.367 27.0261 240.754 26.8461C241.141 26.6661 241.456 26.3961 241.699 26.0451C241.933 25.7031 242.059 25.3071 242.059 24.8661V22.7871C242.059 22.3461 241.933 21.9501 241.699 21.6081C241.456 21.2661 241.141 21.0051 240.754 20.8251C240.367 20.6451 239.953 20.5551 239.503 20.5551C239.053 20.5551 238.639 20.6451 238.261 20.8251C237.874 21.0051 237.559 21.2751 237.316 21.6171C237.073 21.9591 236.956 22.3551 236.956 22.7871V24.8661ZM240.493 24.8661C240.493 25.1631 240.394 25.3971 240.205 25.5591C240.007 25.7211 239.773 25.8021 239.503 25.8021C239.368 25.8021 239.242 25.7841 239.125 25.7481C238.999 25.7121 238.9 25.6491 238.81 25.5681C238.72 25.4961 238.648 25.3971 238.594 25.2711C238.54 25.1541 238.522 25.0191 238.522 24.8661V22.7871C238.522 22.4991 238.612 22.2831 238.801 22.1211C238.981 21.9591 239.215 21.8781 239.503 21.8781C239.782 21.8781 240.016 21.9591 240.205 22.1211C240.394 22.2831 240.493 22.4991 240.493 22.7871V24.8661Z" fill="#90234C"/>
<path d="M127.5 2.99835V26.9851" stroke="#962952" stroke-linecap="round"/>
<defs>
<linearGradient id="paint0_linear_35_1580" x1="5.52705" y1="5.83093" x2="15.4293" y2="7.82784" gradientUnits="userSpaceOnUse">
<stop stop-color="#F39400"/>
<stop offset="1" stop-color="#E33311"/>
</linearGradient>
<linearGradient id="paint1_linear_35_1580" x1="15.1996" y1="2.14877" x2="20.1879" y2="8.90294" gradientUnits="userSpaceOnUse">
<stop stop-color="#EF9C00"/>
<stop offset="1" stop-color="#E2500C"/>
</linearGradient>
<linearGradient id="paint2_linear_35_1580" x1="24.4113" y1="2.99218" x2="23.9512" y2="14.2704" gradientUnits="userSpaceOnUse">
<stop stop-color="#B15306"/>
<stop offset="1" stop-color="#AC250B"/>
</linearGradient>
<linearGradient id="paint3_linear_35_1580" x1="31.0898" y1="10.6645" x2="23.9549" y2="18.3407" gradientUnits="userSpaceOnUse">
<stop stop-color="#791703"/>
<stop offset="1" stop-color="#961708"/>
</linearGradient>
<linearGradient id="paint4_linear_35_1580" x1="31.1666" y1="18.8738" x2="21.5724" y2="22.6368" gradientUnits="userSpaceOnUse">
<stop stop-color="#6A0F02"/>
<stop offset="1" stop-color="#780F13"/>
</linearGradient>
<linearGradient id="paint5_linear_35_1580" x1="26.2536" y1="27.3899" x2="16.8896" y2="23.7805" gradientUnits="userSpaceOnUse">
<stop stop-color="#590A0D"/>
<stop offset="1" stop-color="#8C0D28"/>
</linearGradient>
<linearGradient id="paint6_linear_35_1580" x1="17.8863" y1="31.7631" x2="12.1335" y2="22.5536" gradientUnits="userSpaceOnUse">
<stop stop-color="#640821"/>
<stop offset="1" stop-color="#C1083C"/>
</linearGradient>
<linearGradient id="paint7_linear_35_1580" x1="9.44202" y1="28.8477" x2="8.13843" y2="18.7201" gradientUnits="userSpaceOnUse">
<stop stop-color="#A10842"/>
<stop offset="1" stop-color="#DA0439"/>
</linearGradient>
<linearGradient id="paint8_linear_35_1580" x1="2.14942" y1="22.7866" x2="8.43943" y2="13.6533" gradientUnits="userSpaceOnUse">
<stop stop-color="#E60061"/>
<stop offset="1" stop-color="#E52312"/>
</linearGradient>
<linearGradient id="paint9_linear_35_1580" x1="1.305" y1="14.5773" x2="10.8217" y2="9.73956" gradientUnits="userSpaceOnUse">
<stop stop-color="#EA4B55"/>
<stop offset="1" stop-color="#E7460F"/>
</linearGradient>
</defs>
</svg>
