<svg width="80" height="80" viewBox="0 0 80 80" fill="none" xmlns="http://www.w3.org/2000/svg">
<path d="M3 40C3 44.8589 3.95703 49.6702 5.81646 54.1593C7.67588 58.6483 10.4013 62.7272 13.837 66.1629C17.2728 69.5987 21.3517 72.3241 25.8407 74.1835C30.3298 76.043 35.1411 77 40 77C44.8589 77 49.6702 76.043 54.1593 74.1835C58.6483 72.3241 62.7272 69.5987 66.1629 66.1629C69.5987 62.7272 72.3241 58.6483 74.1835 54.1593C76.043 49.6702 77 44.8589 77 40C77 35.1411 76.043 30.3298 74.1835 25.8407C72.3241 21.3517 69.5987 17.2728 66.1629 13.837C62.7272 10.4013 58.6483 7.67588 54.1593 5.81646C49.6702 3.95703 44.8589 3 40 3C35.1411 3 30.3298 3.95703 25.8407 5.81646C21.3517 7.67588 17.2728 10.4013 13.837 13.837C10.4013 17.2728 7.67588 21.3517 5.81646 25.8407C3.95703 30.3298 3 35.1411 3 40Z" stroke="#941734" stroke-width="5" stroke-linecap="round" stroke-linejoin="round"/>
<path d="M50.2778 56.65C48.9381 55.2827 47.339 54.1964 45.5742 53.4548C43.8093 52.7132 41.9143 52.3312 40 52.3312C38.0857 52.3312 36.1907 52.7132 34.4259 53.4548C32.6611 54.1964 31.062 55.2827 29.7222 56.65M31.7778 28.6945C29.7222 32.8056 21.5 32.8056 19.4445 28.6945M60.5556 28.6945C58.5 32.8056 50.2778 32.8056 48.2222 28.6945" stroke="#941734" stroke-width="5" stroke-linecap="round" stroke-linejoin="round"/>
</svg>
