<svg width="31" height="31" viewBox="0 0 31 31" fill="none" xmlns="http://www.w3.org/2000/svg">
<path d="M15.5 0C12.4344 0 9.43763 0.909059 6.88867 2.61222C4.33971 4.31538 2.35303 6.73615 1.17987 9.5684C0.00671593 12.4007 -0.300236 15.5172 0.297835 18.5239C0.895906 21.5306 2.37214 24.2924 4.53985 26.4602C6.70756 28.6279 9.4694 30.1041 12.4761 30.7022C15.4828 31.3002 18.5993 30.9933 21.4316 29.8201C24.2639 28.647 26.6846 26.6603 28.3878 24.1113C30.0909 21.5624 31 18.5656 31 15.5C30.9961 11.3904 29.3618 7.45016 26.4558 4.5442C23.5498 1.63824 19.6096 0.00394589 15.5 0ZM15.5 25.0385C15.1463 25.0385 14.8005 24.9336 14.5064 24.737C14.2123 24.5405 13.983 24.2612 13.8477 23.9344C13.7123 23.6076 13.6769 23.248 13.7459 22.9011C13.8149 22.5542 13.9852 22.2355 14.2354 21.9854C14.4855 21.7352 14.8042 21.5649 15.1511 21.4959C15.498 21.4269 15.8576 21.4623 16.1844 21.5977C16.5112 21.733 16.7905 21.9623 16.9871 22.2564C17.1836 22.5505 17.2885 22.8963 17.2885 23.25C17.2885 23.7243 17.1 24.1792 16.7646 24.5146C16.4292 24.85 15.9743 25.0385 15.5 25.0385ZM16.6923 17.7505V17.8846C16.6923 18.2008 16.5667 18.5041 16.3431 18.7277C16.1195 18.9513 15.8162 19.0769 15.5 19.0769C15.1838 19.0769 14.8805 18.9513 14.6569 18.7277C14.4333 18.5041 14.3077 18.2008 14.3077 17.8846V16.6923C14.3077 16.3761 14.4333 16.0728 14.6569 15.8492C14.8805 15.6256 15.1838 15.5 15.5 15.5C16.0895 15.5 16.6658 15.3252 17.156 14.9976C17.6462 14.6701 18.0283 14.2046 18.2539 13.6599C18.4795 13.1153 18.5385 12.5159 18.4235 11.9377C18.3085 11.3595 18.0246 10.8284 17.6077 10.4115C17.1909 9.99464 16.6597 9.71075 16.0815 9.59573C15.5033 9.48072 14.904 9.53975 14.3593 9.76536C13.8146 9.99096 13.3491 10.373 13.0216 10.8632C12.6941 11.3534 12.5192 11.9297 12.5192 12.5192C12.5192 12.8354 12.3936 13.1387 12.17 13.3623C11.9464 13.5859 11.6431 13.7115 11.3269 13.7115C11.0107 13.7115 10.7074 13.5859 10.4838 13.3623C10.2602 13.1387 10.1346 12.8354 10.1346 12.5192C10.1346 11.5092 10.4197 10.5197 10.9571 9.6645C11.4945 8.80932 12.2624 8.12318 13.1724 7.68502C14.0825 7.24686 15.0977 7.07447 16.1014 7.18767C17.105 7.30088 18.0563 7.69508 18.8459 8.32494C19.6355 8.9548 20.2312 9.79474 20.5646 10.7482C20.898 11.7016 20.9556 12.7297 20.7306 13.7144C20.5056 14.699 20.0073 15.6002 19.2929 16.3142C18.5785 17.0282 17.6771 17.526 16.6923 17.7505Z" fill="#F39900"/>
</svg>
